<svg width="26" height="26" viewBox="0 0 26 26" fill="none" xmlns="http://www.w3.org/2000/svg">
<path d="M5.3125 0C3.90354 0 2.55228 0.559708 1.556 1.556C0.559708 2.55228 0 3.90354 0 5.3125V10.625H14.875V0H5.3125ZM17 17H25.5V8.5H17V17ZM25.5 19.125H17V25.5H20.1875C21.5965 25.5 22.9477 24.9403 23.944 23.944C24.9403 22.9477 25.5 21.5965 25.5 20.1875V19.125ZM25.5 5.3125V6.375H17V0H20.1875C21.5965 0 22.9477 0.559708 23.944 1.556C24.9403 2.55228 25.5 3.90354 25.5 5.3125ZM14.875 12.75H0V20.1875C0 21.5965 0.559708 22.9477 1.556 23.944C2.55228 24.9403 3.90354 25.5 5.3125 25.5H14.875V12.75Z" fill="white"/>
</svg>
