<?xml version="1.0" encoding="utf-8"?>
<!-- Generator: Adobe Illustrator 27.5.0, SVG Export Plug-In . SVG Version: 6.00 Build 0)  -->
<svg version="1.1" xmlns="http://www.w3.org/2000/svg" xmlns:xlink="http://www.w3.org/1999/xlink" x="0px" y="0px"
	 viewBox="0 0 500 500" style="enable-background:new 0 0 500 500;" xml:space="preserve">
<g id="Background_Complete">
	<g>
		<g>
			<g>
				<g>
					<g>
						<g>
							<g>
								<g>
									<g>
										<path style="fill:#EBEBEB;" d="M36.025,90.189l98.101-25.684c0.794-0.208,1.609,0.251,1.843,1.037l19.417,65.12
											c0.249,0.834-0.252,1.706-1.097,1.913L52.335,157.474c-0.818,0.2-1.642-0.302-1.84-1.12L34.932,92.019
											C34.737,91.213,35.223,90.399,36.025,90.189z"/>
									</g>
								</g>
							</g>
							<g>
								<g>
									<g>
										<path style="fill:#EBEBEB;" d="M34.581,90.568l38.031-50.905c1.61-2.155,4.513-2.883,6.95-1.742l55.987,26.212"/>
									</g>
								</g>
							</g>
						</g>
						<g>
							<g>
								<g>
									<g>
										<polygon style="fill:#FAFAFA;" points="40.63,93.031 34.877,71.05 124.258,48.34 130.197,70.915 94.925,117.09 										
											"/>
									</g>
									<g>
										<g>
											<path style="fill:#E0E0E0;" d="M40.63,93.031c0,0,0.342,0.144,0.998,0.43c0.656,0.288,1.627,0.715,2.894,1.271
												c2.535,1.118,6.252,2.757,10.995,4.849c9.479,4.191,23.052,10.192,39.44,17.438l-0.092,0.023
												c10.205-13.367,22.278-29.178,35.261-46.183l-0.016,0.078c-0.841-3.197-1.738-6.607-2.644-10.049
												c-1.116-4.243-2.219-8.435-3.294-12.525l0.109,0.064C87.166,57.841,54.929,66.017,34.889,71.1l0.037-0.063
												c1.807,6.946,3.235,12.44,4.213,16.2c0.486,1.88,0.86,3.327,1.113,4.305c0.125,0.488,0.22,0.859,0.284,1.11
												C40.6,92.902,40.63,93.031,40.63,93.031s-0.037-0.123-0.104-0.37c-0.067-0.249-0.165-0.618-0.295-1.102
												c-0.258-0.976-0.64-2.418-1.137-4.293c-0.99-3.761-2.438-9.257-4.267-16.204l-0.013-0.05L34.864,71
												C54.899,65.9,87.13,57.697,124.236,48.253l0.087-0.022l0.023,0.087c1.076,4.09,2.179,8.283,3.295,12.525
												c0.905,3.442,1.802,6.852,2.643,10.049l0.011,0.043l-0.027,0.035c-12.991,16.999-25.071,32.805-35.283,46.166
												l-0.037,0.048l-0.055-0.024c-16.387-7.277-29.96-13.304-39.438-17.513c-4.731-2.106-8.44-3.757-10.969-4.883
												c-1.26-0.563-2.225-0.995-2.877-1.286C40.96,93.186,40.63,93.031,40.63,93.031z"/>
										</g>
									</g>
								</g>
							</g>
						</g>
					</g>
				</g>
			</g>
			<g>
				<g>
					<path style="fill:#E0E0E0;" d="M105.245,68.3c0.013,0.049-10.001,2.722-22.365,5.971c-12.367,3.25-22.4,5.845-22.413,5.796
						c-0.013-0.048,9.999-2.722,22.367-5.972C95.198,70.847,105.232,68.252,105.245,68.3z"/>
				</g>
			</g>
			<g>
				<g>
					<path style="fill:#E0E0E0;" d="M115.677,76.6c0.013,0.049-13.502,3.612-30.183,7.958c-16.686,4.348-30.219,7.831-30.231,7.783
						c-0.013-0.049,13.499-3.611,30.186-7.958C102.129,80.036,115.664,76.552,115.677,76.6z"/>
				</g>
			</g>
			<g>
				<g>
					<path style="fill:#E0E0E0;" d="M118.29,86.887c0.013,0.049-12.881,3.45-28.794,7.596c-15.919,4.148-28.83,7.47-28.843,7.421
						c-0.013-0.049,12.878-3.449,28.797-7.597C105.364,90.161,118.278,86.838,118.29,86.887z"/>
				</g>
			</g>
			<g>
				<g>
					<path style="fill:#E0E0E0;" d="M109.255,98.794c0.001,0.003-0.029,0.014-0.088,0.033c-0.069,0.021-0.155,0.046-0.262,0.078
						c-0.245,0.068-0.583,0.162-1.012,0.282c-0.895,0.241-2.165,0.584-3.729,1.005c-3.161,0.85-7.504,2.017-12.302,3.307
						c-4.802,1.306-9.161,2.445-12.319,3.256c-1.57,0.398-2.845,0.722-3.743,0.949c-0.432,0.105-0.773,0.188-1.02,0.249
						c-0.109,0.024-0.196,0.044-0.266,0.06c-0.06,0.013-0.092,0.018-0.092,0.015c-0.001-0.003,0.029-0.014,0.088-0.033
						c0.069-0.021,0.155-0.046,0.262-0.078c0.245-0.068,0.583-0.162,1.011-0.282c0.894-0.241,2.164-0.584,3.728-1.005
						c3.161-0.849,7.505-2.017,12.305-3.307c4.801-1.305,9.159-2.445,12.317-3.256c1.57-0.398,2.845-0.722,3.743-0.949
						c0.432-0.105,0.773-0.189,1.02-0.249c0.109-0.025,0.196-0.044,0.266-0.06C109.223,98.796,109.255,98.791,109.255,98.794z"/>
				</g>
			</g>
			<g>
				<g>
					<path style="fill:#E0E0E0;" d="M100.058,110.37c0.012,0.049-2.866,0.822-6.428,1.727c-3.563,0.905-6.461,1.6-6.473,1.551
						c-0.012-0.049,2.865-0.822,6.428-1.727C97.147,111.016,100.045,110.321,100.058,110.37z"/>
				</g>
			</g>
		</g>
		<g>
			<g>
				<path style="fill:#E0E0E0;" d="M155.143,132.01c-0.002,0.009-0.107-0.009-0.31-0.053c-0.207-0.048-0.506-0.118-0.897-0.21
					c-0.79-0.197-1.947-0.486-3.436-0.857c-2.982-0.769-7.289-1.879-12.61-3.251c-5.32-1.392-11.653-3.049-18.684-4.89
					c-3.515-0.926-7.204-1.898-11.028-2.905c-1.912-0.505-3.858-1.019-5.832-1.541c-0.494-0.131-0.989-0.262-1.486-0.393
					c-0.497-0.131-0.999-0.27-1.486-0.375c-0.986-0.206-2.011-0.242-3.024-0.132c-2.029,0.231-3.946,1.12-5.406,2.469
					c-1.477,1.408-2.933,2.796-4.364,4.159c-2.862,2.731-5.623,5.365-8.254,7.874c-5.268,5.009-10.012,9.52-13.997,13.309
					c-3.996,3.772-7.23,6.825-9.469,8.939c-1.124,1.044-1.997,1.856-2.593,2.41c-0.298,0.269-0.526,0.475-0.684,0.617
					c-0.156,0.137-0.239,0.204-0.246,0.197c-0.007-0.007,0.064-0.087,0.207-0.237c0.149-0.151,0.365-0.37,0.647-0.656
					c0.58-0.571,1.43-1.408,2.523-2.484c2.211-2.143,5.404-5.239,9.35-9.063c3.962-3.813,8.679-8.353,13.917-13.394
					c2.623-2.517,5.377-5.158,8.232-7.897c1.431-1.368,2.888-2.76,4.366-4.173c1.541-1.426,3.566-2.367,5.71-2.611
					c1.07-0.117,2.154-0.077,3.196,0.141c0.526,0.114,1.018,0.251,1.516,0.383c0.497,0.132,0.992,0.263,1.486,0.394
					c1.974,0.524,3.782,1.557,5.694,2.064c3.822,1.018,7.645,1.485,11.157,2.421c7.02,1.882,13.343,3.578,18.654,5.002
					c5.302,1.442,9.594,2.61,12.566,3.418c1.477,0.414,2.625,0.736,3.41,0.956c0.385,0.114,0.68,0.201,0.883,0.262
					C155.045,131.964,155.146,132.001,155.143,132.01z"/>
			</g>
		</g>
	</g>
	<g>
		<g>
			<g>
				<path style="fill:#EBEBEB;" d="M66.417,249.798c6.374-1.523,11.625-6.976,12.849-14.217c1.597-9.486-4.318-18.395-13.213-19.897
					c-8.891-1.502-17.398,4.97-18.995,14.456c-1.231,7.309,2.019,14.233,7.635,17.733c-25.415-0.335-28.715,26.805-28.715,26.805
					l58.604,9.899C84.582,284.577,90.393,257.547,66.417,249.798z"/>
			</g>
		</g>
	</g>
	<g>
		<g>
			<g>
				
					<rect x="352.269" y="56.082" transform="matrix(0.9333 -0.359 0.359 0.9333 -5.8078 151.3246)" style="fill:#EBEBEB;" width="104.497" height="70.435"/>
			</g>
		</g>
		<g>
			<g>
				<g>
					<g>
						<path style="fill:#E0E0E0;" d="M441.254,40.341c0.029,0.016-0.169,0.437-0.571,1.224c-0.454,0.863-1.052,2.001-1.8,3.424
							c-1.649,3.045-3.952,7.298-6.78,12.519c-5.852,10.612-13.862,25.139-22.734,41.229l-0.187,0.34l-0.371-0.118
							c-0.283-0.09-0.589-0.186-0.896-0.284c-17.708-5.662-33.734-10.786-45.451-14.532c-5.728-1.879-10.397-3.411-13.74-4.507
							c-1.546-0.528-2.784-0.951-3.721-1.271c-0.848-0.301-1.288-0.474-1.278-0.505c0.01-0.031,0.47,0.081,1.336,0.323
							c0.951,0.277,2.206,0.644,3.775,1.101c3.365,1.027,8.065,2.461,13.831,4.22c11.738,3.678,27.793,8.708,45.534,14.267
							c0.307,0.097,0.613,0.194,0.896,0.284l-0.557,0.222c8.968-16.036,17.065-30.514,22.98-41.092
							c2.937-5.16,5.329-9.363,7.043-12.373c0.812-1.387,1.462-2.496,1.955-3.338C440.973,40.715,441.226,40.325,441.254,40.341z"/>
					</g>
				</g>
			</g>
		</g>
		<g>
			<g>
				<g>
					<path style="fill:#E0E0E0;" d="M369.013,143.598c-0.248-0.086,3.62-11.918,8.637-26.426
						c5.019-14.512,9.287-26.203,9.535-26.118c0.247,0.085-3.619,11.915-8.638,26.428
						C373.53,131.99,369.261,143.684,369.013,143.598z"/>
				</g>
			</g>
		</g>
		<g>
			<g>
				<g>
					<path style="fill:#E0E0E0;" d="M419.289,77.761c0.135-0.225,10.823,5.933,23.87,13.751
						c13.051,7.821,23.519,14.342,23.385,14.567c-0.135,0.225-10.821-5.932-23.872-13.753
						C429.624,84.508,419.154,77.986,419.289,77.761z"/>
				</g>
			</g>
		</g>
	</g>
	<g>
		<g>
			<g>
				
					<rect x="421.52" y="182.629" transform="matrix(0.1169 -0.9931 0.9931 0.1169 177.295 632.8349)" style="fill:#EBEBEB;" width="45.959" height="68.185"/>
			</g>
		</g>
		<g>
			<g>
				<g>
					<g>
						<path style="fill:#E0E0E0;" d="M481.197,198.46c0.012,0.018-0.23,0.201-0.702,0.533c-0.524,0.361-1.216,0.836-2.08,1.43
							c-1.878,1.257-4.5,3.013-7.719,5.169c-6.604,4.35-15.643,10.304-25.655,16.899l-0.211,0.139l-0.178-0.18
							c-0.136-0.138-0.284-0.287-0.431-0.436c-8.505-8.651-16.201-16.479-21.829-22.202c-2.737-2.826-4.967-5.129-6.564-6.778
							c-0.732-0.775-1.319-1.395-1.762-1.865c-0.398-0.431-0.6-0.665-0.585-0.68c0.015-0.015,0.247,0.189,0.673,0.592
							c0.465,0.449,1.078,1.042,1.845,1.783c1.631,1.615,3.909,3.872,6.704,6.64c5.66,5.691,13.402,13.474,21.958,22.075
							c0.148,0.15,0.295,0.299,0.431,0.436l-0.389-0.041c10.051-6.535,19.126-12.434,25.756-16.745
							c3.264-2.087,5.923-3.787,7.826-5.005c0.89-0.554,1.603-0.997,2.143-1.334C480.921,198.591,481.185,198.442,481.197,198.46z"
							/>
					</g>
				</g>
			</g>
		</g>
		<g>
			<g>
				<g>
					<path style="fill:#E0E0E0;" d="M408.106,236.132c-0.117-0.125,5.712-5.782,13.017-12.634
						c7.308-6.855,13.325-12.309,13.442-12.184c0.117,0.125-5.711,5.781-13.019,12.635
						C414.241,230.802,408.223,236.257,408.106,236.132z"/>
				</g>
			</g>
		</g>
		<g>
			<g>
				<g>
					<path style="fill:#E0E0E0;" d="M457.142,213.393c0.146-0.089,4.447,6.715,9.605,15.194c5.16,8.482,9.223,15.428,9.077,15.517
						c-0.146,0.089-4.446-6.713-9.606-15.195C461.06,220.43,456.996,213.482,457.142,213.393z"/>
				</g>
			</g>
		</g>
	</g>
	<g>
		<g>
			<g>
				<g>
					<path style="fill:#EBEBEB;" d="M460.693,376.67c5.073-2.617,11.046-2.958,16.678-2.027c3.026,0.5,6.18,1.406,8.239,3.678
						c2.059,2.273,2.449,6.272,0.085,8.225c-1.407,1.163-3.37,1.339-5.195,1.318c-4.409-0.051-9.301-0.828-12.823,1.825
						c-2.009,1.513-3.347,4.029-5.75,4.774c-2.35,0.728-5.003-0.659-6.25-2.78c-1.246-2.121-1.288-4.774-0.707-7.164
						C454.971,384.518,455.583,379.306,460.693,376.67z"/>
				</g>
			</g>
			<g>
				<g>
					<path style="fill:#EBEBEB;" d="M449.07,354.233c3.102,4.43,9.131,2.963,11.927,0.259c2.795-2.704,3.977-6.624,5.052-10.361
						c2.457-8.54,4.935-17.498,3.108-26.195c-0.546-2.6-1.518-5.193-3.345-7.122c-1.827-1.929-4.636-3.076-7.205-2.398
						c-3.04,0.803-4.929,3.78-6.295,6.613c-4.014,8.325-6.139,17.555-6.17,26.797C446.127,346.143,446.635,350.67,449.07,354.233"/>
				</g>
			</g>
			<g>
				<g>
					<path style="fill:#EBEBEB;" d="M440.552,360.59c3.368-3.997,4.007-9.828,2.509-14.835c-1.499-5.008-4.885-9.268-8.787-12.746
						c-4.575-4.078-9.953-7.251-15.734-9.284c-2.275-0.8-4.675-1.431-7.076-1.202c-2.401,0.229-4.819,1.457-5.938,3.593
						c-1.656,3.158-0.068,6.989,1.649,10.114c3.025,5.506,6.484,10.773,10.334,15.737c3.097,3.993,6.646,7.933,11.366,9.737
						c4.721,1.805,9.624,1.592,12.127-1.681"/>
				</g>
			</g>
			<g>
				<g>
					<g>
						<path style="fill:#E0E0E0;" d="M448.86,421.066c0.058,0.003,0.152-0.714,0.281-2.013c0.143-1.465,0.322-3.305,0.535-5.494
							c0.256-2.312,0.594-5.063,1.236-8.059c0.64-2.988,1.642-6.227,2.929-9.511c1.333-3.265,2.958-6.233,4.857-8.606
							c1.886-2.384,4.079-4.109,6.14-5.105c2.055-1.015,3.897-1.427,5.171-1.61c1.285-0.132,2.004-0.233,2.004-0.29
							c0.001-0.057-0.72-0.067-2.04-0.031c-1.307,0.087-3.226,0.418-5.392,1.403c-2.173,0.964-4.499,2.716-6.477,5.149
							c-1.994,2.423-3.678,5.456-5.035,8.779c-1.309,3.342-2.296,6.614-2.908,9.667c-0.61,3.048-0.889,5.829-1.071,8.161
							c-0.174,2.333-0.24,4.222-0.272,5.528C448.789,420.339,448.804,421.062,448.86,421.066z"/>
					</g>
				</g>
			</g>
			<g>
				<g>
					<g>
						<path style="fill:#E0E0E0;" d="M449.239,416.838c0.029-0.002,0.046-0.323,0.054-0.934c-0.002-0.702-0.004-1.586-0.007-2.671
							c-0.007-2.318-0.005-5.673,0.119-9.815c0.205-8.285,0.918-17.202,2.296-29.774c1.305-11.821,3.056-25.578,4.904-34.523
							c0.396-2.034,0.796-3.865,1.171-5.468c0.358-1.607,0.664-2.992,0.96-4.112c0.254-1.055,0.46-1.914,0.624-2.597
							c0.134-0.596,0.191-0.914,0.163-0.922c-0.027-0.008-0.139,0.294-0.325,0.876c-0.204,0.672-0.46,1.519-0.776,2.56
							c-0.344,1.11-0.697,2.487-1.099,4.087c-0.419,1.596-0.86,3.422-1.294,5.454c-1.829,8.105-3.765,19.432-5.156,32.033
							c-1.381,12.598-2.003,24.068-2.057,32.374c-0.049,4.153,0.039,7.515,0.145,9.835c0.066,1.085,0.12,1.968,0.163,2.67
							C449.172,416.52,449.21,416.84,449.239,416.838z"/>
					</g>
				</g>
			</g>
			<g>
				<g>
					<g>
						<path style="fill:#E0E0E0;" d="M449.294,394.715c0.058-0.002,0.048-0.993-0.02-2.791c-0.103-1.793-0.349-4.385-0.854-7.56
							c-0.535-3.167-1.284-6.928-2.459-11.015c-0.509-1.868-1.706-6.345-4.606-13.034c-3.821-9.063-9.011-16.473-13.527-21.063
							c-1.059-1.218-2.239-2.097-3.182-2.958c-0.488-0.413-0.92-0.824-1.359-1.151c-0.442-0.305-0.853-0.588-1.235-0.851
							c-1.486-1.016-2.318-1.552-2.349-1.504c-0.133,0.181,3.329,2.219,7.7,6.87c4.354,4.641,9.399,12,13.189,20.987
							c2.113,4.874,3.587,9.222,4.632,12.914c1.208,4.047,2.01,7.77,2.616,10.905c0.576,3.143,0.91,5.709,1.111,7.486
							C449.118,393.73,449.237,394.717,449.294,394.715z"/>
					</g>
				</g>
			</g>
		</g>
		<g>
			<g>
				<polygon style="fill:#E0E0E0;" points="427.911,433.74 430.128,464.111 469.144,464.111 471.361,433.74 				"/>
			</g>
		</g>
		<g>
			<g>
				<rect x="424.142" y="421.77" style="fill:#E0E0E0;" width="51.874" height="11.971"/>
			</g>
		</g>
		<g>
			<g>
				<polygon style="fill:#EBEBEB;" points="424.142,462.949 424.142,466.267 426.58,466.267 475.159,466.267 475.159,462.949 				
					"/>
			</g>
		</g>
		<g>
			<g>
				<polygon style="fill:#E0E0E0;" points="428.969,472.107 426.58,466.267 473.301,466.267 470.514,472.107 				"/>
			</g>
		</g>
		<g>
			<g>
				<g>
					<path style="fill:#F5F5F5;" d="M470.637,443.666c0.009,0.007-0.053,0.102-0.182,0.279c-0.155,0.205-0.346,0.46-0.583,0.773
						c-0.554,0.709-1.316,1.683-2.273,2.909l-0.101,0.129l-0.098-0.135c-1.429-1.976-3.337-4.615-5.584-7.723h0.321
						c-1.661,2.352-3.511,4.972-5.498,7.784l-0.172,0.244l-0.193-0.229c-2.029-2.414-4.232-5.036-6.52-7.758l0.376-0.005
						c-0.113,0.142-0.236,0.296-0.359,0.451c-2.022,2.535-3.979,4.988-5.83,7.309l-0.194,0.244l-0.179-0.254
						c-1.979-2.801-3.829-5.417-5.5-7.783l0.32,0.015c-2.711,3.088-5.009,5.708-6.774,7.718l-0.12,0.137l-0.092-0.154
						c-0.893-1.5-1.605-2.697-2.121-3.563c-0.222-0.387-0.401-0.699-0.544-0.949c-0.12-0.217-0.177-0.332-0.166-0.338
						c0.01-0.006,0.088,0.096,0.227,0.301c0.158,0.24,0.357,0.541,0.602,0.913c0.542,0.851,1.289,2.026,2.227,3.499l-0.212-0.017
						c1.736-2.035,3.998-4.686,6.665-7.812l0.168-0.197l0.152,0.212c1.687,2.355,3.553,4.96,5.55,7.747l-0.374-0.01
						c1.846-2.324,3.799-4.781,5.816-7.32c0.123-0.155,0.245-0.309,0.359-0.451l0.185-0.233l0.191,0.228
						c2.281,2.727,4.479,5.354,6.502,7.772l-0.365,0.014c2.006-2.798,3.875-5.405,5.552-7.745l0.163-0.227l0.159,0.227
						c2.199,3.141,4.067,5.81,5.466,7.807l-0.199-0.006c0.996-1.194,1.788-2.143,2.364-2.835c0.257-0.297,0.465-0.538,0.633-0.733
						C470.548,443.74,470.628,443.659,470.637,443.666z"/>
				</g>
			</g>
		</g>
		<g>
			<g>
				<g>
					<path style="fill:#F5F5F5;" d="M471.904,433.54c0,0.134-9.776,0.243-21.833,0.243c-12.061,0-21.835-0.109-21.835-0.243
						c0-0.134,9.774-0.243,21.835-0.243C462.128,433.297,471.904,433.406,471.904,433.54z"/>
				</g>
			</g>
		</g>
		<g>
			<g>
				<g>
					<path style="fill:#F5F5F5;" d="M473.875,466.594c0,0.134-10.625,0.243-23.728,0.243c-13.108,0-23.731-0.109-23.731-0.243
						c0-0.134,10.622-0.243,23.731-0.243C463.25,466.352,473.875,466.46,473.875,466.594z"/>
				</g>
			</g>
		</g>
	</g>
</g>
<g id="Background_Simple" style="display:none;">
	<path style="display:inline;fill:#EBEBEB;" d="M424.381,111.406l-2.236-3.684c-18.848-31.059-52.925-49.782-88.854-47.51
		c-4.618,0.292-9.217,0.917-13.754,1.888c-32.666,6.993-61.09,31.695-72.872,63.332c-6.929,18.606-8.865,40.029-22.014,54.798
		c-17.113,19.221-46.166,19.824-71.709,19.028c-25.543-0.796-54.616-0.117-71.645,19.179
		c-10.665,12.085-14.055,29.271-13.195,45.456c2.277,42.849,32.135,81.162,70.106,100.206
		c37.972,19.044,82.679,20.749,124.237,12.372c58.217-11.736,113.582-43.964,146.86-93.742
		C442.585,232.95,451.007,165.133,424.381,111.406z"/>
</g>
<g id="Device">
	<g>
		<g>
			<g>
				<path style="fill:#455A64;" d="M296.281,470.772l-156.013,0.083c-12.561,0.007-22.749-10.171-22.756-22.732L117.326,96.71
					c-0.008-14.32,11.595-25.935,25.915-25.943l153.119-0.081c12.697-0.007,22.995,10.281,23.002,22.978l0.188,353.814
					C319.557,460.336,309.139,470.765,296.281,470.772z"/>
			</g>
			<g>
				<path style="fill:#263238;" d="M120.691,440.017l-0.18-338.39c-0.008-15.279,12.371-27.671,27.65-27.679l140.343-0.075
					c15.279-0.008,27.671,12.371,27.679,27.65l0.18,338.39c0.008,15.279-12.371,27.671-27.65,27.679l-140.343,0.075
					C133.092,467.675,120.7,455.296,120.691,440.017z"/>
			</g>
			<g>
				<g>
					<g>
						<path style="fill:#455A64;" d="M203.829,86.528c-1.239,0.001-2.247-1.007-2.248-2.246c-0.001-1.239,1.007-2.248,2.246-2.248
							l28.895-0.015c1.239-0.001,2.248,1.007,2.248,2.246c0.001,1.239-1.007,2.247-2.246,2.248L203.829,86.528z"/>
					</g>
				</g>
				<g>
					<g>
						<g>
							<path style="fill:#455A64;" d="M188.337,86.536c-1.239,0.001-2.248-1.007-2.248-2.246c-0.001-1.239,1.007-2.247,2.246-2.248
								c1.238-0.001,2.246,1.007,2.247,2.246C190.582,85.527,189.575,86.535,188.337,86.536z"/>
						</g>
					</g>
					<g>
						<g>
							<path style="fill:#455A64;" d="M196.606,86.532c-1.239,0.001-2.247-1.007-2.248-2.246c-0.001-1.239,1.007-2.248,2.246-2.248
								c1.238,0,2.247,1.007,2.247,2.246C198.852,85.522,197.844,86.531,196.606,86.532z"/>
						</g>
					</g>
					<g>
						<g>
							<path style="fill:#455A64;" d="M248.343,86.504c-1.239,0.001-2.248-1.007-2.248-2.246c-0.001-1.239,1.007-2.247,2.246-2.248
								c1.238-0.001,2.247,1.007,2.247,2.246C250.589,85.495,249.581,86.503,248.343,86.504z"/>
						</g>
					</g>
					<g>
						<g>
							<path style="fill:#455A64;" d="M240.074,86.509c-1.239,0.001-2.248-1.007-2.248-2.246c-0.001-1.239,1.007-2.248,2.246-2.248
								c1.238-0.001,2.247,1.007,2.247,2.246C242.319,85.499,241.312,86.508,240.074,86.509z"/>
						</g>
					</g>
				</g>
			</g>
			<g>
				<path style="fill:#FAFAFA;" d="M289.966,78.505l-27.198,0.014c-2.639,0.001-4.959,1.737-5.694,4.258l-2.22,7.625
					c-0.822,2.823-3.421,4.767-6.375,4.768l-60.258,0.032c-2.955,0.002-5.555-1.939-6.38-4.762l-2.228-7.622
					c-0.737-2.521-3.059-4.254-5.698-4.252l-27.198,0.014c-11.962,0.006-21.653,9.658-21.647,21.557l0.181,340.619
					c0.006,11.899,9.708,21.541,21.67,21.534l143.25-0.076c11.961-0.006,21.653-9.658,21.646-21.557l-0.181-340.619
					C311.63,88.14,301.928,78.499,289.966,78.505z"/>
			</g>
			<g>
				<path style="fill:#455A64;" d="M319.392,157.633L319.392,157.633c0.731,0,1.324,0.592,1.325,1.323l0.023,43.335
					c0,0.731-0.592,1.324-1.323,1.325l0,0L319.392,157.633z"/>
			</g>
			<g>
				<path style="fill:#455A64;" d="M117.373,186.079L117.373,186.079c-0.758,0.001-1.373,0.615-1.372,1.374l0.014,26.367
					c0,0.758,0.615,1.373,1.374,1.372l0,0L117.373,186.079z"/>
			</g>
			<g>
				<path style="fill:#455A64;" d="M117.353,148.044L117.353,148.044c-0.758,0.001-1.373,0.616-1.372,1.374l0.014,26.367
					c0,0.758,0.616,1.373,1.374,1.372l0,0L117.353,148.044z"/>
			</g>
			<g>
				<path style="fill:#455A64;" d="M117.338,119.494L117.338,119.494c-0.654,0-1.184,0.531-1.183,1.185l0.006,11.168
					c0,0.654,0.531,1.184,1.185,1.183l0,0L117.338,119.494z"/>
			</g>
			<g>
				<g>
					<g>
						<rect x="266.334" y="89.602" style="fill:#FFFFFF;" width="1.387" height="1.946"/>
					</g>
					<g>
						<rect x="268.592" y="88.734" style="fill:#FFFFFF;" width="1.387" height="2.812"/>
					</g>
					<g>
						<rect x="270.851" y="88.083" style="fill:#FFFFFF;" width="1.387" height="3.463"/>
					</g>
					<g>
						<rect x="273.109" y="86.825" style="fill:#FFFFFF;" width="1.387" height="4.72"/>
					</g>
				</g>
				<g>
					<g>
						<path style="fill:#FFFFFF;" d="M294.985,91.631l-6.966,0.004c-0.275,0-0.5-0.224-0.5-0.499l-0.002-3.463
							c0-0.276,0.222-0.499,0.494-0.499l6.97-0.004c0.034,0,0.067,0.014,0.091,0.037c0.024,0.024,0.037,0.056,0.037,0.09
							l0.001,1.142l0.746-0.001c0.071,0,0.128,0.057,0.128,0.128l0.001,1.669c0,0.07-0.057,0.128-0.128,0.128l-0.746,0l0,1.141
							C295.113,91.573,295.056,91.631,294.985,91.631z M294.855,87.424l-6.843,0.004c-0.135,0-0.239,0.107-0.239,0.244l0.002,3.462
							c0,0.135,0.11,0.244,0.244,0.244l6.838-0.004l-0.001-1.141c0-0.07,0.057-0.128,0.128-0.128l0.746,0l-0.001-1.413l-0.745,0
							c-0.071,0-0.128-0.057-0.128-0.127L294.855,87.424z"/>
					</g>
					<g>
						<polygon style="fill:#FFFFFF;" points="288.344,90.81 288.342,87.997 294.288,87.994 294.288,89.263 294.289,89.539 
							294.289,90.807 						"/>
					</g>
				</g>
				<g>
					<g>
						<path style="fill:#FFFFFF;" d="M281.14,91.371c0-0.281-0.228-0.509-0.509-0.509c-0.281,0-0.509,0.228-0.509,0.509
							c0,0.281,0.228,0.509,0.509,0.509C280.912,91.881,281.14,91.653,281.14,91.371z"/>
					</g>
					<g>
						<g>
							<path style="fill:#FFFFFF;" d="M278.894,90.146l0.65,0.649c0.278-0.278,0.662-0.451,1.086-0.451
								c0.424,0,0.808,0.172,1.086,0.45l0.65-0.65c-0.445-0.445-1.059-0.72-1.736-0.719
								C279.952,89.425,279.338,89.701,278.894,90.146z"/>
						</g>
						<g>
							<path style="fill:#FFFFFF;" d="M280.629,87.976c-1.077,0.001-2.053,0.439-2.759,1.147l0.65,0.649
								c0.54-0.541,1.287-0.876,2.11-0.877c0.823,0,1.569,0.334,2.11,0.874l0.65-0.65C282.682,88.413,281.705,87.976,280.629,87.976
								z"/>
						</g>
						<g>
							<path style="fill:#FFFFFF;" d="M276.812,88.066l0.65,0.65c0.811-0.812,1.931-1.315,3.166-1.315
								c1.235-0.001,2.356,0.501,3.167,1.312l0.65-0.65c-0.979-0.977-2.329-1.582-3.818-1.581
								C279.139,86.481,277.789,87.088,276.812,88.066z"/>
						</g>
					</g>
				</g>
			</g>
		</g>
		<g>
			<path style="fill:#FF725E;" d="M163.472,173.695c-0.058,7.12-5.877,12.844-12.997,12.786c-7.12-0.058-12.844-5.877-12.786-12.997
				c0.058-7.12,5.877-12.844,12.997-12.786C157.806,160.757,163.531,166.576,163.472,173.695z"/>
			<g>
				<path style="fill:#263238;" d="M227.904,163.771c-0.001,0.144-11.96,0.162-26.706,0.042
					c-14.752-0.121-26.706-0.335-26.704-0.479c0.001-0.144,11.957-0.162,26.709-0.042
					C215.949,163.413,227.905,163.627,227.904,163.771z"/>
			</g>
			<g>
				<path style="fill:#E0E0E0;" d="M271.488,175.998c-0.001,0.144-21.802,0.082-48.687-0.138
					c-26.894-0.22-48.688-0.515-48.687-0.659c0.001-0.144,21.797-0.082,48.691,0.138
					C249.69,175.559,271.489,175.854,271.488,175.998z"/>
			</g>
			<g>
				<path style="fill:#E0E0E0;" d="M271.409,185.606c-0.001,0.144-21.802,0.082-48.687-0.138
					c-26.894-0.22-48.688-0.515-48.687-0.659c0.001-0.144,21.797-0.082,48.691,0.138
					C249.612,185.167,271.41,185.462,271.409,185.606z"/>
			</g>
			<g>
				<path style="fill:#263238;" d="M300.15,161.922c-0.001,0.144-4.715,0.222-10.527,0.174c-5.814-0.048-10.525-0.203-10.524-0.347
					c0.001-0.144,4.714-0.222,10.528-0.174C295.439,161.623,300.151,161.779,300.15,161.922z"/>
			</g>
			<path style="fill:#FF725E;" d="M291.986,175.333l0.871,1.802c0.15,0.311,0.444,0.528,0.786,0.581l1.978,0.304
				c0.86,0.132,1.195,1.193,0.567,1.795l-1.445,1.385c-0.249,0.239-0.365,0.586-0.309,0.927l0.322,1.975
				c0.14,0.859-0.765,1.505-1.532,1.094l-1.764-0.946c-0.305-0.163-0.67-0.166-0.977-0.008l-1.779,0.917
				c-0.773,0.399-1.668-0.263-1.514-1.119l0.354-1.97c0.061-0.34-0.049-0.688-0.294-0.932l-1.422-1.409
				c-0.618-0.612-0.266-1.668,0.596-1.786l1.983-0.272c0.342-0.047,0.64-0.259,0.795-0.568l0.9-1.787
				C290.495,174.54,291.607,174.549,291.986,175.333z"/>
			<path style="fill:#FF725E;" d="M242.158,163.193c-0.011,1.336-1.103,2.411-2.439,2.4c-1.336-0.011-2.411-1.103-2.4-2.439
				c0.011-1.336,1.103-2.411,2.439-2.4C241.095,160.764,242.169,161.856,242.158,163.193z"/>
			<g>
				<path style="fill:#E0E0E0;" d="M310.904,139.84c-0.001,0.144-41.656-0.081-93.027-0.501
					c-51.388-0.421-93.032-0.878-93.031-1.022c0.001-0.144,41.647,0.081,93.036,0.501
					C269.252,139.238,310.905,139.696,310.904,139.84z"/>
			</g>
			<g>
				<path style="fill:#E0E0E0;" d="M310.358,206.462c-0.001,0.144-41.656-0.081-93.027-0.501
					c-51.388-0.421-93.032-0.878-93.031-1.022c0.001-0.144,41.647,0.081,93.036,0.501
					C268.707,205.861,310.36,206.318,310.358,206.462z"/>
			</g>
		</g>
		<g>
			
				<ellipse transform="matrix(0.7071 -0.7071 0.7071 0.7071 -173.0207 195.5108)" style="fill:#FF725E;" cx="149.492" cy="306.61" rx="12.892" ry="12.892"/>
			<g>
				<path style="fill:#263238;" d="M226.815,296.791c-0.001,0.144-11.959,0.163-26.706,0.042
					c-14.752-0.121-26.706-0.335-26.704-0.479s11.957-0.163,26.709-0.042C214.86,296.433,226.816,296.647,226.815,296.791z"/>
			</g>
			<g>
				<path style="fill:#E0E0E0;" d="M270.399,309.018c-0.001,0.144-21.802,0.082-48.687-0.138
					c-26.894-0.22-48.688-0.515-48.687-0.659c0.001-0.144,21.797-0.082,48.691,0.138C248.601,308.579,270.4,308.874,270.399,309.018
					z"/>
			</g>
			<g>
				<path style="fill:#E0E0E0;" d="M270.32,318.626c-0.001,0.144-21.802,0.082-48.687-0.138c-26.894-0.22-48.688-0.515-48.687-0.659
					c0.001-0.144,21.797-0.082,48.691,0.138C248.522,318.187,270.321,318.482,270.32,318.626z"/>
			</g>
			<g>
				<path style="fill:#263238;" d="M299.06,294.943c-0.001,0.144-4.715,0.222-10.527,0.174c-5.814-0.048-10.525-0.203-10.524-0.347
					c0.001-0.144,4.714-0.222,10.528-0.174C294.35,294.643,299.062,294.799,299.06,294.943z"/>
			</g>
			<path style="fill:#FF725E;" d="M290.897,308.353l0.871,1.802c0.15,0.311,0.444,0.528,0.786,0.581l1.978,0.304
				c0.86,0.132,1.195,1.193,0.567,1.795l-1.444,1.385c-0.249,0.239-0.365,0.586-0.31,0.927l0.322,1.975
				c0.14,0.859-0.765,1.505-1.532,1.094l-1.764-0.946c-0.304-0.163-0.67-0.166-0.977-0.008l-1.779,0.917
				c-0.773,0.399-1.668-0.263-1.514-1.119l0.354-1.97c0.061-0.34-0.049-0.689-0.294-0.932l-1.422-1.409
				c-0.618-0.612-0.266-1.668,0.596-1.786l1.983-0.272c0.342-0.047,0.64-0.259,0.795-0.568l0.9-1.787
				C289.406,307.56,290.518,307.569,290.897,308.353z"/>
			<path style="fill:#FF725E;" d="M241.069,296.213c-0.011,1.336-1.103,2.411-2.439,2.4c-1.336-0.011-2.411-1.103-2.4-2.44
				c0.011-1.336,1.103-2.411,2.439-2.4C240.005,293.784,241.08,294.876,241.069,296.213z"/>
			<g>
				<path style="fill:#E0E0E0;" d="M309.815,272.86c-0.001,0.144-41.656-0.081-93.027-0.501
					c-51.389-0.421-93.033-0.878-93.031-1.022s41.647,0.081,93.036,0.501C268.163,272.259,309.816,272.716,309.815,272.86z"/>
			</g>
			<g>
				<path style="fill:#E0E0E0;" d="M309.269,339.482c-0.001,0.144-41.011-0.126-91.586-0.602
					c-50.593-0.476-91.591-0.979-91.59-1.122c0.001-0.144,41.002,0.126,91.595,0.602
					C268.263,338.836,309.27,339.338,309.269,339.482z"/>
			</g>
		</g>
		<g>
			<path style="fill:#E0E0E0;" d="M161.347,433.223c-0.058,7.12-5.877,12.844-12.997,12.786c-7.12-0.058-12.844-5.877-12.786-12.997
				s5.877-12.844,12.997-12.786C155.681,420.284,161.406,426.103,161.347,433.223z"/>
			<g>
				<path style="fill:#263238;" d="M225.779,423.299c-0.001,0.144-11.96,0.163-26.706,0.042
					c-14.752-0.121-26.706-0.335-26.704-0.479c0.001-0.144,11.957-0.162,26.709-0.042
					C213.824,422.94,225.78,423.155,225.779,423.299z"/>
			</g>
			<g>
				<path style="fill:#E0E0E0;" d="M269.363,435.525c-0.001,0.144-21.802,0.082-48.687-0.138
					c-26.894-0.22-48.688-0.515-48.687-0.659c0.001-0.144,21.797-0.082,48.691,0.138
					C247.565,435.087,269.364,435.382,269.363,435.525z"/>
			</g>
			<g>
				<path style="fill:#E0E0E0;" d="M269.284,445.134c-0.001,0.144-21.802,0.082-48.687-0.138
					c-26.894-0.22-48.688-0.515-48.687-0.659c0.001-0.144,21.797-0.082,48.691,0.138
					C247.487,444.695,269.285,444.99,269.284,445.134z"/>
			</g>
			<g>
				<path style="fill:#263238;" d="M298.025,421.45c-0.001,0.144-4.715,0.222-10.527,0.174c-5.814-0.048-10.525-0.203-10.524-0.346
					c0.001-0.144,4.714-0.222,10.528-0.174C293.314,421.151,298.026,421.306,298.025,421.45z"/>
			</g>
			<path style="fill:#FF725E;" d="M240.033,422.72c-0.011,1.336-1.103,2.411-2.439,2.4c-1.336-0.011-2.411-1.103-2.4-2.44
				c0.011-1.336,1.103-2.411,2.439-2.4C238.97,420.292,240.044,421.384,240.033,422.72z"/>
		</g>
		
			<rect x="125.677" y="205.71" transform="matrix(1 0.0082 -0.0082 1 1.9644 -1.7802)" style="fill:#F5F5F5;" width="185.446" height="66.624"/>
		<g>
			
				<ellipse transform="matrix(0.7071 -0.7071 0.7071 0.7071 -124.8022 176.3071)" style="fill:#455A64;" cx="150.42" cy="238.803" rx="12.892" ry="12.892"/>
			<g>
				<path style="fill:#263238;" d="M227.743,228.984c-0.001,0.144-11.959,0.163-26.706,0.042
					c-14.752-0.121-26.706-0.335-26.704-0.479s11.957-0.162,26.709-0.042C215.788,228.626,227.744,228.841,227.743,228.984z"/>
			</g>
			<g>
				<path style="fill:#E0E0E0;" d="M271.327,241.211c-0.001,0.144-21.802,0.082-48.687-0.138
					c-26.894-0.22-48.688-0.515-48.687-0.659c0.001-0.144,21.797-0.082,48.691,0.138
					C249.529,240.772,271.328,241.067,271.327,241.211z"/>
			</g>
			<g>
				<path style="fill:#E0E0E0;" d="M271.248,250.819c-0.001,0.144-21.802,0.082-48.687-0.138
					c-26.894-0.22-48.688-0.515-48.687-0.659c0.001-0.144,21.797-0.082,48.691,0.138
					C249.451,250.38,271.249,250.676,271.248,250.819z"/>
			</g>
			<g>
				<path style="fill:#263238;" d="M299.989,227.136c-0.001,0.144-4.715,0.222-10.527,0.174c-5.814-0.048-10.525-0.203-10.524-0.347
					c0.001-0.144,4.714-0.222,10.528-0.174C295.278,226.837,299.99,226.992,299.989,227.136z"/>
			</g>
			<g>
				<path style="fill:#263238;" d="M291.825,240.546c-0.022,0.012-0.079-0.109-0.255-0.262c-0.168-0.15-0.515-0.313-0.93-0.199
					c-0.199,0.063-0.406,0.194-0.533,0.413c-0.122,0.225-0.253,0.525-0.396,0.817c-0.145,0.302-0.298,0.62-0.458,0.954
					c-0.128,0.366-0.531,0.76-1.012,0.804c-0.414,0.062-0.845,0.127-1.291,0.194c-0.223,0.034-0.45,0.068-0.681,0.103
					c-0.189,0.034-0.362,0.13-0.489,0.277c-0.254,0.296-0.279,0.794,0.015,1.093c0.369,0.363,0.748,0.735,1.136,1.117l0.297,0.29
					c0.11,0.101,0.228,0.252,0.298,0.406c0.164,0.295,0.131,0.737,0.067,0.983c-0.1,0.568-0.202,1.146-0.306,1.735
					c-0.114,0.468,0.269,0.951,0.747,0.959c0.228,0.027,0.44-0.118,0.742-0.269c0.279-0.144,0.559-0.288,0.841-0.434
					c0.303-0.134,0.508-0.312,0.923-0.42c0.37-0.102,0.828,0.068,1.063,0.225c0.542,0.292,1.077,0.579,1.602,0.862
					c0.408,0.23,0.959-0.009,1.106-0.428c0.089-0.205,0.043-0.413-0.005-0.715c-0.044-0.278-0.087-0.553-0.13-0.825
					c-0.042-0.271-0.085-0.54-0.126-0.805c-0.059-0.303,0.002-0.656,0.173-0.92c0.191-0.285,0.394-0.41,0.571-0.596
					c0.184-0.173,0.365-0.344,0.543-0.512c0.178-0.167,0.353-0.332,0.525-0.494c0.152-0.137,0.242-0.298,0.275-0.48
					c0.074-0.364-0.12-0.745-0.419-0.906c-0.279-0.147-0.745-0.162-1.093-0.24c-0.365-0.063-0.713-0.123-1.043-0.181
					c-0.343-0.031-0.692-0.225-0.868-0.483c-0.182-0.277-0.242-0.501-0.35-0.717C291.986,241.04,291.793,240.562,291.825,240.546
					c0.032-0.016,0.287,0.433,0.72,1.257c0.111,0.193,0.221,0.466,0.364,0.654c0.163,0.198,0.397,0.327,0.716,0.347
					c0.332,0.045,0.682,0.092,1.049,0.141c0.379,0.079,0.74,0.036,1.218,0.244c0.439,0.224,0.732,0.757,0.639,1.298
					c-0.038,0.267-0.186,0.531-0.383,0.714c-0.169,0.165-0.341,0.333-0.515,0.504c-0.175,0.171-0.353,0.345-0.534,0.521
					c-0.17,0.179-0.398,0.358-0.49,0.515c-0.106,0.179-0.144,0.382-0.099,0.604c0.045,0.265,0.09,0.532,0.136,0.803
					c0.046,0.271,0.092,0.546,0.139,0.824c0.042,0.246,0.131,0.628-0.012,0.968c-0.231,0.687-1.124,1.077-1.801,0.709
					c-0.531-0.282-1.07-0.569-1.618-0.861c-0.284-0.17-0.458-0.217-0.713-0.172c-0.198,0.039-0.516,0.246-0.789,0.374
					c-0.282,0.145-0.563,0.29-0.841,0.433c-0.147,0.073-0.26,0.14-0.435,0.217c-0.175,0.079-0.372,0.117-0.565,0.107
					c-0.797-0.005-1.412-0.838-1.23-1.567c0.108-0.588,0.214-1.166,0.318-1.733c0.07-0.31,0.072-0.469-0.021-0.688
					c-0.072-0.184-0.294-0.354-0.488-0.562c-0.389-0.394-0.77-0.778-1.14-1.153c-0.446-0.477-0.395-1.246,0.001-1.68
					c0.196-0.222,0.471-0.364,0.747-0.406c0.236-0.03,0.467-0.06,0.695-0.09c0.448-0.055,0.88-0.109,1.296-0.161
					c0.365-0.038,0.624-0.257,0.766-0.588c0.173-0.328,0.338-0.64,0.494-0.936c0.161-0.295,0.286-0.556,0.448-0.82
					c0.175-0.266,0.446-0.417,0.691-0.475c0.511-0.104,0.893,0.13,1.054,0.32C291.813,240.404,291.835,240.543,291.825,240.546z"/>
			</g>
			<path style="fill:#FF725E;" d="M241.997,228.406c-0.011,1.336-1.103,2.411-2.439,2.4c-1.336-0.011-2.411-1.103-2.4-2.439
				c0.011-1.336,1.103-2.411,2.439-2.4C240.934,225.978,242.008,227.07,241.997,228.406z"/>
		</g>
		
			<rect x="125.817" y="338.516" transform="matrix(1 0.0082 -0.0082 1 3.0518 -1.7769)" style="fill:#F5F5F5;" width="185.446" height="66.624"/>
		<g>
			
				<ellipse transform="matrix(0.7071 -0.7071 0.7071 0.7071 -218.6691 215.3043)" style="fill:#455A64;" cx="150.561" cy="371.609" rx="12.892" ry="12.892"/>
			<g>
				<path style="fill:#263238;" d="M227.884,361.79c-0.001,0.144-11.959,0.163-26.706,0.042
					c-14.752-0.121-26.706-0.335-26.704-0.479c0.001-0.144,11.957-0.162,26.709-0.042
					C215.928,361.432,227.885,361.647,227.884,361.79z"/>
			</g>
			<g>
				<path style="fill:#E0E0E0;" d="M271.467,374.017c-0.001,0.144-21.802,0.082-48.687-0.138
					c-26.894-0.22-48.688-0.515-48.687-0.659c0.001-0.144,21.797-0.082,48.691,0.138
					C249.67,373.578,271.469,373.873,271.467,374.017z"/>
			</g>
			<g>
				<path style="fill:#E0E0E0;" d="M271.389,383.625c-0.001,0.144-21.802,0.082-48.687-0.138
					c-26.894-0.22-48.688-0.515-48.687-0.659c0.001-0.144,21.797-0.082,48.691,0.138
					C249.591,383.186,271.39,383.482,271.389,383.625z"/>
			</g>
			<g>
				<path style="fill:#263238;" d="M300.129,359.942c-0.001,0.144-4.715,0.222-10.527,0.174c-5.814-0.048-10.525-0.203-10.524-0.347
					c0.001-0.144,4.714-0.222,10.528-0.174C295.418,359.643,300.13,359.798,300.129,359.942z"/>
			</g>
			<g>
				<path style="fill:#263238;" d="M291.966,373.352c-0.022,0.012-0.079-0.109-0.255-0.263c-0.168-0.15-0.515-0.313-0.931-0.199
					c-0.199,0.063-0.406,0.194-0.533,0.413c-0.122,0.225-0.253,0.525-0.396,0.817c-0.145,0.302-0.298,0.62-0.458,0.954
					c-0.128,0.366-0.531,0.76-1.012,0.804c-0.414,0.062-0.845,0.127-1.291,0.194c-0.223,0.034-0.45,0.068-0.681,0.103
					c-0.189,0.034-0.362,0.13-0.489,0.277c-0.254,0.296-0.279,0.794,0.015,1.093c0.369,0.363,0.748,0.735,1.136,1.116l0.296,0.29
					c0.11,0.101,0.228,0.252,0.298,0.406c0.164,0.295,0.131,0.737,0.067,0.983c-0.1,0.568-0.202,1.147-0.306,1.735
					c-0.114,0.468,0.268,0.951,0.747,0.959c0.228,0.026,0.44-0.118,0.742-0.269c0.278-0.144,0.559-0.288,0.841-0.434
					c0.303-0.134,0.508-0.312,0.923-0.42c0.37-0.102,0.828,0.068,1.063,0.225c0.542,0.292,1.077,0.579,1.603,0.862
					c0.408,0.23,0.959-0.009,1.106-0.428c0.089-0.205,0.043-0.413-0.005-0.715c-0.044-0.278-0.087-0.553-0.13-0.825
					c-0.043-0.272-0.085-0.54-0.126-0.805c-0.059-0.303,0.002-0.656,0.173-0.92c0.191-0.285,0.394-0.41,0.571-0.596
					c0.184-0.173,0.365-0.344,0.543-0.512c0.178-0.167,0.353-0.332,0.525-0.494c0.152-0.137,0.242-0.298,0.275-0.48
					c0.074-0.364-0.12-0.745-0.419-0.906c-0.279-0.147-0.745-0.162-1.093-0.24c-0.365-0.063-0.713-0.123-1.043-0.181
					c-0.343-0.031-0.692-0.225-0.868-0.483c-0.182-0.277-0.242-0.501-0.35-0.717C292.126,373.846,291.933,373.368,291.966,373.352
					c0.032-0.016,0.287,0.433,0.72,1.257c0.111,0.193,0.221,0.466,0.364,0.654c0.163,0.198,0.397,0.327,0.716,0.347
					c0.332,0.045,0.682,0.092,1.049,0.141c0.379,0.079,0.74,0.035,1.218,0.244c0.439,0.224,0.732,0.757,0.639,1.298
					c-0.038,0.267-0.186,0.531-0.383,0.714c-0.169,0.165-0.341,0.333-0.515,0.504c-0.175,0.171-0.353,0.345-0.534,0.521
					c-0.17,0.179-0.398,0.358-0.49,0.515c-0.106,0.179-0.144,0.382-0.099,0.604c0.045,0.264,0.09,0.532,0.136,0.803
					c0.046,0.271,0.092,0.546,0.139,0.823c0.043,0.246,0.131,0.628-0.012,0.968c-0.231,0.687-1.124,1.077-1.801,0.709
					c-0.531-0.282-1.07-0.569-1.618-0.861c-0.284-0.17-0.458-0.217-0.713-0.172c-0.198,0.039-0.516,0.246-0.789,0.374
					c-0.282,0.145-0.563,0.29-0.841,0.433c-0.147,0.073-0.26,0.14-0.435,0.217c-0.175,0.079-0.372,0.117-0.565,0.107
					c-0.797-0.005-1.412-0.838-1.23-1.567c0.108-0.588,0.214-1.166,0.318-1.733c0.07-0.31,0.072-0.469-0.021-0.689
					c-0.072-0.184-0.294-0.354-0.488-0.562c-0.389-0.394-0.77-0.778-1.14-1.153c-0.446-0.477-0.395-1.246,0.001-1.68
					c0.196-0.221,0.471-0.364,0.747-0.406c0.236-0.03,0.467-0.06,0.695-0.09c0.448-0.055,0.88-0.109,1.296-0.16
					c0.364-0.038,0.624-0.257,0.766-0.588c0.173-0.328,0.338-0.64,0.494-0.936c0.161-0.295,0.286-0.556,0.447-0.82
					c0.175-0.266,0.446-0.417,0.691-0.475c0.511-0.104,0.893,0.13,1.054,0.32C291.953,373.21,291.975,373.349,291.966,373.352z"/>
			</g>
			<path style="fill:#FF725E;" d="M242.138,361.212c-0.011,1.336-1.103,2.411-2.439,2.4c-1.336-0.011-2.411-1.103-2.4-2.44
				c0.011-1.336,1.103-2.411,2.439-2.4C241.074,358.784,242.149,359.876,242.138,361.212z"/>
		</g>
		<g>
			<path style="fill:#FF725E;" d="M226.066,131.318l-15.547-0.127c-1.241-0.01-2.238-1.024-2.228-2.265l0.096-11.688
				c0.01-1.241,1.024-2.238,2.265-2.228l15.547,0.127c1.241,0.01,2.238,1.024,2.228,2.265l-0.096,11.688
				C228.321,130.331,227.307,131.329,226.066,131.318z"/>
			<g>
				<path style="fill:#FFFFFF;" d="M227.35,115.759c0.027,0.024-0.195,0.323-0.618,0.842c-0.424,0.52-1.049,1.26-1.83,2.168
					c-0.816,0.936-1.747,2.003-2.764,3.17c-0.528,0.596-1.077,1.218-1.646,1.86c-0.305,0.327-0.534,0.638-0.917,0.993
					c-0.392,0.33-0.927,0.497-1.451,0.444c-0.523-0.041-1.022-0.338-1.329-0.706c-0.3-0.328-0.595-0.652-0.886-0.97
					c-0.577-0.635-1.134-1.249-1.67-1.839c-1.033-1.154-1.977-2.209-2.805-3.134c-0.793-0.897-1.428-1.63-1.858-2.144
					c-0.43-0.514-0.655-0.81-0.629-0.834c0.026-0.024,0.302,0.225,0.778,0.697c0.476,0.472,1.152,1.166,1.98,2.032
					c0.852,0.903,1.824,1.933,2.887,3.059c0.543,0.583,1.108,1.19,1.692,1.819c0.293,0.317,0.59,0.639,0.892,0.965
					c0.267,0.31,0.604,0.499,0.999,0.538c0.387,0.039,0.78-0.083,1.069-0.325c0.272-0.246,0.584-0.633,0.867-0.934
					c0.576-0.635,1.133-1.25,1.668-1.84c1.048-1.14,2.007-2.182,2.847-3.096c0.816-0.876,1.483-1.579,1.953-2.057
					C227.051,115.988,227.324,115.735,227.35,115.759z"/>
			</g>
			<g>
				<path style="fill:#FFFFFF;" d="M215.313,123.093c0.092,0.102-1.383,1.679-3.218,3.626c-1.837,1.949-3.493,3.378-3.595,3.266
					c-0.092-0.102,1.383-1.679,3.218-3.626C213.555,124.411,215.212,122.981,215.313,123.093z"/>
			</g>
			<g>
				<path style="fill:#FFFFFF;" d="M228.321,130.374c-0.106,0.098-1.769-1.538-3.715-3.653c-1.946-2.115-3.438-3.908-3.331-4.005
					c0.106-0.097,1.769,1.538,3.715,3.653C226.935,128.483,228.426,130.276,228.321,130.374z"/>
			</g>
		</g>
		<g>
			<g>
				<g>
					<g>
						<g>
							<g>
								<path style="fill:#263238;" d="M153.774,121.642c0,0.089-3.422,0.161-7.643,0.162c-4.222,0-7.644-0.072-7.644-0.16
									c0-0.089,3.421-0.162,7.644-0.162C150.352,121.481,153.774,121.553,153.774,121.642z"/>
							</g>
						</g>
					</g>
				</g>
			</g>
			<g>
				<g>
					<g>
						<g>
							<g>
								<path style="fill:#263238;" d="M153.774,125.553c0,0.089-3.422,0.161-7.643,0.162c-4.222,0-7.644-0.071-7.644-0.161
									c0-0.089,3.421-0.161,7.644-0.162C150.352,125.392,153.774,125.464,153.774,125.553z"/>
							</g>
						</g>
					</g>
				</g>
			</g>
			<g>
				<g>
					<g>
						<g>
							<g>
								<path style="fill:#263238;" d="M153.775,129.464c0,0.089-3.422,0.162-7.643,0.162c-4.222,0-7.644-0.071-7.644-0.16
									c0-0.089,3.422-0.161,7.644-0.162C150.352,129.303,153.775,129.375,153.775,129.464z"/>
							</g>
						</g>
					</g>
				</g>
			</g>
		</g>
		<g>
			<g>
				<g>
					<g>
						<g>
							<g>
								<path style="fill:#263238;" d="M297.177,124.127c-0.046,0.002-0.038-0.374-0.213-1.005
									c-0.173-0.619-0.595-1.522-1.522-2.216c-0.896-0.696-2.367-1.088-3.793-0.565c-1.414,0.479-2.64,1.969-2.638,3.719
									c-0.03,1.75,1.171,3.261,2.577,3.763c1.417,0.546,2.895,0.178,3.802-0.503c0.938-0.679,1.375-1.575,1.558-2.191
									C297.133,124.501,297.131,124.125,297.177,124.127c0.016,0,0.027,0.093,0.032,0.271c0.008,0.178-0.01,0.444-0.082,0.777
									c-0.135,0.657-0.547,1.64-1.536,2.413c-0.955,0.773-2.572,1.227-4.156,0.645c-1.57-0.531-2.935-2.215-2.9-4.177
									c-0.002-1.962,1.389-3.622,2.967-4.127c1.593-0.556,3.203-0.076,4.145,0.712c0.976,0.788,1.372,1.778,1.496,2.438
									c0.066,0.334,0.081,0.6,0.07,0.778C297.205,124.035,297.193,124.127,297.177,124.127z"/>
							</g>
						</g>
					</g>
				</g>
			</g>
			<g>
				<g>
					<g>
						<g>
							<g>
								<path style="fill:#263238;" d="M299.431,131.392c-0.097,0.088-1.011-0.76-2.041-1.893c-1.03-1.134-1.787-2.124-1.69-2.212
									c0.097-0.088,1.01,0.759,2.041,1.893C298.771,130.313,299.528,131.304,299.431,131.392z"/>
							</g>
						</g>
					</g>
				</g>
			</g>
		</g>
	</g>
</g>
<g id="Character">
	<g>
		<path style="fill:#9B7564;" d="M287.806,333.033l-0.136,53.741l-23.748-4.883l-19.985-4.177c0,0,27.379,53.989,57.158,53.989
			s33.633-44.929,33.633-44.929l1.752-53.741H287.806z"/>
		<g>
			<g>
				<path style="fill:#263238;" d="M411.177,194.367c-2.211,1.238-5.176-0.364-6.18-2.691c-1.003-2.326-0.539-5.017,0.226-7.432
					c0.765-2.416,1.821-4.786,1.975-7.315c0.279-4.597-2.856-9.186-7.24-10.598c4.301-3.411,4.654-10.719,0.703-14.53
					c-1.847-1.781-4.309-2.75-6.459-4.149c-1.229-0.8-2.348-1.748-3.404-2.777c1.953,0.414,3.905,0.608,5.861,0.183
					c3.116-0.677,5.856-3.009,6.883-6.027c1.027-3.018,0.23-6.617-2.079-8.816c-2.308-2.199-6.041-2.801-8.861-1.313
					c-2.778,1.466-4.303,4.489-5.653,7.325c-0.418,0.879-0.837,1.758-1.255,2.637c-3.912-5.182-7.59-10.535-13.623-12.357
					c-5.468-1.651-11.353,0.191-17.05-0.222c-4.152-0.301-8.135-1.799-12.274-2.252c-4.139-0.453-8.846,0.43-11.29,3.801
					c-1.434,1.978-1.886,4.54-3.337,6.505c-2.998,4.059-9.455,4.611-11.918,9.014c-2.002,3.579-0.462,8.098-1.321,12.107
					c-0.935,4.361-4.528,7.547-7.474,10.896c-2.946,3.349-5.503,7.951-3.852,12.095c1.451,3.645,5.704,5.606,7.089,9.276
					c1.011,2.677,0.274,5.651,0.223,8.512c-0.052,2.861,1.096,6.256,3.883,6.905l31.731,8.381
					c10.928,4.445,22.202,8.961,33.999,8.943c11.797-0.018,24.389-5.68,29.047-16.519c-1.704-0.068-3.372-0.814-4.557-2.041
					C408.032,200.506,410.388,197.644,411.177,194.367z"/>
			</g>
			<g>
				<g>
					<g>
						<g>
							<g>
								<g>
									<g>
										<g>
											<path style="fill:#263238;" d="M385.172,204.323c2.616-8.049,5.2-16.158,6.392-24.537
												c1.192-8.379,0.938-17.113-2.011-25.046c-0.447-1.203-4.258-9.27-5.535-9.144c-0.913,0.09,1.435,7.616,0.973,8.409
												c-4.404,7.562-5.6,16.657-4.897,25.38C380.798,188.108,382.613,195.954,385.172,204.323"/>
										</g>
									</g>
								</g>
							</g>
							<g>
								<g>
									<g>
										<g>
											<g>
												<path style="fill:#9B7564;" d="M357.147,274.655c13.119-0.276,28.005-28.951,28.005-28.951l0.853-73.67
													c0.689-21.214-11.083-39.297-32.308-39.398l-1.962,0.105c-19.745,1.059-35.374,17.096-35.905,36.863
													c-0.495,18.39-0.806,38.716-0.158,48.534c1.342,20.323,21.852,22.395,21.852,22.395c0.046,0,0.114,4.719,0.176,10.696
													C337.841,264.654,351.891,275.114,357.147,274.655L357.147,274.655z"/>
											</g>
										</g>
									</g>
								</g>
							</g>
							<g>
								<g>
									<g>
										<g>
											<g>
												<g>
													<path style="fill:#7F6358;" d="M337.525,240.533c0,0,12.859,0.065,26.06-9.248c0,0-5.663,15.137-26.054,14.393
														L337.525,240.533z"/>
												</g>
											</g>
										</g>
									</g>
								</g>
							</g>
							<g>
								<g>
									<g>
										<g>
											<g>
												<g>
													<g>
														<g>
															<g>
																<g>
																	<g>
																		<g>
																			<path style="fill:#263238;" d="M324.608,185.564c0.027,1.537,1.352,2.78,2.958,2.78
																				c1.602,0,2.881-1.242,2.853-2.779c-0.028-1.536-1.352-2.782-2.954-2.782
																				C325.859,182.783,324.58,184.028,324.608,185.564z"/>
																		</g>
																	</g>
																</g>
															</g>
														</g>
													</g>
												</g>
											</g>
										</g>
									</g>
								</g>
							</g>
							<g>
								<g>
									<g>
										<g>
											<g>
												<g>
													<g>
														<g>
															<g>
																<g>
																	<g>
																		<g>
																			<g>
																				<path style="fill:#263238;" d="M320.63,177.811c0.38,0.359,2.493-1.387,5.62-1.546
																					c3.12-0.204,5.5,1.281,5.818,0.88c0.158-0.178-0.246-0.843-1.283-1.516c-1.022-0.671-2.737-1.286-4.683-1.173
																					c-1.946,0.115-3.545,0.919-4.447,1.703C320.732,176.948,320.443,177.651,320.63,177.811z"/>
																			</g>
																		</g>
																	</g>
																</g>
															</g>
														</g>
													</g>
												</g>
											</g>
										</g>
									</g>
								</g>
							</g>
							<g>
								<g>
									<g>
										<g>
											<g>
												<g>
													<g>
														<g>
															<g>
																<g>
																	<g>
																		<g>
																			<path style="fill:#263238;" d="M352.762,184.814c0.028,1.537,1.353,2.78,2.958,2.78
																				c1.602,0.001,2.881-1.242,2.853-2.779c-0.028-1.536-1.353-2.781-2.955-2.782
																				C354.013,182.032,352.734,183.277,352.762,184.814z"/>
																		</g>
																	</g>
																</g>
															</g>
														</g>
													</g>
												</g>
											</g>
										</g>
									</g>
								</g>
							</g>
							<g>
								<g>
									<g>
										<g>
											<g>
												<g>
													<g>
														<g>
															<g>
																<g>
																	<g>
																		<g>
																			<g>
																				<path style="fill:#263238;" d="M351.31,177.434c0.381,0.359,2.497-1.387,5.62-1.546
																					c3.119-0.204,5.499,1.281,5.818,0.88c0.157-0.178-0.243-0.842-1.284-1.515
																					c-1.022-0.672-2.736-1.286-4.683-1.174c-1.946,0.116-3.545,0.92-4.448,1.704
																					C351.416,176.572,351.125,177.274,351.31,177.434z"/>
																			</g>
																		</g>
																	</g>
																</g>
															</g>
														</g>
													</g>
												</g>
											</g>
										</g>
									</g>
								</g>
							</g>
							<g>
								<g>
									<g>
										<g>
											<g>
												<g>
													<g>
														<g>
															<g>
																<g>
																	<g>
																		<g>
																			<path style="fill:#263238;" d="M341.387,202.05c0.005-0.178-1.956-0.41-5.125-0.644
																				c-0.802-0.039-1.566-0.157-1.73-0.695c-0.219-0.566,0.069-1.445,0.406-2.394
																				c0.647-1.971,1.324-4.038,2.034-6.203c2.814-8.828,4.805-16.069,4.449-16.18
																				c-0.357-0.11-2.927,6.956-5.74,15.784c-0.674,2.176-1.32,4.25-1.933,6.235c-0.253,0.923-0.717,1.979-0.246,3.154
																				c0.247,0.585,0.856,0.986,1.375,1.097c0.52,0.129,0.97,0.113,1.366,0.116
																				C339.419,202.319,341.384,202.228,341.387,202.05z"/>
																		</g>
																	</g>
																</g>
															</g>
														</g>
													</g>
												</g>
											</g>
										</g>
									</g>
								</g>
							</g>
							<g>
								<g>
									<g>
										<g>
											<g>
												<g>
													<g>
														<g>
															<g>
																<g>
																	<g>
																		<g>
																			<path style="fill:#263238;" d="M350.701,203.718c-0.51-0.002-0.334,3.39-3.109,5.954
																				c-2.769,2.571-6.405,2.384-6.407,2.86c-0.036,0.215,0.841,0.615,2.369,0.576c1.5-0.029,3.661-0.628,5.359-2.195
																				c1.692-1.572,2.348-3.583,2.389-4.98C351.355,204.506,350.932,203.686,350.701,203.718z"/>
																		</g>
																	</g>
																</g>
															</g>
														</g>
													</g>
												</g>
											</g>
										</g>
									</g>
								</g>
							</g>
							<g>
								<g>
									<g>
										<g>
											<g>
												<g>
													<g>
														<g>
															<path style="fill:#263238;" d="M350.803,164.742c0.354,0.834,3.452,0.263,7.143,0.509
																c3.695,0.171,6.71,1.086,7.155,0.298c0.197-0.376-0.361-1.148-1.601-1.907c-1.228-0.758-3.161-1.437-5.376-1.564
																c-2.214-0.122-4.211,0.335-5.517,0.95C351.29,163.642,350.648,164.347,350.803,164.742z"/>
														</g>
													</g>
												</g>
											</g>
										</g>
									</g>
								</g>
							</g>
							<g>
								<g>
									<g>
										<g>
											<g>
												<g>
													<g>
														<g>
															<path style="fill:#263238;" d="M321.364,167.353c0.588,0.68,2.701-0.172,5.288-0.346
																c2.581-0.264,4.807,0.221,5.271-0.549c0.202-0.372-0.181-1.065-1.175-1.685c-0.979-0.619-2.588-1.082-4.364-0.932
																c-1.776,0.152-3.283,0.878-4.145,1.653C321.364,166.273,321.103,167.02,321.364,167.353z"/>
														</g>
													</g>
												</g>
											</g>
										</g>
									</g>
								</g>
							</g>
							<g>
								<g>
									<g>
										<g>
											<path style="fill:#9B7564;" d="M385.152,187.182c0.339-0.169,13.752-4.883,14.054,9.045
												c0.301,13.927-13.744,11.357-13.776,10.958C385.397,206.786,385.152,187.182,385.152,187.182z"/>
										</g>
									</g>
								</g>
							</g>
							<g>
								<g>
									<g>
										<g>
											<g>
												<path style="fill:#7F6358;" d="M389.57,201.817c0.06-0.046,0.246,0.164,0.661,0.344
													c0.404,0.174,1.094,0.286,1.814-0.002c1.46-0.572,2.648-2.934,2.661-5.446c0.008-1.268-0.284-2.469-0.754-3.459
													c-0.448-1.01-1.122-1.707-1.865-1.823c-0.741-0.154-1.256,0.301-1.418,0.696c-0.178,0.393-0.084,0.67-0.157,0.695
													c-0.038,0.036-0.304-0.227-0.204-0.805c0.052-0.278,0.208-0.61,0.529-0.885c0.328-0.279,0.817-0.428,1.334-0.383
													c1.075,0.051,2.064,1.018,2.581,2.104c0.576,1.09,0.934,2.439,0.925,3.864c-0.029,2.808-1.408,5.466-3.409,6.091
													c-0.974,0.277-1.798-0.001-2.227-0.321C389.602,202.153,389.522,201.843,389.57,201.817z"/>
											</g>
										</g>
									</g>
								</g>
							</g>
							<g>
								<g>
									<g>
										<g>
											<path style="fill:#263238;" d="M324.547,146.412c-2.271-1.215,4.401-8.602,9.909-11.187
												c8.324-3.906,21.08-6.409,28.828-4.319c9.328,2.517,17.11,7.042,21.885,15.442c4.775,8.4,6.656,18.234,6.508,27.895
												c-0.045,2.948-0.311,6.023-1.853,8.535c-1.906,3.105-5.614,5.092-5.396,9.338c0.08,1.552-0.343,3.125-1.392,4.271
												c-2.514,2.744-5.664,0.237-7.131-2.299c-3.132-5.417-3.556-11.926-3.905-18.173c-0.248-4.44-0.487-8.976,0.711-13.259
												c0.652-2.331,1.718-4.539,2.24-6.902c0.522-2.363,0.416-5.036-1.076-6.942c-0.243-0.31-0.642-0.699-1.146-1.13
												c-3.989-3.407-9.525-4.371-14.447-2.559c-7.809,2.876-21.151,7.192-24.684,4.575c-5.083-3.765-6.318-6.247-6.318-6.247
												L324.547,146.412z"/>
										</g>
									</g>
								</g>
							</g>
						</g>
					</g>
					<g>
						<g>
							<g>
								<g>
									<path style="fill:#263238;" d="M362.533,129.025c-7.687-2.462-16.4-2.216-23.516,1.592
										c-3.778,2.021-7.173,5.219-8.279,9.358c-1.107,4.139,0.719,9.192,4.707,10.757l0.275,0.168
										c5.969,1.924,9.821,1.078,15.721-1.049c4.963-1.79,9.359-4.923,14.331-6.689c5.286-1.877,11.138-2.122,16.563-0.695
										C376.929,136.474,370.219,131.487,362.533,129.025z"/>
								</g>
							</g>
						</g>
					</g>
				</g>
			</g>
			<g>
				<g>
					<path style="fill:#455A64;" d="M389.021,142.796c-0.119,0.107-1.241-1.226-3.504-2.797c-1.132-0.773-2.542-1.622-4.226-2.261
						c-1.672-0.639-3.634-1.115-5.665-0.948c-4.138,0.395-7.586,2.317-9.711,4.004c-2.154,1.71-3.155,3.144-3.286,3.042
						c-0.047-0.033,0.148-0.426,0.606-1.071c0.451-0.649,1.2-1.525,2.257-2.476c2.096-1.878,5.642-4.004,10.058-4.427
						c2.233-0.181,4.319,0.364,6.058,1.08c1.753,0.718,3.18,1.66,4.298,2.527C388.145,141.233,389.101,142.742,389.021,142.796z"/>
				</g>
			</g>
			<g>
				<g>
					<path style="fill:#455A64;" d="M390.411,147.732c0.099,0.023-0.137,1.592-1.061,3.975c-0.914,2.378-2.629,5.525-5.223,8.458
						c-2.605,2.925-5.527,5.002-7.779,6.192c-2.256,1.2-3.786,1.62-3.821,1.525c-0.164-0.27,5.849-2.554,10.904-8.334
						C388.569,153.843,390.124,147.602,390.411,147.732z"/>
				</g>
			</g>
			<g>
				<g>
					<path style="fill:#455A64;" d="M396.079,149.988c0.058,0.003,0.1,0.566,0.056,1.586c-0.042,1.019-0.208,2.493-0.608,4.279
						c-0.777,3.557-2.73,8.408-6.436,12.659c-3.707,4.254-8.247,6.85-11.664,8.105c-1.715,0.641-3.152,1.006-4.156,1.186
						c-1.004,0.183-1.568,0.218-1.578,0.161c-0.036-0.163,2.189-0.549,5.488-1.958c3.284-1.384,7.621-3.99,11.209-8.106
						c3.587-4.114,5.576-8.766,6.5-12.208C395.834,152.232,395.912,149.975,396.079,149.988z"/>
				</g>
			</g>
			<g>
				<g>
					<path style="fill:#455A64;" d="M346.58,127.755c0.032,0.153-1.445,0.496-3.689,1.39c-2.244,0.886-5.225,2.435-8.067,4.768
						c-2.834,2.345-4.925,4.974-6.224,7.007c-1.307,2.032-1.926,3.416-2.07,3.355c-0.095-0.034,0.312-1.521,1.506-3.694
						c1.183-2.169,3.266-4.964,6.196-7.387c2.938-2.411,6.079-3.921,8.434-4.668C345.027,127.77,346.564,127.656,346.58,127.755z"/>
				</g>
			</g>
			<g>
				<g>
					<path style="fill:#455A64;" d="M400.447,129.501c0.232-0.006-0.378,4.036-3.531,7.751c-3.114,3.751-6.988,5.05-7.023,4.821
						c-0.138-0.255,3.369-1.862,6.31-5.419C399.196,133.142,400.172,129.409,400.447,129.501z"/>
				</g>
			</g>
		</g>
		<g>
			<g>
				<g>
					<g>
						<g>
							<path style="fill:#9B7564;" d="M252.46,378.129l8.265-5.066c1.397-0.856,3.003-1.309,4.641-1.309h15.99l16.522,15.043
								l4.932,2.466l-1.835,25.972l-10.742-1.312c0,0-22.934,0.986-25.153-0.493c-2.219-1.48-5.425-6.165-5.425-6.165
								s-12.578-4.074-13.81-5.179c-4.668-4.186-2.783-5.186-2.783-5.186l-2.149-0.979c-0.403,0.759-3.534-4.343-3.206-6.905
								c0.191-1.488-0.247-1.48-0.247-1.48s-3.368-1.776-3.952-5.686c-0.226-1.517,5.99-0.427,5.99-0.427l15.531,0.205
								L252.46,378.129z"/>
						</g>
					</g>
					<g>
						<g>
							<path style="fill:#455A64;" d="M266.27,381.28l-14.608-19.895c-1.075-1.464-2.782-2.328-4.598-2.328h-28.881
								c-1.159,0-2.099,0.94-2.099,2.099l0,0c0,0.503,0.181,0.989,0.509,1.37l16.55,19.207l0,0L266.27,381.28z"/>
						</g>
					</g>
				</g>
				<g>
					<path style="fill:#7F6358;" d="M259.188,389.429c0.008,0.089-1.232,0.299-3.259,0.431c-2.025,0.133-4.839,0.156-7.93-0.108
						c-3.091-0.268-5.86-0.772-7.833-1.25c-1.974-0.477-3.16-0.895-3.137-0.982c0.026-0.101,1.253,0.146,3.238,0.495
						c1.984,0.35,4.734,0.771,7.792,1.037c3.058,0.261,5.839,0.317,7.853,0.311C257.928,389.359,259.18,389.325,259.188,389.429z"/>
				</g>
				<g>
					<path style="fill:#7F6358;" d="M263.336,398.139c0.008,0.089-1.232,0.298-3.259,0.43c-2.025,0.133-4.839,0.156-7.93-0.108
						c-3.091-0.268-5.86-0.772-7.833-1.25c-1.974-0.477-3.16-0.895-3.137-0.982c0.026-0.101,1.253,0.146,3.238,0.495
						c1.984,0.35,4.734,0.771,7.792,1.037c3.058,0.261,5.838,0.317,7.853,0.312C262.076,398.068,263.327,398.034,263.336,398.139z"
						/>
				</g>
				<g>
					<path style="fill:#7F6358;" d="M233.509,381.851c0.061-0.009,0.056,0.669,0.477,1.816c0.411,1.116,1.481,2.747,3.543,3.702
						l0.113,0.052l0,0.119c0.001,1.525,0.231,3.328,1.126,5.085c0.856,1.743,2.425,3.445,4.511,4.413l0.269,0.125l-0.122,0.25
						c-0.301,0.617-0.324,1.335-0.022,1.983c0.29,0.652,0.818,1.227,1.418,1.734c1.226,1.002,2.731,1.786,4.321,2.482
						c3.198,1.375,6.799,2.453,10.584,3.316l0.14,0.032l0.077,0.118c0.873,1.33,2.011,2.53,3.248,3.646
						c1.215,1.151,2.614,2.054,4.243,2.502c1.215,0.37,2.468,0.36,3.766,0.389c1.282,0.033,2.551,0.065,3.805,0.097
						c2.507,0.066,4.952,0.131,7.323,0.193c4.734,0.134,9.169,0.259,13.198,0.372l0.026,0.001l0.023,0.005
						c6.484,1.322,11.877,2.421,15.732,3.207c1.831,0.393,3.294,0.706,4.372,0.937c0.459,0.107,0.835,0.195,1.145,0.268
						c0.258,0.065,0.389,0.106,0.386,0.121c-0.003,0.015-0.14,0.003-0.404-0.034c-0.314-0.05-0.696-0.11-1.161-0.184
						c-1.085-0.192-2.559-0.454-4.403-0.781c-3.867-0.726-9.276-1.743-15.78-2.964l0.048,0.005
						c-4.029-0.086-8.465-0.181-13.201-0.283c-2.371-0.055-4.817-0.112-7.324-0.17c-1.254-0.03-2.523-0.06-3.805-0.091
						c-1.259-0.026-2.633-0.015-3.939-0.413c-1.734-0.467-3.292-1.486-4.519-2.659c-1.265-1.146-2.437-2.382-3.358-3.791
						l0.217,0.149c-3.837-0.888-7.444-1.984-10.696-3.407c-1.617-0.722-3.153-1.53-4.45-2.608c-0.635-0.548-1.22-1.179-1.562-1.964
						c-0.361-0.778-0.319-1.728,0.053-2.447l0.146,0.374c-2.264-1.08-3.837-2.87-4.722-4.72c-0.908-1.857-1.107-3.733-1.071-5.296
						l0.113,0.171c-2.179-1.07-3.211-2.798-3.586-3.972C233.431,382.529,233.509,381.851,233.509,381.851z"/>
				</g>
				<g>
					<path style="fill:#7F6358;" d="M268.069,405.791c0.078,0.164-1.859,1.15-4.487,1.494c-2.626,0.36-4.754-0.081-4.722-0.26
						c0.022-0.206,2.107-0.089,4.629-0.437C266.013,406.26,267.994,405.599,268.069,405.791z"/>
				</g>
				<g>
					<path style="fill:#7F6358;" d="M275.493,381.245c0.007,0.194-3.177,0.467-7.11,0.611c-3.935,0.143-7.129,0.102-7.136-0.092
						c-0.007-0.194,3.176-0.467,7.111-0.61C272.291,381.01,275.486,381.051,275.493,381.245z"/>
				</g>
				<g>
					<path style="fill:#7F6358;" d="M302.514,387.128c0.019,0.029-0.3,0.287-1.006,0.4c-0.695,0.109-1.778-0.007-2.881-0.642
						c-1.115-0.617-2.164-1.655-3.371-2.701c-1.228-1.076-2.547-2.231-3.932-3.444c-2.726-2.341-5.191-4.457-7.206-6.187
						c-1.848-1.581-2.979-2.575-2.918-2.653c0.059-0.074,1.3,0.783,3.231,2.267c1.931,1.485,4.548,3.603,7.354,6.042
						c1.403,1.219,2.721,2.401,3.904,3.493c1.195,1.085,2.193,2.137,3.191,2.754c0.987,0.639,1.953,0.816,2.603,0.797
						C302.141,387.234,302.491,387.071,302.514,387.128z"/>
				</g>
			</g>
			<g>
				<path style="fill:#263238;" d="M263.192,381.71c-0.014,0.011-0.148-0.136-0.389-0.427c-0.273-0.339-0.615-0.764-1.035-1.286
					c-0.925-1.187-2.188-2.809-3.73-4.787c-1.573-2.05-3.427-4.467-5.479-7.141c-1.027-1.346-2.104-2.755-3.22-4.216
					c-0.552-0.68-1.309-1.211-2.161-1.514c-0.427-0.149-0.877-0.241-1.334-0.271c-0.45-0.019-0.959-0.005-1.441-0.009
					c-7.789-0.03-14.836-0.057-20.025-0.076c-2.508-0.034-4.564-0.062-6.068-0.083c-0.669-0.02-1.215-0.036-1.65-0.049
					c-0.377-0.017-0.575-0.035-0.575-0.053c0-0.018,0.198-0.035,0.575-0.052c0.435-0.013,0.98-0.029,1.65-0.049
					c1.504-0.021,3.56-0.048,6.068-0.083c5.189-0.02,12.236-0.047,20.025-0.076c0.496,0.005,0.959-0.011,1.473,0.011
					c0.506,0.033,1.003,0.136,1.475,0.302c0.941,0.336,1.775,0.926,2.382,1.678c1.111,1.473,2.184,2.894,3.208,4.25
					c2.018,2.699,3.842,5.139,5.39,7.208c1.487,2.02,2.706,3.676,3.598,4.888c0.389,0.546,0.705,0.991,0.957,1.345
					C263.1,381.531,263.206,381.699,263.192,381.71z"/>
			</g>
			<path style="fill:#F5F5F5;" d="M231.78,364.892c0.489-0.373,1.271-0.272,1.649,0.212c0.379,0.484,0.288,1.267-0.192,1.652
				c-0.479,0.384-1.264,0.303-1.654-0.172c-0.39-0.475-0.318-1.26,0.152-1.656"/>
		</g>
		<g>
			<path style="fill:#FF725E;" d="M386.584,239.87l40.679,23.915l7.48,132.014l9.717,74.681H298.258c0,0,1.61-90.893,2.116-118.379
				c0.354-19.269-0.165-56.623,6.356-79.588c2.78-9.792,30.017-22.439,30.017-22.439
				C351.641,263.217,368.308,259.291,386.584,239.87z"/>
			<g>
				<path style="fill:#FFFFFF;" d="M440.163,437.456c0,0.144-31.567,0.26-70.499,0.26c-38.945,0-70.505-0.116-70.505-0.26
					c0-0.144,31.561-0.26,70.505-0.26C408.595,437.195,440.163,437.312,440.163,437.456z"/>
			</g>
			<g style="opacity:0.3;">
				<path d="M299.069,414.963c11.32,9.485,28.911,14.631,43.387,17.552c14.476,2.921,29.272,3.972,43.791,6.67
					c10.156,1.887,20.804,4.552,30.593,1.252c9.766-3.293,17.119-12.79,17.863-23.069c0.05-0.691,0.043-1.468-0.438-1.966
					c-0.511-0.53-1.343-0.532-2.078-0.5C388.485,416.844,342.214,416.575,299.069,414.963"/>
			</g>
			<g>
				<g>
					<path style="fill:#9B7564;" d="M291.332,387.641h102.156l0.502-53.833l47.135-6.077c0,0,0.216,54.667,0.216,72.603
						c0,21.515-18.604,36.48-34.218,34.171c-15.614-2.309-115.791-20.964-115.791-20.964V387.641z"/>
					<path style="fill:#FF725E;" d="M444.401,338.914l-54.937,5.704v-64.457c0,0,5.396-21.782,24.374-20.873
						c18.978,0.909,30.169,21.444,30.563,40.267C444.794,318.379,444.401,338.914,444.401,338.914z"/>
				</g>
			</g>
			<path style="fill:#FF725E;" d="M312.537,264.926c0,0-17.605,11.599-22.327,24.383c-4.953,13.409-11.899,56.855-11.899,56.855
				h24.665L312.537,264.926z"/>
			<g>
				<path style="fill:#263238;" d="M388.99,282.718c0.048,0.003,0.047,0.841,0.004,2.354c-0.051,1.629-0.119,3.789-0.201,6.403
					c-0.168,5.406-0.334,12.874-0.31,21.124c0.028,8.252,0.242,15.721,0.444,21.125c0.098,2.614,0.18,4.773,0.241,6.401
					c0.053,1.512,0.06,2.35,0.011,2.353c-0.048,0.003-0.147-0.828-0.284-2.336c-0.14-1.508-0.301-3.692-0.465-6.395
					c-0.329-5.404-0.622-12.882-0.65-21.147c-0.024-8.262,0.221-15.741,0.516-21.147c0.146-2.703,0.293-4.889,0.424-6.398
					C388.848,283.548,388.942,282.715,388.99,282.718z"/>
			</g>
			<g>
				<path style="fill:#263238;" d="M416.664,260.335c-0.024,0.132-1.843-0.356-4.82-0.305c-2.95,0.033-7.119,0.794-10.983,3.162
					c-3.863,2.372-6.432,5.745-7.798,8.359c-1.395,2.631-1.784,4.473-1.913,4.435c-0.041-0.01,0.016-0.475,0.222-1.297
					c0.203-0.822,0.593-1.991,1.248-3.363c1.282-2.732,3.871-6.275,7.874-8.733c4.004-2.453,8.335-3.155,11.351-3.06
					c1.52,0.038,2.739,0.22,3.564,0.411C416.234,260.133,416.675,260.293,416.664,260.335z"/>
			</g>
			<g>
				<path style="fill:#263238;" d="M301.227,295.294c0.024,0,0.048,0.25,0.069,0.727c0.016,0.556,0.037,1.246,0.061,2.086
					c0.04,1.812,0.061,4.433,0.064,7.673c0.007,6.479-0.104,15.428-0.296,25.308c-0.195,9.836-0.371,18.736-0.501,25.304
					c-0.066,3.161-0.12,5.756-0.159,7.668c-0.029,0.84-0.052,1.529-0.071,2.085c-0.024,0.477-0.048,0.727-0.073,0.727
					c-0.024,0-0.047-0.25-0.069-0.727c-0.016-0.556-0.036-1.245-0.061-2.086c-0.04-1.811-0.062-4.433-0.064-7.672
					c-0.007-6.479,0.104-15.429,0.295-25.313c0.195-9.833,0.371-18.732,0.501-25.3c0.066-3.161,0.12-5.756,0.16-7.669
					c0.028-0.84,0.052-1.529,0.071-2.085C301.179,295.544,301.203,295.294,301.227,295.294z"/>
			</g>
			<g>
				<path style="fill:#FFFFFF;" d="M300.604,316.877c-0.001,0.144-3.747,0.228-8.365,0.188c-4.62-0.04-8.362-0.189-8.361-0.333
					c0.001-0.144,3.746-0.228,8.365-0.188C296.862,316.585,300.605,316.734,300.604,316.877z"/>
			</g>
			<g>
				<path style="fill:#FFFFFF;" d="M388.064,301.971c0,0.144-18.967,0.26-42.358,0.26c-23.399,0-42.362-0.116-42.362-0.26
					c0-0.144,18.963-0.26,42.362-0.26C369.097,301.71,388.064,301.827,388.064,301.971z"/>
			</g>
			<g>
				<path style="fill:#FFFFFF;" d="M443.207,293.178c-0.002,0.018-0.193,0.014-0.555-0.009c-0.419-0.034-0.942-0.076-1.58-0.128
					c-1.445-0.125-3.41-0.295-5.806-0.502c-4.903-0.405-11.685-0.855-19.187-1.065c-7.505-0.204-14.302-0.128-19.22,0.007
					c-2.404,0.075-4.375,0.137-5.824,0.182c-0.64,0.016-1.164,0.03-1.585,0.041c-0.363,0.004-0.554-0.003-0.555-0.021
					c-0.001-0.018,0.188-0.046,0.549-0.083c0.419-0.037,0.942-0.082,1.58-0.138c1.373-0.113,3.362-0.234,5.822-0.348
					c4.92-0.229,11.73-0.364,19.247-0.16c7.515,0.21,14.306,0.719,19.206,1.218c2.45,0.249,4.43,0.479,5.795,0.667
					c0.634,0.091,1.154,0.165,1.57,0.225C443.022,293.121,443.209,293.16,443.207,293.178z"/>
			</g>
			<g>
				<path style="fill:#FFFFFF;" d="M443.732,331.374c-0.003,0.144-12.41-0.021-27.707-0.368
					c-15.302-0.347-27.701-0.745-27.697-0.888c0.003-0.144,12.407,0.021,27.709,0.368
					C431.334,330.832,443.735,331.23,443.732,331.374z"/>
			</g>
			<g>
				<path style="fill:#FFFFFF;" d="M393.821,269.892c0,0.144-19.58,0.26-43.728,0.26c-24.156,0-43.733-0.117-43.733-0.26
					c0-0.144,19.576-0.26,43.733-0.26C374.241,269.632,393.821,269.749,393.821,269.892z"/>
			</g>
			<g>
				<path style="fill:#FFFFFF;" d="M388.338,342.548c0,0.144-19.642,0.26-43.866,0.26c-24.232,0-43.87-0.117-43.87-0.26
					s19.638-0.26,43.87-0.26C368.696,342.288,388.338,342.404,388.338,342.548z"/>
			</g>
			<g>
				<path style="fill:#FFFFFF;" d="M394.644,374.626c0,0.144-21.36,0.26-47.704,0.26c-26.353,0-47.708-0.117-47.708-0.26
					s21.356-0.26,47.708-0.26C373.283,374.366,394.644,374.483,394.644,374.626z"/>
			</g>
			<g>
				<path style="fill:#FFFFFF;" d="M442.925,467.13c0,0.144-32.206,0.26-71.924,0.26c-39.732,0-71.931-0.116-71.931-0.26
					c0-0.144,32.199-0.26,71.931-0.26C410.719,466.87,442.925,466.986,442.925,467.13z"/>
			</g>
			<g style="opacity:0.3;">
				<path d="M388.792,345.229c-0.643-12.738-0.186-24.656-0.829-37.394c-4.342,18.671-6.396,37.874-6.101,57.041
					c0.07,4.555,0.286,9.182,1.756,13.494c1.47,4.311,5.537,7.986,9.699,9.836l0.405-43.483
					C391.849,344.816,390.667,345.136,388.792,345.229z"/>
			</g>
		</g>
	</g>
</g>
<g id="Plant">
	<g>
		<g>
			<g>
				<polygon style="fill:#FF725E;" points="105.716,423.478 98.506,470.854 56.623,470.854 46.902,424.163 				"/>
			</g>
		</g>
		<g>
			<g>
				<g>
					<g>
						<path style="fill:#FAFAFA;" d="M52.758,453.841c0,0.136,10.732,0.246,23.968,0.246c13.241,0,23.971-0.11,23.971-0.246
							c0-0.135-10.73-0.246-23.971-0.246C63.49,453.595,52.758,453.706,52.758,453.841z"/>
					</g>
				</g>
			</g>
			<g>
				<g>
					<g>
						<path style="fill:#FAFAFA;" d="M52.595,451.511c0,0.136,10.805,0.246,24.131,0.246c13.33,0,24.133-0.11,24.133-0.246
							c0-0.136-10.803-0.246-24.133-0.246C63.401,451.266,52.595,451.375,52.595,451.511z"/>
					</g>
				</g>
			</g>
			<g>
				<g>
					<g>
						<path style="fill:#FAFAFA;" d="M52.678,448.88c0,0.136,10.805,0.246,24.131,0.246c13.33,0,24.133-0.11,24.133-0.246
							s-10.803-0.246-24.133-0.246C63.483,448.634,52.678,448.744,52.678,448.88z"/>
					</g>
				</g>
			</g>
			<g>
				<g>
					<g>
						<path style="fill:#FAFAFA;" d="M93.695,468.151c0.134,0.023,0.709-2.648,1.285-5.965c0.576-3.318,0.934-6.026,0.8-6.049
							c-0.134-0.023-0.709,2.647-1.285,5.966C93.92,465.419,93.562,468.128,93.695,468.151z"/>
					</g>
				</g>
			</g>
			<g>
				<g>
					<g>
						<path style="fill:#FAFAFA;" d="M90.846,467.648c0.139,0.003,0.299-2.607,0.519-5.82c0.216-3.215,0.411-5.822,0.273-5.837
							c-0.132-0.016-0.546,2.576-0.764,5.804C90.654,465.021,90.714,467.646,90.846,467.648z"/>
					</g>
				</g>
			</g>
			<g>
				<g>
					<g>
						<path style="fill:#FAFAFA;" d="M85.653,467.646c0.13,0.023,0.702-2.638,1.09-5.967c0.392-3.33,0.451-6.051,0.319-6.058
							c-0.139-0.009-0.416,2.686-0.807,6.001C85.869,464.936,85.516,467.622,85.653,467.646z"/>
					</g>
				</g>
			</g>
			<g>
				<g>
					<g>
						<path style="fill:#FAFAFA;" d="M82.008,467.896c0.132,0.012,0.473-2.699,0.58-6.064c0.112-3.365-0.053-6.092-0.185-6.089
							c-0.139,0.003-0.195,2.722-0.306,6.073C81.99,465.166,81.869,467.884,82.008,467.896z"/>
					</g>
				</g>
			</g>
			<g>
				<g>
					<g>
						<path style="fill:#FAFAFA;" d="M75.554,467.648c0.136,0.005,0.333-2.572,0.441-5.755c0.108-3.184,0.085-5.767-0.051-5.772
							c-0.135-0.005-0.333,2.572-0.44,5.755C75.396,465.06,75.419,467.643,75.554,467.648z"/>
					</g>
				</g>
			</g>
			<g>
				<g>
					<g>
						<path style="fill:#FAFAFA;" d="M70.841,467.897c0.136-0.001,0.224-2.667,0.198-5.953c-0.027-3.288-0.159-5.951-0.294-5.95
							c-0.136,0.001-0.224,2.666-0.197,5.954C70.574,465.234,70.705,467.899,70.841,467.897z"/>
					</g>
				</g>
			</g>
			<g>
				<g>
					<g>
						<path style="fill:#FAFAFA;" d="M66.422,467.265c0.135-0.013-0.025-2.799-0.357-6.222c-0.332-3.424-0.711-6.188-0.846-6.175
							c-0.135,0.013,0.025,2.798,0.357,6.222C65.908,464.513,66.286,467.278,66.422,467.265z"/>
					</g>
				</g>
			</g>
			<g>
				<g>
					<g>
						<path style="fill:#FAFAFA;" d="M60.723,466.644c0.13-0.016-0.074-2.406-0.705-5.291c-0.625-2.887-1.432-5.145-1.557-5.106
							c-0.135,0.041,0.457,2.346,1.077,5.211C60.164,464.32,60.584,466.663,60.723,466.644z"/>
					</g>
				</g>
			</g>
		</g>
		<g>
			<g>
				<g>
					<g>
						<path style="fill:#263238;" d="M64.757,329.993c-0.008,0.003,0.009,0.082,0.051,0.234c0.052,0.179,0.116,0.398,0.196,0.669
							c0.194,0.622,0.46,1.476,0.797,2.557c0.359,1.106,0.786,2.462,1.23,4.053c0.451,1.588,1.011,3.383,1.51,5.401
							c0.532,2.009,1.108,4.211,1.632,6.597c0.581,2.374,1.07,4.938,1.615,7.63c1.004,5.4,1.92,11.373,2.566,17.679
							c0.613,6.312,0.896,12.349,0.979,17.842c-0.003,2.747,0.025,5.358-0.076,7.799c-0.043,2.443-0.172,4.716-0.296,6.79
							c-0.09,2.077-0.285,3.947-0.413,5.593c-0.12,1.647-0.271,3.061-0.405,4.216c-0.116,1.126-0.208,2.016-0.275,2.664
							c-0.024,0.281-0.044,0.509-0.059,0.695c-0.011,0.157-0.012,0.238-0.004,0.239c0.008,0.001,0.026-0.077,0.053-0.232
							c0.029-0.184,0.064-0.41,0.108-0.688c0.089-0.646,0.212-1.533,0.367-2.654c0.162-1.153,0.342-2.565,0.488-4.212
							c0.154-1.646,0.373-3.517,0.486-5.596c0.147-2.077,0.296-4.352,0.357-6.8c0.118-2.446,0.106-5.063,0.121-7.816
							c-0.058-5.506-0.328-11.559-0.942-17.887c-0.648-6.322-1.58-12.308-2.611-17.716c-0.559-2.696-1.064-5.263-1.663-7.637
							c-0.543-2.388-1.139-4.589-1.694-6.595c-0.521-2.016-1.106-3.807-1.583-5.39c-0.469-1.585-0.924-2.935-1.311-4.033
							c-0.374-1.069-0.669-1.914-0.885-2.53c-0.098-0.265-0.177-0.479-0.242-0.654C64.798,330.064,64.765,329.99,64.757,329.993z"/>
					</g>
				</g>
			</g>
			<g>
				<g>
					<path style="fill:#263238;" d="M72.316,359.329c-1.13-3.385-3.477-6.348-6.512-8.225c-1.038-0.642-2.346-1.164-3.445-0.633
						c-1.461,0.706-1.579,2.763-1.143,4.326c0.733,2.63,2.451,4.972,4.74,6.461c2.288,1.489,4.412,2.19,7.114,1.794"/>
				</g>
			</g>
			<g>
				<g>
					<path style="fill:#263238;" d="M74.86,379.137c-1.082-4.088-4.343-9.902-7.731-12.432c-0.536-0.4-1.108-0.779-1.758-0.936
						c-0.65-0.157-1.397-0.057-1.88,0.406c-0.692,0.663-0.624,1.778-0.42,2.714c1.294,5.964,6.264,10.968,12.22,12.302"/>
				</g>
			</g>
			<g>
				<g>
					<path style="fill:#263238;" d="M75.562,396.575c-1.667-3.885-4.391-7.31-7.8-9.809c-0.799-0.586-1.746-1.147-2.722-0.97
						c-1.48,0.268-2.151,2.075-2.02,3.574c0.269,3.084,2.625,5.557,5.056,7.473c2.618,2.064,7.215,3.708,7.215,3.708"/>
				</g>
			</g>
			<g>
				<g>
					<path style="fill:#263238;" d="M75.168,409.109c-1.712-2.914-3.842-5.654-6.636-7.556c-0.607-0.413-1.264-0.792-1.991-0.892
						c-0.727-0.1-1.541,0.136-1.954,0.743c-0.665,0.977-0.031,2.298,0.682,3.241c2.464,3.259,5.571,5.724,9.469,6.947"/>
				</g>
			</g>
			<g>
				<g>
					<path style="fill:#263238;" d="M75.496,404.018c2.859-3.504,6.04-6.744,9.49-9.667c0.538-0.456,1.22-0.934,1.891-0.715
						c0.52,0.169,0.834,0.73,0.87,1.276c0.036,0.545-0.152,1.079-0.361,1.584c-2.075,5.013-6.961,8.939-12.218,10.279"/>
				</g>
			</g>
			<g>
				<g>
					<path style="fill:#263238;" d="M75.193,387.705c2.485-3.03,4.971-6.059,7.456-9.089c0.709-0.865,1.442-1.75,2.419-2.295
						c0.976-0.546,2.266-0.681,3.18-0.038c0.913,0.642,1.221,1.903,1.02,3.001s-0.818,2.07-1.455,2.986
						c-1.515,2.182-3.244,4.265-5.432,5.771c-2.189,1.506-4.178,2.485-6.806,2.097"/>
				</g>
			</g>
			<g>
				<g>
					<path style="fill:#263238;" d="M74.156,369.341c1.447-4.328,4.066-8.259,7.502-11.263c0.575-0.502,1.205-0.995,1.955-1.14
						c1.494-0.289,2.936,0.959,3.42,2.401c0.544,1.623,0.172,3.452-0.681,4.935c-0.853,1.483-2.145,2.666-3.504,3.705
						c-2.506,1.916-5.316,3.434-8.293,4.478"/>
				</g>
			</g>
			<g>
				<g>
					<path style="fill:#263238;" d="M71.178,352.966c0.722-5.268,3.464-9.653,6.642-13.917c0.67-0.898,1.604-1.852,2.712-1.683
						c0.706,0.107,1.277,0.679,1.557,1.336c0.28,0.657,0.314,1.392,0.295,2.106c-0.167,6.366-4.559,12.413-10.562,14.54"/>
				</g>
			</g>
			<g>
				<g>
					<path style="fill:#263238;" d="M69.092,344.605c0.261-2.709,0.522-5.437,0.272-8.146c-0.25-2.71-1.045-5.431-2.704-7.588
						c-0.713-0.927-1.608-1.757-2.707-2.158c-1.098-0.402-2.424-0.31-3.321,0.44c-0.831,0.695-1.179,1.842-1.137,2.924
						c0.042,1.082,0.424,2.121,0.84,3.121C62.32,337.977,65.634,343.268,69.092,344.605"/>
				</g>
			</g>
		</g>
		<g>
			<g>
				<g>
					<g>
						<path style="fill:#263238;" d="M101.569,350.884c-0.017,0-0.031,0.231-0.041,0.668c-0.005,0.486-0.012,1.122-0.021,1.912
							c0.002,0.83-0.003,1.845-0.047,3.024c-0.039,1.178-0.047,2.52-0.145,4.001c-0.129,2.964-0.417,6.485-0.866,10.38
							c-0.482,3.891-1.146,8.152-2.063,12.582c-0.941,4.427-2.045,8.597-3.167,12.354c-1.154,3.747-2.306,7.088-3.378,9.854
							c-0.505,1.395-1.037,2.628-1.475,3.722c-0.433,1.097-0.837,2.028-1.172,2.787c-0.31,0.728-0.558,1.312-0.749,1.76
							c-0.166,0.405-0.246,0.621-0.231,0.628c0.015,0.007,0.125-0.195,0.32-0.586c0.212-0.438,0.489-1.011,0.834-1.723
							c0.363-0.748,0.792-1.67,1.25-2.759c0.463-1.086,1.018-2.312,1.546-3.703c1.116-2.757,2.306-6.095,3.487-9.848
							c1.149-3.762,2.271-7.943,3.215-12.386c0.92-4.446,1.572-8.725,2.032-12.631c0.426-3.91,0.678-7.445,0.763-10.418
							c0.076-1.485,0.06-2.831,0.072-4.012c0.018-1.181-0.005-2.198-0.036-3.029c-0.029-0.791-0.053-1.426-0.071-1.913
							C101.606,351.112,101.586,350.883,101.569,350.884z"/>
					</g>
				</g>
			</g>
			<g>
				<g>
					<path style="fill:#263238;" d="M100.402,372.484c-0.041-2.547-1.001-5.07-2.663-7.001c-0.569-0.66-1.347-1.297-2.209-1.173
						c-1.147,0.167-1.67,1.541-1.71,2.699c-0.067,1.948,0.599,3.913,1.837,5.419c1.238,1.506,2.533,2.441,4.457,2.753"/>
				</g>
			</g>
			<g>
				<g>
					<path style="fill:#263238;" d="M97.87,386.518c0.144-3.016-0.826-7.676-2.587-10.129c-0.279-0.388-0.587-0.769-0.996-1.016
						c-0.409-0.247-0.939-0.339-1.367-0.128c-0.614,0.302-0.807,1.076-0.87,1.757c-0.403,4.34,1.904,8.816,5.672,11.006"/>
				</g>
			</g>
			<g>
				<g>
					<path style="fill:#263238;" d="M94.594,398.541c-0.299-3.003-1.416-5.922-3.199-8.357c-0.418-0.571-0.942-1.157-1.644-1.246
						c-1.065-0.136-1.911,0.95-2.145,1.998c-0.48,2.158,0.591,4.348,1.834,6.176c1.339,1.969,4.114,4.078,4.114,4.078"/>
				</g>
			</g>
			<g>
				<g>
					<path style="fill:#263238;" d="M91.628,406.99c-0.538-2.353-1.399-4.676-2.892-6.573c-0.324-0.412-0.69-0.811-1.164-1.036
						c-0.474-0.225-1.078-0.239-1.49,0.085c-0.663,0.522-0.516,1.558-0.233,2.353c0.976,2.75,2.561,5.096,4.952,6.768"/>
				</g>
			</g>
			<g>
				<g>
					<path style="fill:#263238;" d="M92.947,403.594c2.7-1.77,5.564-3.292,8.542-4.539c0.465-0.195,1.031-0.373,1.441-0.08
						c0.317,0.227,0.411,0.677,0.318,1.056c-0.092,0.379-0.336,0.702-0.587,1.001c-2.492,2.967-6.663,4.588-10.531,4.368"/>
				</g>
			</g>
			<g>
				<g>
					<path style="fill:#263238;" d="M96.253,392.423c2.344-1.528,4.688-3.055,7.032-4.583c0.669-0.436,1.359-0.881,2.141-1.042
						c0.782-0.161,1.689,0.024,2.173,0.659c0.483,0.634,0.422,1.558,0.049,2.263c-0.373,0.704-1.003,1.233-1.633,1.72
						c-1.501,1.16-3.126,2.206-4.941,2.76c-1.814,0.554-3.38,0.793-5.086-0.037"/>
				</g>
			</g>
			<g>
				<g>
					<path style="fill:#263238;" d="M99.499,379.697c1.917-2.635,4.546-4.748,7.532-6.053c0.5-0.218,1.035-0.418,1.576-0.355
						c1.079,0.125,1.793,1.285,1.812,2.371c0.021,1.222-0.626,2.387-1.526,3.214c-0.9,0.827-2.034,1.353-3.183,1.768
						c-2.119,0.765-4.359,1.193-6.61,1.263"/>
				</g>
			</g>
			<g>
				<g>
					<path style="fill:#263238;" d="M100.996,367.907c1.626-3.432,4.437-5.826,7.518-8.045c0.65-0.468,1.491-0.915,2.209-0.562
						c0.458,0.225,0.723,0.737,0.772,1.245c0.049,0.508-0.086,1.015-0.252,1.497c-1.484,4.299-5.776,7.47-10.321,7.626"/>
				</g>
			</g>
			<g>
				<g>
					<path style="fill:#263238;" d="M101.376,361.765c0.761-1.788,1.526-3.589,1.939-5.488c0.413-1.899,0.458-3.923-0.208-5.748
						c-0.286-0.785-0.717-1.542-1.378-2.052c-0.661-0.51-1.584-0.733-2.356-0.415c-0.715,0.294-1.199,1-1.403,1.746
						c-0.204,0.746-0.168,1.535-0.1,2.306C98.192,355.795,99.309,360.11,101.376,361.765"/>
				</g>
			</g>
		</g>
		<g>
			<g>
				<g>
					<g>
						<path style="fill:#455A64;" d="M48.615,350.424c-0.017,0-0.036,0.229-0.058,0.666c-0.018,0.487-0.042,1.122-0.071,1.913
							c-0.031,0.831-0.055,1.848-0.036,3.029c0.012,1.181-0.004,2.527,0.072,4.012c0.085,2.973,0.337,6.508,0.764,10.418
							c0.459,3.906,1.111,8.184,2.031,12.631c0.944,4.443,2.066,8.624,3.215,12.386c1.181,3.752,2.371,7.091,3.487,9.848
							c0.527,1.391,1.083,2.616,1.546,3.703c0.458,1.089,0.888,2.011,1.25,2.759c0.345,0.712,0.622,1.285,0.833,1.723
							c0.196,0.392,0.306,0.593,0.321,0.586c0.015-0.007-0.065-0.224-0.231-0.628c-0.19-0.447-0.439-1.032-0.749-1.759
							c-0.335-0.759-0.739-1.691-1.172-2.787c-0.438-1.094-0.97-2.327-1.475-3.722c-1.072-2.766-2.224-6.107-3.378-9.854
							c-1.122-3.757-2.226-7.927-3.167-12.354c-0.917-4.431-1.58-8.692-2.063-12.582c-0.449-3.895-0.737-7.416-0.866-10.38
							c-0.098-1.481-0.106-2.823-0.145-4.001c-0.044-1.178-0.049-2.194-0.047-3.024c-0.009-0.791-0.016-1.426-0.021-1.913
							C48.646,350.655,48.632,350.425,48.615,350.424z"/>
					</g>
				</g>
			</g>
			<g>
				<g>
					<path style="fill:#455A64;" d="M49.783,372.024c0.041-2.548,1.001-5.071,2.663-7.001c0.569-0.66,1.347-1.297,2.209-1.172
						c1.147,0.166,1.67,1.541,1.709,2.699c0.067,1.948-0.599,3.913-1.836,5.419c-1.237,1.506-2.533,2.441-4.457,2.753"/>
				</g>
			</g>
			<g>
				<g>
					<path style="fill:#455A64;" d="M52.314,386.058c-0.144-3.016,0.826-7.676,2.587-10.128c0.279-0.388,0.587-0.769,0.996-1.016
						c0.409-0.247,0.939-0.339,1.367-0.128c0.614,0.302,0.807,1.076,0.87,1.757c0.403,4.34-1.904,8.816-5.672,11.006"/>
				</g>
			</g>
			<g>
				<g>
					<path style="fill:#455A64;" d="M55.59,398.082c0.299-3.003,1.416-5.922,3.199-8.357c0.418-0.571,0.942-1.156,1.644-1.246
						c1.065-0.136,1.911,0.95,2.145,1.998c0.48,2.158-0.591,4.349-1.834,6.177c-1.339,1.969-4.114,4.077-4.114,4.077"/>
				</g>
			</g>
			<g>
				<g>
					<path style="fill:#455A64;" d="M58.556,406.53c0.538-2.353,1.399-4.676,2.892-6.573c0.324-0.412,0.69-0.811,1.164-1.036
						c0.474-0.224,1.078-0.239,1.49,0.085c0.663,0.522,0.516,1.558,0.233,2.353c-0.976,2.75-2.561,5.096-4.952,6.768"/>
				</g>
			</g>
			<g>
				<g>
					<path style="fill:#455A64;" d="M57.237,403.135c-2.7-1.77-5.564-3.292-8.542-4.539c-0.465-0.194-1.032-0.373-1.441-0.08
						c-0.317,0.227-0.411,0.677-0.318,1.056c0.093,0.379,0.336,0.702,0.587,1.001c2.491,2.967,6.663,4.588,10.531,4.368"/>
				</g>
			</g>
			<g>
				<g>
					<path style="fill:#455A64;" d="M53.932,391.964c-2.344-1.528-4.688-3.055-7.033-4.583c-0.669-0.436-1.359-0.881-2.141-1.042
						c-0.782-0.161-1.689,0.024-2.173,0.659c-0.483,0.634-0.422,1.558-0.049,2.263c0.373,0.704,1.002,1.233,1.633,1.72
						c1.501,1.159,3.126,2.206,4.941,2.76c1.814,0.554,3.379,0.792,5.085-0.037"/>
				</g>
			</g>
			<g>
				<g>
					<path style="fill:#455A64;" d="M50.685,379.237c-1.917-2.635-4.546-4.748-7.532-6.053c-0.5-0.219-1.035-0.418-1.576-0.356
						c-1.079,0.125-1.793,1.285-1.812,2.371c-0.021,1.222,0.626,2.387,1.526,3.214c0.9,0.826,2.034,1.353,3.184,1.768
						c2.119,0.765,4.359,1.193,6.61,1.263"/>
				</g>
			</g>
			<g>
				<g>
					<path style="fill:#455A64;" d="M49.188,367.448c-1.626-3.432-4.437-5.827-7.518-8.045c-0.649-0.468-1.491-0.916-2.209-0.562
						c-0.458,0.225-0.723,0.737-0.772,1.245c-0.049,0.508,0.086,1.015,0.252,1.497c1.484,4.298,5.776,7.47,10.321,7.626"/>
				</g>
			</g>
			<g>
				<g>
					<path style="fill:#455A64;" d="M48.809,361.306c-0.761-1.788-1.526-3.589-1.939-5.488c-0.413-1.899-0.458-3.923,0.208-5.748
						c0.286-0.785,0.717-1.542,1.378-2.052c0.661-0.51,1.583-0.732,2.356-0.415c0.716,0.294,1.199,1,1.403,1.746
						c0.204,0.746,0.168,1.535,0.1,2.306C51.992,355.335,50.875,359.651,48.809,361.306"/>
				</g>
			</g>
		</g>
		<g>
			<g>
				<path style="fill:#FF725E;" d="M110.522,414.096v8.865c0,1.927-1.563,3.49-3.49,3.49H46.38c-1.927,0-3.49-1.563-3.49-3.49
					v-8.865H110.522z"/>
			</g>
		</g>
		<g style="opacity:0.4;">
			<g>
				<polygon points="105.263,426.451 104.76,429.274 48.796,433.262 47.378,426.451 				"/>
			</g>
		</g>
	</g>
</g>
<g id="Table">
	<g>
		<path style="fill:#263238;" d="M471.079,470.656c0,0.144-98.988,0.26-221.068,0.26c-122.122,0-221.089-0.117-221.089-0.26
			s98.967-0.26,221.089-0.26C372.09,470.396,471.079,470.513,471.079,470.656z"/>
	</g>
</g>
</svg>
