<svg width="41" height="42" viewBox="0 0 41 42" fill="none" xmlns="http://www.w3.org/2000/svg">
<path fill-rule="evenodd" clip-rule="evenodd" d="M9.16462 0.625418C16.6864 -0.208473 24.2773 -0.208473 31.7991 0.625418C36.2144 1.11842 39.7789 4.596 40.2961 9.03542C41.1903 16.6648 41.1903 24.3716 40.2961 32.001C39.7765 36.4404 36.212 39.9156 31.7991 40.411C24.2773 41.2449 16.6864 41.2449 9.16462 40.411C4.74937 39.9156 1.18479 36.4404 0.667621 32.001C-0.22254 24.3717 -0.22254 16.6647 0.667621 9.03542C1.18479 4.596 4.75179 1.11842 9.16462 0.625418ZM31.398 4.22625C24.1428 3.42205 16.821 3.42205 9.56579 4.22625C8.22271 4.37525 6.96908 4.9727 6.00743 5.92207C5.04579 6.87143 4.43228 8.11728 4.26604 9.45833C3.4065 16.8073 3.4065 24.2315 4.26604 31.5805C4.43279 32.9211 5.04652 34.1664 6.00812 35.1153C6.96972 36.0642 8.22307 36.6613 9.56579 36.8102C16.7602 37.6125 24.2035 37.6125 31.398 36.8102C32.7402 36.6608 33.993 36.0635 34.9541 35.1146C35.9153 34.1658 36.5286 32.9208 36.6953 31.5805C37.5548 24.2315 37.5548 16.8073 36.6953 9.45833C36.5281 8.11852 35.9145 6.87406 34.9535 5.92571C33.9924 4.97735 32.7399 4.38038 31.398 4.23109" fill="#B5BCBF"/>
<path d="M8.41504 20.5176C8.41504 20.0369 8.606 19.5759 8.94591 19.236C9.28582 18.896 9.74683 18.7051 10.2275 18.7051H18.669V10.2637C18.669 9.78297 18.8599 9.32195 19.1998 8.98204C19.5397 8.64213 20.0008 8.45117 20.4815 8.45117C20.9622 8.45117 21.4232 8.64213 21.7631 8.98204C22.103 9.32195 22.294 9.78297 22.294 10.2637V18.7051H30.7354C31.2161 18.7051 31.6771 18.896 32.017 19.236C32.3569 19.5759 32.5479 20.0369 32.5479 20.5176C32.5479 20.9983 32.3569 21.4593 32.017 21.7992C31.6771 22.1391 31.2161 22.3301 30.7354 22.3301H22.294V30.7715C22.294 31.2522 22.103 31.7132 21.7631 32.0531C21.4232 32.393 20.9622 32.584 20.4815 32.584C20.0008 32.584 19.5397 32.393 19.1998 32.0531C18.8599 31.7132 18.669 31.2522 18.669 30.7715V22.3301H10.2275C9.74683 22.3301 9.28582 22.1391 8.94591 21.7992C8.606 21.4593 8.41504 20.9983 8.41504 20.5176Z" fill="#B5BCBF"/>
</svg>
