<svg width="560" height="500" viewBox="0 0 560 500" fill="none" xmlns="http://www.w3.org/2000/svg">
<path d="M560 439.393H0V439.728H560V439.393Z" fill="#EBEBEB"/>
<path d="M125.059 450.654H87.9648V450.99H125.059V450.654Z" fill="#EBEBEB"/>
<path d="M183.122 460.328H149.332V460.664H183.122V460.328Z" fill="#EBEBEB"/>
<path d="M106.514 463.107H63.6738V463.443H106.514V463.107Z" fill="#EBEBEB"/>
<path d="M503.888 462.383H486.08V462.718H503.888V462.383Z" fill="#EBEBEB"/>
<path d="M482.484 462.383H438.445V462.718H482.484V462.383Z" fill="#EBEBEB"/>
<path d="M313.97 450.477H280V450.812H313.97V450.477Z" fill="#EBEBEB"/>
<path d="M399.582 450.477H318.83V450.812H399.582V450.477Z" fill="#EBEBEB"/>
<path d="M265.442 379.536H49.1809C47.4867 379.533 45.8629 378.724 44.666 377.287C43.4691 375.85 42.7969 373.903 42.7969 371.873V7.5961C42.8116 5.57766 43.4904 3.64771 44.6857 2.22544C45.881 0.803171 47.4964 0.00345768 49.1809 0H265.442C267.138 0 268.764 0.807371 269.964 2.2445C271.163 3.68163 271.837 5.63079 271.837 7.6632V371.873C271.837 373.906 271.163 375.855 269.964 377.292C268.764 378.729 267.138 379.536 265.442 379.536ZM49.1809 0.268414C47.561 0.271969 46.0084 1.04556 44.864 2.41938C43.7196 3.7932 43.0769 5.655 43.0769 7.5961V371.873C43.0769 373.814 43.7196 375.676 44.864 377.05C46.0084 378.424 47.561 379.197 49.1809 379.201H265.442C267.063 379.197 268.616 378.424 269.763 377.051C270.909 375.677 271.554 373.816 271.557 371.873V7.5961C271.554 5.65376 270.909 3.792 269.763 2.41856C268.616 1.04512 267.063 0.271962 265.442 0.268414H49.1809Z" fill="#EBEBEB"/>
<path d="M507.708 379.536H291.436C289.741 379.533 288.116 378.724 286.917 377.288C285.719 375.852 285.044 373.905 285.041 371.873V7.5961C285.059 5.57644 285.74 3.6465 286.937 2.2246C288.134 0.802702 289.751 0.00341997 291.436 0H507.708C509.391 0.00698478 511.003 0.808258 512.196 2.23015C513.389 3.65204 514.066 5.57998 514.081 7.5961V371.873C514.081 373.901 513.41 375.846 512.216 377.282C511.021 378.719 509.4 379.529 507.708 379.536ZM291.436 0.268414C289.815 0.271962 288.262 1.04512 287.115 2.41856C285.969 3.792 285.324 5.65376 285.321 7.5961V371.873C285.324 373.816 285.969 375.677 287.115 377.051C288.262 378.424 289.815 379.197 291.436 379.201H507.708C509.329 379.197 510.883 378.424 512.029 377.051C513.175 375.677 513.82 373.816 513.823 371.873V7.5961C513.82 5.65376 513.175 3.792 512.029 2.41856C510.883 1.04512 509.329 0.271962 507.708 0.268414H291.436Z" fill="#EBEBEB"/>
<path d="M328.595 283.457H296.373V439.392H328.595V283.457Z" fill="#E6E6E6"/>
<path d="M315.199 439.393H328.594V412.498H301.154L315.199 439.393Z" fill="#F5F5F5"/>
<path d="M95.8962 283.457H63.6738V439.392H95.8962V283.457Z" fill="#E6E6E6"/>
<path d="M328.585 283.457H84.2012V430.131H328.585V283.457Z" fill="#F5F5F5"/>
<path d="M318.765 328.484H94.082V296.408H318.765V328.484ZM95.202 327.142H317.645V297.75H95.202V327.142Z" fill="#EBEBEB"/>
<path d="M97.5964 439.393H84.2012V412.498H111.641L97.5964 439.393Z" fill="#F5F5F5"/>
<path d="M318.765 417.181H94.082V340.684H318.765V417.181ZM95.202 415.839H317.645V342.026H95.202V415.839Z" fill="#EBEBEB"/>
<path d="M456.81 31.5645H202.145V242.886H456.81V31.5645Z" fill="#E6E6E6"/>
<path d="M461.498 31.5645H206.832V242.886H461.498V31.5645Z" fill="#F5F5F5"/>
<path d="M453.086 232.231V42.248L215.232 42.248V232.231L453.086 232.231Z" fill="white"/>
<path d="M453.094 232.217V42.2344H449.555V232.217H453.094Z" fill="#E6E6E6"/>
<path d="M458.011 59.252H210.301V66.4186H458.011V59.252Z" fill="#F5F5F5"/>
<g opacity="0.5">
<path d="M457.331 24.5059H447.273V259.22H457.331V24.5059Z" fill="#F0F0F0"/>
<path d="M444.554 24.5059H434.496V259.22H444.554V24.5059Z" fill="#F0F0F0"/>
<path d="M431.771 24.5059H421.713V259.22H431.771V24.5059Z" fill="#F0F0F0"/>
<path d="M419.003 24.5059H408.945V259.22H419.003V24.5059Z" fill="#F0F0F0"/>
<path d="M406.226 24.5059H396.168V259.22H406.226V24.5059Z" fill="#F0F0F0"/>
<path d="M393.446 24.5059H383.389V259.22H393.446V24.5059Z" fill="#F0F0F0"/>
<path d="M380.675 24.5059H370.617V259.22H380.675V24.5059Z" fill="#F0F0F0"/>
<path d="M367.901 24.5059H357.844V259.22H367.901V24.5059Z" fill="#F0F0F0"/>
<path d="M355.12 24.5059H345.062V259.22H355.12V24.5059Z" fill="#F0F0F0"/>
<path d="M342.339 24.5059H332.281V259.22H342.339V24.5059Z" fill="#F0F0F0"/>
<path d="M329.573 24.5059H319.516V259.22H329.573V24.5059Z" fill="#F0F0F0"/>
<path d="M316.792 24.5059H306.734V259.22H316.792V24.5059Z" fill="#F0F0F0"/>
<path d="M304.011 24.5059H293.953V259.22H304.011V24.5059Z" fill="#F0F0F0"/>
<path d="M291.233 24.5059H281.176V259.22H291.233V24.5059Z" fill="#F0F0F0"/>
<path d="M278.466 24.5059H268.408V259.22H278.466V24.5059Z" fill="#F0F0F0"/>
</g>
<path d="M143.638 56.8105H69.8301V217.644H143.638V56.8105Z" fill="#F0F0F0"/>
<path d="M159.49 56.8105H74.5938V217.644H159.49V56.8105Z" fill="#F5F5F5"/>
<path d="M78.0508 60.6217L78.0508 213.832H156.025V60.6217H78.0508Z" fill="white"/>
<path d="M98.8398 91.1121V183.339C98.8398 185.385 100.224 187.043 101.931 187.043H132.16C133.867 187.043 135.251 185.385 135.251 183.339V91.1121C135.251 89.0663 133.867 87.408 132.16 87.408H101.931C100.224 87.408 98.8398 89.0663 98.8398 91.1121Z" fill="#F5F5F5"/>
<path d="M429.981 190.963L445.079 235.546C444.642 364.506 449.503 371.941 449.559 394.125H411.479C410.067 286.183 423.429 310.447 429.981 190.963Z" fill="#EBEBEB"/>
<path d="M451.257 322.659C420.58 221.454 349.953 252.791 353.123 289.684C356.292 326.578 468.897 380.864 451.257 322.659Z" fill="#EBEBEB"/>
<path d="M439.656 381.011C422.923 315.8 378.414 326.443 378.414 356.411C378.414 386.38 449.288 418.522 439.656 381.011Z" fill="#EBEBEB"/>
<path d="M438.469 263.286C412.194 176.052 346.752 188.13 352.028 224.889C357.303 261.649 453.6 313.426 438.469 263.286Z" fill="#EBEBEB"/>
<path d="M438.646 224.193C441.077 164.793 391.987 140.34 395.392 175.878C398.797 211.416 437.246 258.348 438.646 224.193Z" fill="#EBEBEB"/>
<path d="M434.983 285.001C445.343 211.804 508.254 183.97 501.22 225.399C494.187 266.829 429.014 327.101 434.983 285.001Z" fill="#EBEBEB"/>
<path d="M429.686 243.625C417.466 166.873 473.982 132.771 475.606 169.812C477.23 206.853 436.708 287.766 429.686 243.625Z" fill="#EBEBEB"/>
<path d="M424.78 330.324C449.744 256.362 503.18 274.708 497.815 308.367C492.45 342.027 410.421 372.867 424.78 330.324Z" fill="#EBEBEB"/>
<path d="M437.104 381.965C436.544 334.255 472.698 321.921 473.123 349.568C473.549 377.214 437.429 409.41 437.104 381.965Z" fill="#EBEBEB"/>
<path d="M426.062 439.729C416.592 439.766 407.395 435.928 399.992 428.851C392.589 421.774 387.423 411.881 385.35 400.809C384.373 394.853 382.952 389.014 381.105 383.362L380.803 382.449H471.332L471.019 383.362C469.176 389.014 467.759 394.853 466.785 400.809C464.709 411.882 459.542 421.775 452.137 428.852C444.732 435.929 435.534 439.766 426.062 439.729Z" fill="#E0E0E0"/>
<path d="M280.001 500C399.933 500 497.157 493.198 497.157 484.807C497.157 476.417 399.933 469.615 280.001 469.615C160.068 469.615 62.8438 476.417 62.8438 484.807C62.8438 493.198 160.068 500 280.001 500Z" fill="#F5F5F5"/>
<path d="M144.893 213.312L144.188 212.278C147.084 209.448 150.154 206.882 153.371 204.602L153.943 205.769C150.773 208.009 147.748 210.53 144.893 213.312Z" fill="#407BFF"/>
<path d="M121.889 251.669L120.848 251.199C124.694 238.936 130.677 227.795 138.398 218.52L139.193 219.472C131.585 228.613 125.687 239.588 121.889 251.669Z" fill="#407BFF"/>
<path d="M338.88 310.811C338.796 299.161 336.337 287.712 331.718 277.46C327.099 267.208 320.459 258.464 312.377 251.988C304.294 245.512 295.014 241.501 285.342 240.303C275.671 239.106 265.902 240.758 256.885 245.117C250.327 229.015 239.754 215.755 226.63 207.171C213.506 198.587 198.479 195.105 183.63 197.205C168.781 199.306 154.845 206.886 143.749 218.896C132.654 230.906 124.949 246.753 121.701 264.241C105.603 265.458 90.5335 274.138 79.686 288.442C68.8385 302.747 63.0658 321.55 63.5916 340.868C64.1174 360.185 70.9002 378.498 82.5025 391.925C94.1047 405.352 109.614 412.837 125.744 412.795H323.222C333.518 412.811 343.492 408.5 351.408 400.613C359.324 392.725 364.681 381.761 366.546 369.629C368.411 357.496 366.666 344.964 361.615 334.215C356.564 323.465 348.527 315.178 338.902 310.798L338.88 310.811Z" fill="#407BFF"/>
<path d="M294.46 286.79H136.428C135.141 286.783 133.91 286.167 133.001 285.075C132.093 283.984 131.581 282.507 131.578 280.965C131.581 279.425 132.093 277.949 133.002 276.86C133.911 275.771 135.142 275.158 136.428 275.154H294.46C295.745 275.158 296.977 275.771 297.886 276.86C298.794 277.949 299.306 279.425 299.309 280.965C299.306 282.507 298.795 283.984 297.886 285.075C296.978 286.167 295.746 286.783 294.46 286.79Z" fill="#263238"/>
<path d="M270.627 365.434H160.262C155.937 365.434 151.79 363.376 148.731 359.711C145.673 356.047 143.955 351.076 143.955 345.894C143.955 340.712 145.673 335.741 148.731 332.077C151.79 328.412 155.937 326.354 160.262 326.354H270.627C274.952 326.354 279.1 328.412 282.158 332.077C285.216 335.741 286.934 340.712 286.934 345.894C286.934 351.076 285.216 356.047 282.158 359.711C279.1 363.376 274.952 365.434 270.627 365.434ZM160.262 327.696C156.234 327.696 152.371 329.613 149.523 333.026C146.675 336.439 145.075 341.067 145.075 345.894C145.075 350.721 146.675 355.349 149.523 358.762C152.371 362.175 156.234 364.092 160.262 364.092H270.627C274.655 364.092 278.518 362.175 281.366 358.762C284.214 355.349 285.814 350.721 285.814 345.894C285.814 341.067 284.214 336.439 281.366 333.026C278.518 329.613 274.655 327.696 270.627 327.696H160.262Z" fill="white"/>
<path d="M186.047 360.737H160.287C156.996 360.741 153.837 359.18 151.505 356.398C149.172 353.615 147.856 349.838 147.844 345.894C147.853 341.959 149.16 338.188 151.481 335.405C153.802 332.621 156.947 331.051 160.231 331.037H185.991C189.275 331.051 192.42 332.621 194.741 335.405C197.062 338.188 198.369 341.959 198.378 345.894C198.366 349.815 197.065 353.572 194.757 356.35C192.448 359.129 189.319 360.705 186.047 360.737Z" fill="white"/>
<path d="M298.973 173.975L278.018 280.964H153.004L187.97 102.402L274.535 126.734L298.973 173.975Z" fill="#407BFF"/>
<path opacity="0.8" d="M298.973 173.975L278.018 280.964H153.004L187.97 102.402L274.535 126.734L298.973 173.975Z" fill="#FAFAFA"/>
<path d="M282.664 193.865L187.71 167.158C187.386 167.068 187.079 166.902 186.808 166.669C186.537 166.437 186.307 166.143 186.131 165.804C185.955 165.464 185.837 165.087 185.783 164.693C185.729 164.299 185.741 163.896 185.817 163.507C185.969 162.721 186.376 162.039 186.947 161.612C187.518 161.184 188.207 161.045 188.864 161.226L283.829 187.893C284.484 188.081 285.05 188.572 285.405 189.258C285.759 189.944 285.873 190.77 285.721 191.557C285.569 192.347 285.162 193.033 284.59 193.466C284.017 193.898 283.325 194.042 282.664 193.865Z" fill="#407BFF"/>
<path d="M279.039 212.383L184.085 185.676C183.76 185.585 183.454 185.417 183.182 185.184C182.911 184.95 182.681 184.655 182.506 184.314C182.33 183.974 182.212 183.596 182.158 183.201C182.104 182.806 182.116 182.402 182.193 182.013C182.35 181.228 182.759 180.549 183.332 180.124C183.904 179.699 184.594 179.563 185.25 179.744L280.204 206.452C280.858 206.637 281.424 207.125 281.779 207.809C282.134 208.493 282.248 209.317 282.097 210.102C281.942 210.889 281.534 211.571 280.961 211.999C280.388 212.426 279.697 212.565 279.039 212.383Z" fill="#407BFF"/>
<path d="M275.41 230.838L180.456 204.144C179.801 203.956 179.235 203.466 178.88 202.779C178.526 202.093 178.412 201.267 178.563 200.481C178.723 199.698 179.133 199.021 179.705 198.597C180.277 198.173 180.965 198.035 181.621 198.213L276.575 224.906C276.9 224.998 277.207 225.165 277.478 225.399C277.749 225.633 277.979 225.928 278.154 226.268C278.33 226.609 278.448 226.987 278.502 227.382C278.556 227.777 278.544 228.181 278.468 228.57C278.391 228.96 278.251 229.327 278.056 229.652C277.861 229.977 277.615 230.252 277.331 230.463C277.047 230.674 276.731 230.815 276.401 230.88C276.072 230.944 275.735 230.93 275.41 230.838Z" fill="#407BFF"/>
<path d="M271.79 249.412L176.825 222.786C176.172 222.594 175.607 222.103 175.253 221.418C174.899 220.733 174.784 219.908 174.932 219.122C175.089 218.337 175.499 217.658 176.072 217.234C176.644 216.809 177.334 216.672 177.99 216.854L272.944 243.548C273.599 243.736 274.166 244.226 274.523 244.912C274.879 245.597 274.996 246.423 274.848 247.211C274.681 247.986 274.267 248.65 273.695 249.062C273.123 249.474 272.439 249.6 271.79 249.412Z" fill="#407BFF"/>
<path d="M230.41 257.317L173.211 241.212C172.563 241.015 172.005 240.52 171.66 239.835C171.314 239.149 171.207 238.327 171.363 237.548C171.438 237.159 171.577 236.792 171.771 236.467C171.965 236.142 172.21 235.867 172.493 235.656C172.776 235.445 173.091 235.304 173.42 235.239C173.749 235.175 174.085 235.188 174.41 235.28L231.619 251.385C231.944 251.476 232.251 251.644 232.522 251.878C232.793 252.111 233.023 252.407 233.199 252.747C233.375 253.087 233.493 253.466 233.546 253.86C233.6 254.255 233.588 254.659 233.512 255.049C233.436 255.444 233.295 255.817 233.097 256.146C232.899 256.475 232.648 256.753 232.359 256.964C232.07 257.176 231.748 257.316 231.414 257.376C231.079 257.437 230.738 257.416 230.41 257.317Z" fill="#407BFF"/>
<path d="M298.976 173.977L267.045 164.999L274.538 126.736L298.976 173.977Z" fill="#407BFF"/>
<path d="M320.421 275.566L293.877 484.808H299.119L302.624 457.121H370.25L366.744 484.808H371.986L398.53 275.566H320.421ZM370.955 451.578H303.33L307.104 421.892H374.73L370.955 451.578ZM375.435 416.349H307.799L311.573 386.663H379.199L375.435 416.349ZM379.915 381.12H312.267L316.042 351.433H383.667L379.915 381.12ZM384.395 345.891H316.747L320.511 316.191H388.136L384.395 345.891ZM321.216 310.648L324.979 280.962H392.605L388.842 310.648H321.216Z" fill="#263238"/>
<path d="M409.453 275.566H331.344L357.888 484.808H363.129L359.613 457.121H427.238L430.755 484.808H435.997L409.453 275.566ZM337.269 280.935H404.894L408.657 310.621H341.032L337.269 280.935ZM341.749 316.164H409.363L413.126 345.864H345.501L341.749 316.164ZM346.229 351.407H413.854L417.595 381.147H349.969L346.229 351.407ZM350.709 386.636H418.334L422.097 416.322H354.438L350.709 386.636ZM358.941 451.552L355.177 421.865H422.803L426.566 451.552H358.941Z" fill="#263238"/>
<path opacity="0.4" d="M409.453 275.566H331.344L357.888 484.808H363.129L359.613 457.121H427.238L430.755 484.808H435.997L409.453 275.566ZM337.269 280.935H404.894L408.657 310.621H341.032L337.269 280.935ZM341.749 316.164H409.363L413.126 345.864H345.501L341.749 316.164ZM346.229 351.407H413.854L417.595 381.147H349.969L346.229 351.407ZM350.709 386.636H418.334L422.097 416.322H354.438L350.709 386.636ZM358.941 451.552L355.177 421.865H422.803L426.566 451.552H358.941Z" fill="white"/>
<path d="M375.983 71.9082C378.223 73.975 380.194 76.0418 382.233 78.1891C384.271 80.3364 386.22 82.5374 388.146 84.8055C392.055 89.3969 395.707 94.2927 399.078 99.4608L400.332 101.487L400.959 102.494C401.314 103.087 401.632 103.711 401.911 104.359C402.813 106.528 403.338 108.893 403.457 111.311C403.619 115.039 403.298 118.774 402.505 122.383C401.136 128.861 399.049 135.09 396.3 140.904L390.577 138.112C391.721 132.321 392.533 126.442 393.007 120.518C393.22 117.964 393.152 115.387 392.806 112.855C392.705 112.132 392.48 111.441 392.145 110.828C392.089 110.761 392.066 110.761 392.033 110.721L391.428 109.902L390.218 108.251C386.858 103.903 383.319 99.6621 379.578 95.5823C375.838 91.5024 371.962 87.3956 368.199 83.5842L375.983 71.9082Z" fill="#7F3E3B"/>
<path d="M392.852 135.348L386.412 140.716L394.252 146.406C394.252 146.406 398.295 141.776 396.559 137.482L392.852 135.348Z" fill="#7F3E3B"/>
<path d="M383.209 149.533L389.145 153.519L394.297 146.339L386.412 140.662L383.209 149.533Z" fill="#7F3E3B"/>
<path d="M332.141 43.8592C332.32 44.7315 332.085 45.5502 331.615 45.6978C331.144 45.8455 330.607 45.2549 330.416 44.3558C330.226 43.4566 330.472 42.6648 330.943 42.5171C331.413 42.3695 331.951 42.9466 332.141 43.8592Z" fill="#263238"/>
<path d="M332.152 45.5371C331.857 48.454 331.227 51.3082 330.281 54.019C330.867 54.2897 331.495 54.4048 332.121 54.3561C332.748 54.3074 333.358 54.0963 333.91 53.7371L332.152 45.5371Z" fill="#630F0F"/>
<path d="M333.674 38.2632C333.586 38.297 333.492 38.297 333.405 38.2632C332.897 38.0047 332.345 37.8931 331.795 37.9374C331.244 37.9817 330.71 38.1806 330.235 38.5181C330.142 38.5792 330.033 38.5971 329.929 38.5685C329.825 38.5398 329.733 38.4666 329.671 38.3626C329.609 38.2586 329.581 38.1311 329.592 38.004C329.603 37.8769 329.653 37.759 329.731 37.6726C330.323 37.2276 330.995 36.9598 331.691 36.8921C332.387 36.8243 333.086 36.9586 333.73 37.2834C333.815 37.3246 333.888 37.3972 333.937 37.4908C333.986 37.5844 334.009 37.6941 334.003 37.8044C333.996 37.9146 333.961 38.0196 333.902 38.1045C333.843 38.1893 333.763 38.2495 333.674 38.2766V38.2632Z" fill="#263238"/>
<path d="M355.094 46.3027C356.135 54.4893 357.603 67.0377 363.606 70.2049C363.606 70.2049 364.188 78.7136 352.327 83.8269C339.291 89.4502 343.771 78.7673 343.771 78.7673C350.278 73.6541 348.195 67.4134 345.171 62.0049L355.094 46.3027Z" fill="#7F3E3B"/>
<path d="M364.732 68.447C364.732 65.8836 362.548 61.4414 360.341 61.7367C357.911 62.0722 348.637 66.1655 345.255 69.9098C341.872 73.6542 344.269 80.2169 344.269 80.2169L364.732 68.447Z" fill="#263238"/>
<path d="M436.241 378.731C435.659 379.456 434.998 380.073 434.483 379.979C434.259 379.979 433.968 379.792 433.822 379.201C433.783 379.051 433.772 378.893 433.789 378.738C433.807 378.583 433.852 378.434 433.923 378.302C434.55 377.027 437.283 376.369 437.361 376.342C437.399 376.334 437.438 376.338 437.473 376.354C437.509 376.371 437.54 376.399 437.563 376.436C437.581 376.475 437.591 376.519 437.591 376.564C437.591 376.609 437.581 376.653 437.563 376.691C437.182 377.424 436.739 378.108 436.241 378.731ZM434.404 378.315C434.343 378.382 434.29 378.459 434.248 378.543C434.209 378.621 434.183 378.708 434.174 378.798C434.164 378.888 434.17 378.98 434.192 379.067C434.304 379.483 434.472 379.51 434.528 379.523C435.099 379.604 436.275 378.181 436.98 376.933C436.046 377.155 435.165 377.627 434.404 378.315Z" fill="#407BFF"/>
<path d="M437.542 376.731C437.52 376.761 437.494 376.784 437.463 376.798C436.534 377.147 434.103 377.053 433.554 376.141C433.476 375.996 433.439 375.823 433.452 375.65C433.464 375.478 433.524 375.315 433.622 375.188C433.711 375.043 433.825 374.922 433.956 374.834C434.088 374.746 434.233 374.693 434.383 374.678C435.604 374.503 437.452 376.315 437.53 376.396C437.556 376.421 437.576 376.455 437.588 376.492C437.6 376.53 437.603 376.571 437.598 376.61C437.589 376.656 437.569 376.698 437.542 376.731ZM433.991 375.389C433.991 375.389 433.991 375.389 433.935 375.47C433.778 375.711 433.846 375.819 433.879 375.872C434.193 376.409 435.906 376.651 436.959 376.449C436.249 375.704 435.366 375.235 434.428 375.107C434.343 375.115 434.26 375.145 434.185 375.193C434.11 375.242 434.044 375.308 433.991 375.389Z" fill="#407BFF"/>
<path d="M368.479 406.782C367.427 406.782 366.407 406.607 366.06 406.043C365.974 405.893 365.928 405.716 365.928 405.534C365.928 405.351 365.974 405.174 366.06 405.024C366.126 404.887 366.215 404.767 366.321 404.673C366.427 404.578 366.548 404.51 366.676 404.473C368.043 404.03 370.921 405.99 371.044 406.084C371.077 406.106 371.104 406.139 371.12 406.18C371.136 406.221 371.141 406.267 371.134 406.312C371.129 406.361 371.112 406.408 371.084 406.444C371.055 406.48 371.018 406.505 370.977 406.513C370.152 406.687 369.317 406.777 368.479 406.782ZM367.18 404.876C367.054 404.854 366.926 404.854 366.799 404.876C366.721 404.894 366.646 404.933 366.58 404.988C366.515 405.044 366.46 405.115 366.419 405.198C366.284 405.493 366.329 405.627 366.419 405.721C366.799 406.352 368.871 406.366 370.406 406.111C369.411 405.455 368.319 405.036 367.191 404.876H367.18Z" fill="#407BFF"/>
<path d="M370.981 406.514C370.956 406.525 370.928 406.525 370.903 406.514C369.906 405.991 367.946 403.83 368.092 402.743C368.092 402.474 368.282 402.152 368.82 402.085C369.019 402.056 369.222 402.077 369.415 402.146C369.608 402.215 369.786 402.332 369.94 402.488C370.693 403.558 371.141 404.889 371.216 406.286C371.221 406.327 371.216 406.368 371.202 406.406C371.188 406.444 371.166 406.477 371.138 406.501C371.114 406.516 371.088 406.525 371.061 406.528C371.034 406.53 371.007 406.525 370.981 406.514ZM368.976 402.488H368.853C368.506 402.488 368.484 402.689 368.472 402.743C368.383 403.414 369.727 405.091 370.712 405.816C370.616 404.689 370.224 403.627 369.592 402.783C369.417 402.616 369.201 402.521 368.976 402.515V402.488Z" fill="#407BFF"/>
<path d="M380.026 406.285H371.794L370.977 383.443H379.209L380.026 406.285Z" fill="#7F3E3B"/>
<path d="M445.965 372.84L438.349 376.155L428.672 355.702L436.288 352.387L445.965 372.84Z" fill="#7F3E3B"/>
<path d="M437.15 375.255L443.579 367.283C443.693 367.146 443.842 367.059 444.002 367.034C444.162 367.01 444.325 367.05 444.464 367.149L450.848 371.846C451.002 371.961 451.133 372.117 451.23 372.302C451.327 372.486 451.388 372.695 451.408 372.912C451.428 373.128 451.408 373.348 451.348 373.554C451.288 373.759 451.189 373.946 451.061 374.1C448.821 376.785 447.555 378.033 444.733 381.535C442.985 383.683 437.811 390.93 435.414 393.963C433.017 396.996 430.24 394.473 431.001 392.997C434.417 386.38 436.478 380.086 436.601 376.825C436.616 376.238 436.812 375.679 437.15 375.255Z" fill="#263238"/>
<path d="M371.839 405.145H380.799C380.963 405.143 381.122 405.209 381.251 405.331C381.379 405.453 381.469 405.624 381.504 405.816L383.128 414.579C383.17 414.791 383.17 415.011 383.129 415.223C383.088 415.435 383.007 415.632 382.892 415.801C382.778 415.969 382.632 416.104 382.467 416.195C382.303 416.285 382.123 416.33 381.941 416.324C378.704 416.324 374.023 416.042 369.946 416.042C365.186 416.042 363.103 416.351 357.514 416.351C354.154 416.351 353.202 412.258 354.613 411.882C361.053 410.191 364.268 410.016 369.834 405.91C370.43 405.437 371.124 405.172 371.839 405.145Z" fill="#263238"/>
<path d="M349.493 91.4902C348.228 95.3151 346.884 98.8716 345.495 102.522C344.106 106.172 342.628 109.715 341.105 113.259C338.018 120.548 334.48 127.551 330.521 134.208C329.479 135.899 328.359 137.577 327.161 139.241C326.545 140.086 325.917 140.865 325.178 141.737C324.323 142.705 323.388 143.568 322.389 144.314C320.744 145.52 319.012 146.549 317.215 147.387C315.535 148.206 313.855 148.877 312.209 149.467C305.719 151.723 299.061 153.206 292.329 153.896L291.074 146.649C297.066 144.059 303.159 141.361 308.77 138.355C310.159 137.577 311.525 136.785 312.802 135.966C313.983 135.232 315.107 134.374 316.162 133.403C316.526 133.075 316.86 132.701 317.159 132.289C317.551 131.739 318.021 131.095 318.447 130.437C319.309 129.095 320.161 127.672 320.978 126.156C322.647 123.176 324.193 119.942 325.682 116.654C327.172 113.366 328.628 109.944 330.017 106.588C332.805 99.7842 335.505 92.7383 337.991 85.8535L349.493 91.4902Z" fill="#7F3E3B"/>
<path d="M368.279 66.0164C380.084 64.916 390.679 85.8924 390.679 85.8924L382.2 102.4C376.1 99.5103 370.428 95.4637 365.4 90.4152C357.37 82.0541 360.215 66.7814 368.279 66.0164Z" fill="#407BFF"/>
<path opacity="0.3" d="M367.541 83.6914L379.962 103.728L379.402 104.547C379.402 104.547 375.123 100.521 370.173 94.6963L367.541 83.6914Z" fill="black"/>
<path d="M335.54 81.6511C334.879 88.5627 344.5 119.135 346.74 155.398L390.543 150.231C390.23 143.279 387.027 113.995 381.225 80.9398C379.623 71.8137 373.721 64.835 366.094 66.6199H365.881C359.755 68.0529 353.705 69.9125 347.759 72.1895C344.396 73.657 341.118 75.3921 337.948 77.3833C337.285 77.8024 336.718 78.4112 336.298 79.1557C335.878 79.9001 335.618 80.7572 335.54 81.6511Z" fill="#407BFF"/>
<path opacity="0.3" d="M339.98 107.044C340.72 110.735 341.492 114.734 342.22 118.988C348.884 117.096 347.596 99.3942 347.731 99.166L339.98 107.044Z" fill="black"/>
<path d="M349.809 85.0746C353.169 98.8845 340.737 117.284 340.737 117.284L328.215 107.621C328.215 107.621 328.125 94.9657 332.124 85.0881C337.197 72.58 347.412 75.2239 349.809 85.0746Z" fill="#407BFF"/>
<path d="M291.199 145.334L286.17 144.516L286.248 157.104C286.248 157.104 293.024 157.936 296.788 152.34L296.048 149.978C295.665 148.752 295.011 147.673 294.157 146.855C293.304 146.038 292.281 145.512 291.199 145.334Z" fill="#7F3E3B"/>
<path d="M277.582 147.428L280.796 157.681L286.296 157.104L286.217 144.516L277.582 147.428Z" fill="#7F3E3B"/>
<path opacity="0.2" d="M370.977 383.455L371.436 396.285H379.668L379.209 383.455H370.977Z" fill="black"/>
<path opacity="0.2" d="M436.288 352.387L428.672 355.702L434.025 367.029L441.283 362.922L436.288 352.387Z" fill="black"/>
<path d="M355.894 34.5995C357.63 45.43 359.108 51.6572 355.782 58.5151C350.787 68.8222 338.758 67.3057 334.368 57.3207C330.403 48.3154 328.23 32.1301 336.003 25.2185C337.716 23.6741 339.731 22.6817 341.855 22.336C343.98 21.9902 346.143 22.3027 348.138 23.2436C350.133 24.1844 351.893 25.7222 353.251 27.7103C354.609 29.6983 355.519 32.0702 355.894 34.5995Z" fill="#7F3E3B"/>
<path d="M340.675 41.833C335.164 45.1345 335.074 34.5858 335.511 32.3446C333.439 34.7334 330.639 37.1357 325.555 34.5053C319.305 31.2709 321.075 22.8159 325.555 22.9233C325.555 22.9233 322.195 15.2735 329.542 14.4682C332.565 14.3476 335.581 14.9029 338.435 16.1056C338.435 16.1056 341.156 7.5566 347.786 11.7036C351.292 13.8912 354.092 20.3599 354.092 20.3599C354.092 20.3599 368.372 22.8964 360.622 31.8346C362.38 36.4245 361.451 51.3617 356.915 57.7499C354.932 60.5414 337.964 59.7227 340.675 41.833Z" fill="#263238"/>
<path d="M351.617 24.7213C351.617 24.7213 354.204 20.4401 354.417 10.5625C360.454 18.427 351.617 24.7213 351.617 24.7213Z" fill="#263238"/>
<path d="M343.346 41.2295C343.492 43.9667 342.877 46.6847 341.599 48.9598C339.919 51.9526 337.634 50.6642 336.895 47.5104C336.223 44.6786 336.29 39.6995 338.564 37.8207C340.837 35.9418 343.111 37.928 343.346 41.2295Z" fill="#7F3E3B"/>
<path d="M362.297 153.574C362.297 153.574 377.753 227.387 385.167 254.94C393.276 285.056 428.466 364.01 428.466 364.01L442.276 356.803C442.276 356.803 415.642 284.922 409.953 254.806C403.782 222.167 390.566 150.205 390.566 150.205L362.297 153.574Z" fill="#263238"/>
<path d="M424.383 358.561C424.327 358.561 428.863 366.331 428.863 366.331L444.375 358.118L441.239 350.428L424.383 358.561Z" fill="#407BFF"/>
<path opacity="0.3" d="M370.377 179.594C381.331 180.842 384.131 228.996 384.87 253.851C380.334 236.753 373.043 203.698 367.98 180.225C368.697 179.697 369.542 179.474 370.377 179.594Z" fill="black"/>
<path d="M346.764 155.397C346.764 155.397 348.544 231.25 351.893 261.071C355.376 292.086 368.256 391.252 368.256 391.252H382.2C382.2 391.252 378.975 291.107 377.082 260.467C375.021 227.063 375.559 151.975 375.559 151.975L346.764 155.397Z" fill="#263238"/>
<path d="M365.479 383.455C365.423 383.455 366.599 393.561 366.599 393.561L383.544 392.863L383.701 383.469L365.479 383.455Z" fill="#407BFF"/>
</svg>
