<svg width="23" height="27" viewBox="0 0 23 27" fill="none" xmlns="http://www.w3.org/2000/svg">
<path d="M18.8646 25.575C17.4355 26.9604 15.875 26.7417 14.373 26.0854C12.7834 25.4146 11.325 25.3854 9.64795 26.0854C7.54795 26.9896 6.43962 26.7271 5.18545 25.575C-1.93121 18.2396 -0.881214 7.06875 7.19795 6.66042C9.1667 6.7625 10.5375 7.73958 11.6896 7.82708C13.4105 7.47708 15.0584 6.47083 16.8959 6.60208C19.098 6.77708 20.7605 7.65208 21.8542 9.22708C17.3042 11.9542 18.3834 17.9479 22.5542 19.625C21.723 21.8125 20.6438 23.9854 18.85 25.5896L18.8646 25.575ZM11.5438 6.57292C11.325 3.32083 13.9646 0.6375 16.998 0.375C17.4209 4.1375 13.5855 6.9375 11.5438 6.57292Z" fill="black"/>
</svg>
