<svg width="24" height="30" viewBox="0 0 24 30" fill="none" xmlns="http://www.w3.org/2000/svg">
<path d="M0 25.5V22.5H3V12C3 9.925 3.625 8.0815 4.875 6.4695C6.125 4.8575 7.75 3.801 9.75 3.3V2.25C9.75 1.625 9.969 1.094 10.407 0.657003C10.845 0.220003 11.376 0.00100341 12 3.40909e-06C12.624 -0.000996591 13.1555 0.218003 13.5945 0.657003C14.0335 1.096 14.252 1.627 14.25 2.25V3.3C16.25 3.8 17.875 4.8565 19.125 6.4695C20.375 8.0825 21 9.926 21 12V22.5H24V25.5H0ZM12 30C11.175 30 10.469 29.7065 9.882 29.1195C9.295 28.5325 9.001 27.826 9 27H15C15 27.825 14.7065 28.5315 14.1195 29.1195C13.5325 29.7075 12.826 30.001 12 30ZM6 22.5H18V12C18 10.35 17.4125 8.9375 16.2375 7.7625C15.0625 6.5875 13.65 6 12 6C10.35 6 8.9375 6.5875 7.7625 7.7625C6.5875 8.9375 6 10.35 6 12V22.5Z" fill="#0D99FF"/>
</svg>
