<svg width="86" height="86" viewBox="0 0 86 86" fill="none" xmlns="http://www.w3.org/2000/svg">
<path d="M18.0353 42.9997C18.0353 42.0052 18.4304 41.0514 19.1337 40.3481C19.8369 39.6448 20.7907 39.2497 21.7853 39.2497H39.2503V21.7847C39.2503 20.7902 39.6454 19.8364 40.3487 19.1331C41.0519 18.4298 42.0057 18.0347 43.0003 18.0347C43.9949 18.0347 44.9487 18.4298 45.652 19.1331C46.3552 19.8364 46.7503 20.7902 46.7503 21.7847V39.2497H64.2153C65.2099 39.2497 66.1637 39.6448 66.867 40.3481C67.5702 41.0514 67.9653 42.0052 67.9653 42.9997C67.9653 43.9943 67.5702 44.9481 66.867 45.6514C66.1637 46.3547 65.2099 46.7497 64.2153 46.7497H46.7503V64.2147C46.7503 65.2093 46.3552 66.1631 45.652 66.8664C44.9487 67.5697 43.9949 67.9647 43.0003 67.9647C42.0057 67.9647 41.0519 67.5697 40.3487 66.8664C39.6454 66.1631 39.2503 65.2093 39.2503 64.2147V46.7497H21.7853C20.7907 46.7497 19.8369 46.3547 19.1337 45.6514C18.4304 44.9481 18.0353 43.9943 18.0353 42.9997Z" fill="#0D99FF"/>
<path fill-rule="evenodd" clip-rule="evenodd" d="M19.5853 1.84475C35.1476 0.119458 50.853 0.119458 66.4153 1.84475C75.5503 2.86475 82.9253 10.0597 83.9953 19.2447C85.8453 35.0297 85.8453 50.9748 83.9953 66.7598C82.9203 75.9448 75.5453 83.1348 66.4153 84.1598C50.853 85.885 35.1476 85.885 19.5853 84.1598C10.4503 83.1348 3.07531 75.9448 2.00531 66.7598C0.163595 50.975 0.163595 35.0295 2.00531 19.2447C3.07531 10.0597 10.4553 2.86475 19.5853 1.84475ZM65.5853 9.29475C50.5746 7.63088 35.426 7.63088 20.4153 9.29475C17.6365 9.60303 15.0428 10.8391 13.0532 12.8033C11.0636 14.7675 9.79427 17.3452 9.45031 20.1197C7.67196 35.3246 7.67196 50.6849 9.45031 65.8897C9.79531 68.6634 11.0651 71.2399 13.0546 73.2031C15.0441 75.1663 17.6373 76.4017 20.4153 76.7098C35.3003 78.3698 50.7003 78.3698 65.5853 76.7098C68.3625 76.4006 70.9544 75.1648 72.943 73.2017C74.9315 71.2386 76.2005 68.6627 76.5453 65.8897C78.3237 50.6849 78.3237 35.3246 76.5453 20.1197C76.1995 17.3477 74.93 14.773 72.9415 12.8109C70.9531 10.8487 68.3617 9.61363 65.5853 9.30475" fill="#0D99FF"/>
</svg>
