<svg width="29" height="28" viewBox="0 0 29 28" fill="none" xmlns="http://www.w3.org/2000/svg">
<path d="M15.9021 13.9188V8.81875C15.9021 8.41736 15.7661 8.08114 15.4941 7.81008C15.2221 7.53903 14.8859 7.40303 14.4854 7.40208C14.085 7.40114 13.7488 7.53714 13.4768 7.81008C13.2048 8.08303 13.0688 8.41925 13.0688 8.81875V14.45C13.0688 14.6389 13.1042 14.8221 13.175 14.9997C13.2458 15.1772 13.3521 15.3364 13.4938 15.4771L17.4604 19.4437C17.7201 19.7035 18.0507 19.8333 18.4521 19.8333C18.8535 19.8333 19.184 19.7035 19.4437 19.4437C19.7035 19.184 19.8333 18.8535 19.8333 18.4521C19.8333 18.0507 19.7035 17.7201 19.4437 17.4604L15.9021 13.9188ZM14.4854 27.2354C12.7146 27.2354 11.0561 26.8992 9.51008 26.2267C7.96403 25.5543 6.61819 24.6453 5.47258 23.4997C4.32697 22.3541 3.41794 21.0082 2.7455 19.4622C2.07306 17.9161 1.73636 16.2572 1.73542 14.4854C1.73447 12.7136 2.07117 11.0552 2.7455 9.51008C3.41983 7.96497 4.32839 6.61914 5.47117 5.47258C6.61394 4.32603 7.95978 3.417 9.50867 2.7455C11.0576 2.074 12.7165 1.73731 14.4854 1.73542C16.2544 1.73353 17.9133 2.07022 19.4622 2.7455C21.0111 3.42078 22.3569 4.32981 23.4997 5.47258C24.6424 6.61536 25.5515 7.96119 26.2267 9.51008C26.902 11.059 27.2382 12.7174 27.2354 14.4854C27.2326 16.2534 26.8964 17.9123 26.2267 19.4622C25.5571 21.012 24.6481 22.3578 23.4997 23.4997C22.3512 24.6415 21.0054 25.5505 19.4622 26.2267C17.9189 26.903 16.26 27.2392 14.4854 27.2354ZM0.389583 6.41042C0.129861 6.15069 0 5.82014 0 5.41875C0 5.01736 0.129861 4.68681 0.389583 4.42708L4.42708 0.389583C4.68681 0.129861 5.01736 0 5.41875 0C5.82014 0 6.15069 0.129861 6.41042 0.389583C6.67014 0.649305 6.8 0.979861 6.8 1.38125C6.8 1.78264 6.67014 2.11319 6.41042 2.37292L2.37292 6.41042C2.11319 6.67014 1.78264 6.8 1.38125 6.8C0.979861 6.8 0.649306 6.67014 0.389583 6.41042ZM28.5813 6.41042C28.3215 6.67014 27.991 6.8 27.5896 6.8C27.1882 6.8 26.8576 6.67014 26.5979 6.41042L22.5604 2.37292C22.3007 2.11319 22.1708 1.78264 22.1708 1.38125C22.1708 0.979861 22.3007 0.649305 22.5604 0.389583C22.8201 0.129861 23.1507 0 23.5521 0C23.9535 0 24.284 0.129861 24.5438 0.389583L28.5813 4.42708C28.841 4.68681 28.9708 5.01736 28.9708 5.41875C28.9708 5.82014 28.841 6.15069 28.5813 6.41042Z" fill="white"/>
</svg>
