<svg width="23" height="29" viewBox="0 0 23 29" fill="none" xmlns="http://www.w3.org/2000/svg">
<path d="M4.25 0H18.4167C19.5438 0 20.6248 0.447767 21.4219 1.2448C22.2189 2.04183 22.6667 3.12283 22.6667 4.25V24.0833C22.6667 25.2105 22.2189 26.2915 21.4219 27.0885C20.6248 27.8856 19.5438 28.3333 18.4167 28.3333H4.25C3.12283 28.3333 2.04183 27.8856 1.2448 27.0885C0.447767 26.2915 0 25.2105 0 24.0833L0 4.25C0 3.12283 0.447767 2.04183 1.2448 1.2448C2.04183 0.447767 3.12283 0 4.25 0ZM5.66667 9.91667C5.29094 9.91667 4.93061 10.0659 4.66493 10.3316C4.39926 10.5973 4.25 10.9576 4.25 11.3333C4.25 11.7091 4.39926 12.0694 4.66493 12.3351C4.93061 12.6007 5.29094 12.75 5.66667 12.75H17C17.3757 12.75 17.7361 12.6007 18.0017 12.3351C18.2674 12.0694 18.4167 11.7091 18.4167 11.3333C18.4167 10.9576 18.2674 10.5973 18.0017 10.3316C17.7361 10.0659 17.3757 9.91667 17 9.91667H5.66667ZM5.66667 21.25C5.29094 21.25 4.93061 21.3993 4.66493 21.6649C4.39926 21.9306 4.25 22.2909 4.25 22.6667C4.25 23.0424 4.39926 23.4027 4.66493 23.6684C4.93061 23.9341 5.29094 24.0833 5.66667 24.0833H12.75C13.1257 24.0833 13.4861 23.9341 13.7517 23.6684C14.0174 23.4027 14.1667 23.0424 14.1667 22.6667C14.1667 22.2909 14.0174 21.9306 13.7517 21.6649C13.4861 21.3993 13.1257 21.25 12.75 21.25H5.66667ZM5.66667 4.25C5.29094 4.25 4.93061 4.39926 4.66493 4.66493C4.39926 4.93061 4.25 5.29094 4.25 5.66667C4.25 6.04239 4.39926 6.40272 4.66493 6.6684C4.93061 6.93408 5.29094 7.08333 5.66667 7.08333H17C17.3757 7.08333 17.7361 6.93408 18.0017 6.6684C18.2674 6.40272 18.4167 6.04239 18.4167 5.66667C18.4167 5.29094 18.2674 4.93061 18.0017 4.66493C17.7361 4.39926 17.3757 4.25 17 4.25H5.66667ZM5.66667 15.5833C5.29094 15.5833 4.93061 15.7326 4.66493 15.9983C4.39926 16.2639 4.25 16.6243 4.25 17C4.25 17.3757 4.39926 17.7361 4.66493 18.0017C4.93061 18.2674 5.29094 18.4167 5.66667 18.4167H17C17.3757 18.4167 17.7361 18.2674 18.0017 18.0017C18.2674 17.7361 18.4167 17.3757 18.4167 17C18.4167 16.6243 18.2674 16.2639 18.0017 15.9983C17.7361 15.7326 17.3757 15.5833 17 15.5833H5.66667Z" fill="white"/>
</svg>
