<svg width="37" height="20" viewBox="0 0 37 20" fill="none" xmlns="http://www.w3.org/2000/svg">
<path d="M33.7518 0.428329L18.133 15.6533L2.51427 0.428329C2.23523 0.155736 1.86061 0.00312477 1.47052 0.00312477C1.08043 0.00312477 0.705814 0.155736 0.42677 0.428329C0.291652 0.560718 0.184308 0.718735 0.111027 0.893129C0.0377458 1.06752 0 1.25479 0 1.44395C0 1.63312 0.0377458 1.82038 0.111027 1.99478C0.184308 2.16917 0.291652 2.32719 0.42677 2.45958L17.0424 18.6596C17.3342 18.944 17.7255 19.1032 18.133 19.1032C18.5405 19.1032 18.9319 18.944 19.2236 18.6596L35.8393 2.4627C35.9753 2.33022 36.0835 2.17181 36.1573 1.99684C36.2312 1.82186 36.2692 1.63387 36.2692 1.44395C36.2692 1.25404 36.2312 1.06604 36.1573 0.891069C36.0835 0.716096 35.9753 0.557691 35.8393 0.425203C35.5602 0.15261 35.1856 0 34.7955 0C34.4054 0 34.0308 0.15261 33.7518 0.425203V0.428329Z" fill="black"/>
</svg>
