<svg width="43" height="43" viewBox="0 0 43 43" fill="none" xmlns="http://www.w3.org/2000/svg">
<path d="M6.75 0H36C37.7902 0 39.5071 0.711159 40.773 1.97703C42.0388 3.2429 42.75 4.95979 42.75 6.75V36C42.75 37.7902 42.0388 39.5071 40.773 40.773C39.5071 42.0388 37.7902 42.75 36 42.75H6.75C4.95979 42.75 3.2429 42.0388 1.97703 40.773C0.711159 39.5071 0 37.7902 0 36V6.75C0 4.95979 0.711159 3.2429 1.97703 1.97703C3.2429 0.711159 4.95979 0 6.75 0ZM6.75 2.25C5.55653 2.25 4.41193 2.72411 3.56802 3.56802C2.72411 4.41193 2.25 5.55653 2.25 6.75V13.5H13.5V2.25H6.75ZM2.25 36C2.25 37.1935 2.72411 38.3381 3.56802 39.182C4.41193 40.0259 5.55653 40.5 6.75 40.5H13.5V29.25H2.25V36ZM13.5 15.75H2.25V27H13.5V15.75ZM36 40.5C37.1935 40.5 38.3381 40.0259 39.182 39.182C40.0259 38.3381 40.5 37.1935 40.5 36V29.25H29.25V40.5H36ZM40.5 15.75H29.25V27H40.5V15.75ZM40.5 6.75C40.5 5.55653 40.0259 4.41193 39.182 3.56802C38.3381 2.72411 37.1935 2.25 36 2.25H29.25V13.5H40.5V6.75ZM15.75 2.25V13.5H27V2.25H15.75ZM15.75 40.5H27V29.25H15.75V40.5ZM27 15.75H15.75V27H27V15.75Z" fill="black"/>
</svg>
