<svg width="37" height="29" viewBox="0 0 37 29" fill="none" xmlns="http://www.w3.org/2000/svg">
<path d="M10.6667 4.33333V1H37V4.33333H10.6667ZM10.6667 16V12.6667H37V16H10.6667ZM10.6667 27.6667V24.3333H37V27.6667H10.6667ZM2.66668 5.33333C1.91112 5.33333 1.27823 5.07733 0.768009 4.56533C0.257787 4.05333 0.00178697 3.42044 9.19539e-06 2.66667C-0.00176858 1.91289 0.254232 1.28 0.768009 0.768C1.28179 0.256 1.91468 0 2.66668 0C3.41868 0 4.05245 0.256 4.56801 0.768C5.08356 1.28 5.33868 1.91289 5.33334 2.66667C5.32801 3.42044 5.07201 4.05422 4.56534 4.568C4.05868 5.08178 3.42579 5.33689 2.66668 5.33333ZM2.66668 17C1.91112 17 1.27823 16.744 0.768009 16.232C0.257787 15.72 0.00178697 15.0871 9.19539e-06 14.3333C-0.00176858 13.5796 0.254232 12.9467 0.768009 12.4347C1.28179 11.9227 1.91468 11.6667 2.66668 11.6667C3.41868 11.6667 4.05245 11.9227 4.56801 12.4347C5.08356 12.9467 5.33868 13.5796 5.33334 14.3333C5.32801 15.0871 5.07201 15.7209 4.56534 16.2347C4.05868 16.7484 3.42579 17.0036 2.66668 17ZM2.66668 28.6667C1.91112 28.6667 1.27823 28.4107 0.768009 27.8987C0.257787 27.3867 0.00178697 26.7538 9.19539e-06 26C-0.00176858 25.2462 0.254232 24.6133 0.768009 24.1013C1.28179 23.5893 1.91468 23.3333 2.66668 23.3333C3.41868 23.3333 4.05245 23.5893 4.56801 24.1013C5.08356 24.6133 5.33868 25.2462 5.33334 26C5.32801 26.7538 5.07201 27.3876 4.56534 27.9013C4.05868 28.4151 3.42579 28.6702 2.66668 28.6667Z" fill="#999999"/>
</svg>
