<svg width="25" height="34" viewBox="0 0 25 34" fill="none" xmlns="http://www.w3.org/2000/svg">
<path fill-rule="evenodd" clip-rule="evenodd" d="M0 3.4C0 2.49826 0.358213 1.63346 0.995837 0.995837C1.63346 0.358213 2.49826 0 3.4 0L21.5333 0C22.4351 0 23.2999 0.358213 23.9375 0.995837C24.5751 1.63346 24.9333 2.49826 24.9333 3.4V30.6C24.9333 31.5017 24.5751 32.3665 23.9375 33.0042C23.2999 33.6418 22.4351 34 21.5333 34H3.4C2.49826 34 1.63346 33.6418 0.995837 33.0042C0.358213 32.3665 0 31.5017 0 30.6V3.4ZM9.06667 27.2H15.8667V24.9333H9.06667V27.2Z" fill="white"/>
</svg>
