<svg width="7" height="28" viewBox="0 0 7 28" fill="none" xmlns="http://www.w3.org/2000/svg">
<path d="M6.226 3.112C6.22613 3.5208 6.14574 3.92563 5.98942 4.30337C5.8331 4.68111 5.60391 5.02435 5.31493 5.31352C5.02595 5.60268 4.68285 5.83209 4.30522 5.98865C3.92758 6.14522 3.52281 6.22587 3.114 6.226C2.7052 6.22613 2.30037 6.14574 1.92263 5.98942C1.54489 5.8331 1.20165 5.60391 0.912483 5.31493C0.623322 5.02595 0.393911 4.68285 0.237347 4.30522C0.0807826 3.92758 0.000131474 3.52281 1.60828e-07 3.114C-0.000265038 2.28838 0.327457 1.49647 0.91107 0.912484C1.49468 0.328496 2.28638 0.000265377 3.112 1.6085e-07C3.93762 -0.000265056 4.72953 0.327456 5.31352 0.91107C5.8975 1.49468 6.22573 2.28638 6.226 3.112Z" fill="black"/>
<path d="M3.114 16.908C4.83271 16.908 6.226 15.5147 6.226 13.796C6.226 12.0773 4.83271 10.684 3.114 10.684C1.39529 10.684 0.00200081 12.0773 0.00200081 13.796C0.00200081 15.5147 1.39529 16.908 3.114 16.908Z" fill="black"/>
<path d="M3.114 27.594C4.83271 27.594 6.226 26.2007 6.226 24.482C6.226 22.7633 4.83271 21.37 3.114 21.37C1.39529 21.37 0.00200081 22.7633 0.00200081 24.482C0.00200081 26.2007 1.39529 27.594 3.114 27.594Z" fill="black"/>
</svg>
