<svg width="560" height="500" viewBox="0 0 560 500" fill="none" xmlns="http://www.w3.org/2000/svg">
<path d="M477.336 260.016C367.629 205.117 190.348 205.117 81.3678 260.016C-27.6122 314.916 -27.0535 403.927 82.641 458.826C192.336 513.726 369.642 513.726 478.635 458.826C587.628 403.927 587.044 314.961 477.336 260.016Z" fill="#F5F5F5"/>
<path d="M336.953 257.291L320.062 248.878C317.476 247.581 314.541 246.898 311.552 246.898C308.564 246.898 305.629 247.581 303.042 248.878L209.627 295.816L201.377 291.706L133.726 326.019L141.521 329.916L30.9043 385.288C30.0409 385.72 29.3239 386.342 28.8254 387.09C28.3269 387.838 28.0645 388.687 28.0645 389.551C28.0645 390.415 28.3269 391.264 28.8254 392.012C29.3239 392.76 30.0409 393.381 30.9043 393.813L47.9373 402.327C50.5271 403.622 53.4642 404.303 56.4538 404.303C59.4435 404.303 62.3806 403.622 64.9703 402.327L175.535 346.898L188.528 353.351C193.702 355.935 199.569 357.295 205.541 357.295C211.513 357.295 217.38 355.935 222.555 353.351L262.298 333.452C263.451 332.877 264.408 332.05 265.074 331.052C265.739 330.055 266.09 328.923 266.09 327.77C266.09 326.618 265.739 325.486 265.074 324.489C264.408 323.491 263.451 322.664 262.298 322.089L243.615 312.776L259.31 304.893L294.935 322.731C296.592 323.56 297.967 324.753 298.924 326.189C299.88 327.625 300.383 329.254 300.383 330.912C300.383 332.571 299.88 334.2 298.924 335.636C297.967 337.072 296.592 338.264 294.935 339.094L235.677 368.768C230.486 371.358 224.601 372.721 218.612 372.721C212.622 372.721 206.737 371.358 201.546 368.768C195.55 365.774 188.754 364.193 181.834 364.181C174.914 364.169 168.111 365.727 162.101 368.7L133.323 382.98C131.449 383.909 129.892 385.251 128.809 386.87C127.726 388.488 127.156 390.326 127.156 392.197C127.156 394.068 127.726 395.906 128.809 397.525C129.892 399.144 131.449 400.486 133.323 401.415L149.836 409.658L143.574 412.744C143.154 412.951 142.802 413.249 142.552 413.607C142.301 413.966 142.161 414.374 142.145 414.793V414.906C142.143 415.336 142.273 415.759 142.522 416.131C142.771 416.503 143.129 416.811 143.561 417.023L156.268 423.408L154.54 424.276C154.443 424.325 154.362 424.396 154.307 424.481C154.251 424.566 154.222 424.662 154.222 424.76C154.222 424.857 154.251 424.953 154.307 425.038C154.362 425.123 154.443 425.194 154.54 425.244L157.359 426.629C157.745 426.815 158.178 426.912 158.619 426.912C159.06 426.912 159.494 426.815 159.88 426.629L165.258 423.938L175.561 429.084C175.943 429.275 176.375 429.375 176.815 429.375C177.255 429.375 177.688 429.275 178.069 429.084L179.134 428.577C179.231 428.528 179.311 428.457 179.367 428.372C179.423 428.287 179.452 428.191 179.452 428.093C179.452 427.995 179.423 427.899 179.367 427.815C179.311 427.73 179.231 427.659 179.134 427.609L168.506 422.293L175.665 418.712L186.059 423.938C186.441 424.132 186.876 424.234 187.319 424.234C187.762 424.234 188.197 424.132 188.58 423.938L189.632 423.431C189.729 423.383 189.81 423.313 189.866 423.229C189.922 423.145 189.952 423.049 189.952 422.952C189.952 422.855 189.922 422.76 189.866 422.676C189.81 422.592 189.729 422.522 189.632 422.474L178.861 417.079L184.279 414.377L179.238 411.877L173.846 414.568L164.869 410.064L164.336 410.323L160.62 408.453C159.323 407.808 157.854 407.469 156.359 407.469C154.863 407.469 153.394 407.808 152.097 408.453L149.733 409.579L152.448 405.491L135.922 397.248C134.883 396.73 134.02 395.983 133.42 395.083C132.82 394.184 132.504 393.163 132.504 392.124C132.504 391.085 132.82 390.064 133.42 389.165C134.02 388.265 134.883 387.519 135.922 387L164.713 372.709C169.896 370.146 175.763 368.804 181.73 368.816C187.697 368.828 193.557 370.193 198.727 372.777C204.743 375.781 211.564 377.362 218.508 377.362C225.451 377.362 232.272 375.781 238.288 372.777L297.56 343.114C300.047 341.87 302.113 340.08 303.55 337.924C304.986 335.769 305.742 333.323 305.742 330.834C305.742 328.344 304.986 325.899 303.55 323.743C302.113 321.587 300.047 319.797 297.56 318.553L264.637 302.077L336.862 265.737C337.709 265.307 338.413 264.694 338.905 263.958C339.397 263.221 339.661 262.387 339.67 261.536C339.679 260.685 339.433 259.847 338.957 259.103C338.481 258.359 337.79 257.734 336.953 257.291Z" fill="#E6E6E6"/>
<path d="M442.152 362.316C420.26 351.358 384.908 351.358 363.159 362.316C341.41 373.273 341.539 391.021 363.419 401.967C385.298 412.913 420.663 412.925 442.412 401.967C464.161 391.01 464.032 373.262 442.152 362.316Z" fill="#E6E6E6"/>
<path d="M508.79 328.226C499.097 323.373 483.455 323.373 473.827 328.226C464.2 333.08 464.252 340.929 473.944 345.772C483.636 350.614 499.279 350.625 508.907 345.772C518.534 340.918 518.469 333.069 508.79 328.226Z" fill="#E6E6E6"/>
<path d="M441.762 58.5254L441.398 173.111L448.752 176.793L449.129 62.2079L441.762 58.5254Z" fill="#E0E0E0"/>
<path d="M449.127 62.209L448.75 176.794L455.142 173.573L455.493 65.396L449.127 62.209Z" fill="#F0F0F0"/>
<path opacity="0.2" d="M449.104 67.3544L449.13 62.2079L441.763 58.5254L441.75 63.6719L449.104 67.3544Z" fill="black"/>
<path opacity="0.2" d="M449.102 67.3555L454.26 64.7879L449.128 62.209L449.102 67.3555Z" fill="black"/>
<path d="M353.244 14.2227L359.636 11.002L359.259 125.587L352.867 128.808L353.244 14.2227Z" fill="#F0F0F0"/>
<path d="M352.867 128.809L359.259 125.588L543.673 217.875L537.281 221.096L352.867 128.809Z" fill="#F5F5F5"/>
<path d="M345.917 3.2207L545.038 102.862L544.609 232.098L345.488 132.457L345.917 3.2207ZM537.243 221.096L537.619 106.511L353.245 14.2794L352.868 128.853L537.282 221.197" fill="#E0E0E0"/>
<path d="M345.918 3.22078L352.31 0L551.431 99.6526L545.039 102.873L345.918 3.22078Z" fill="#F5F5F5"/>
<path d="M545.038 102.873L551.43 99.6523L551.002 228.877L544.609 232.098L545.038 102.873Z" fill="#F0F0F0"/>
<path d="M513.429 302.752L491.342 303.315L469.255 302.752C468.306 315.669 471.216 328.833 475.218 335.264C476.17 336.917 477.703 338.266 479.596 339.115C486.093 342.381 496.616 342.381 503.087 339.115C505.01 338.257 506.547 336.865 507.452 335.162C511.493 328.698 514.377 315.601 513.429 302.752Z" fill="#37474F"/>
<path d="M506.92 294.925C515.56 299.249 515.599 306.265 507.024 310.59C498.449 314.914 484.457 314.914 475.843 310.59C467.229 306.265 467.151 299.249 475.739 294.925C484.327 290.601 498.268 290.601 506.92 294.925Z" fill="#455A64"/>
<path d="M503.463 296.649C510.206 300.027 510.232 305.489 503.541 308.867C496.85 312.246 485.936 312.246 479.193 308.867C472.45 305.489 472.411 300.016 479.115 296.649C485.819 293.282 496.759 293.27 503.463 296.649Z" fill="#263238"/>
<path d="M489.524 303.293C491.298 304.585 493.403 305.491 495.663 305.936C497.922 306.38 500.272 306.351 502.516 305.849C504.676 305.285 506.638 304.262 508.227 302.874C509.815 301.485 510.978 299.775 511.611 297.899C508.999 296.823 506.607 295.385 504.53 293.642C507.84 292.926 511.316 293.031 514.56 293.946C515.46 292.724 516 291.329 516.131 289.883C516.262 288.438 515.982 286.987 515.314 285.657C511.547 284.203 507.31 283.948 503.348 284.937C504.994 283.695 506.917 282.761 508.999 282.194C511.08 281.626 513.274 281.437 515.443 281.637C515.756 276.154 514.77 270.673 512.546 265.533C504.322 265.905 496.345 268.979 493.655 271.164C493.201 274.013 494.565 278.732 494.565 278.732C493.503 278.261 492.596 277.565 491.928 276.708C491.26 275.852 490.853 274.862 490.745 273.833C485.548 274.959 483.391 277.211 482.586 278.878C483.328 282.048 485.006 284.998 487.458 287.437C482.625 286.175 480.663 281.502 480.663 281.502C475.843 291.311 476.739 302.347 489.524 303.293Z" fill="#0E6FFF"/>
<path opacity="0.2" d="M489.524 303.293C491.298 304.585 493.403 305.491 495.663 305.936C497.922 306.38 500.272 306.351 502.516 305.849C504.676 305.285 506.638 304.262 508.227 302.874C509.815 301.485 510.978 299.775 511.611 297.899C508.999 296.823 506.607 295.385 504.53 293.642C507.84 292.926 511.316 293.031 514.56 293.946C515.46 292.724 516 291.329 516.131 289.883C516.262 288.438 515.982 286.987 515.314 285.657C511.547 284.203 507.31 283.948 503.348 284.937C504.994 283.695 506.917 282.761 508.999 282.194C511.08 281.626 513.274 281.437 515.443 281.637C515.756 276.154 514.77 270.673 512.546 265.533C504.322 265.905 496.345 268.979 493.655 271.164C493.201 274.013 494.565 278.732 494.565 278.732C493.503 278.261 492.596 277.565 491.928 276.708C491.26 275.852 490.853 274.862 490.745 273.833C485.548 274.959 483.391 277.211 482.586 278.878C483.328 282.048 485.006 284.998 487.458 287.437C482.625 286.175 480.663 281.502 480.663 281.502C475.843 291.311 476.739 302.347 489.524 303.293Z" fill="black"/>
<path d="M489.235 304.352C489.11 304.344 488.994 304.293 488.911 304.211C488.829 304.129 488.787 304.022 488.794 303.913C489.586 294.904 495.524 280.039 509.698 267.786C509.791 267.722 509.907 267.69 510.025 267.696C510.143 267.702 510.255 267.745 510.338 267.817C510.422 267.89 510.472 267.986 510.478 268.089C510.485 268.191 510.448 268.292 510.374 268.372C496.381 280.467 490.522 295.107 489.742 303.969C489.741 304.024 489.726 304.078 489.699 304.128C489.673 304.178 489.634 304.222 489.586 304.258C489.539 304.294 489.483 304.321 489.422 304.337C489.362 304.353 489.298 304.359 489.235 304.352Z" fill="#F5F5F5"/>
<path d="M493.069 308.112C491.419 309.279 489.475 310.091 487.394 310.483C485.313 310.874 483.155 310.834 481.095 310.365C479.036 309.896 477.133 309.012 475.543 307.785C473.953 306.558 472.719 305.022 471.944 303.304C474.309 302.369 476.475 301.093 478.349 299.531C475.219 298.881 471.946 298.963 468.864 299.768C467.938 298.735 467.332 297.514 467.105 296.22C466.877 294.927 467.036 293.605 467.565 292.38C471.149 291.104 475.122 290.898 478.856 291.794C475.535 289.549 471.358 288.475 467.162 288.788C466.456 283.955 466.997 279.047 468.748 274.418C476.543 274.835 484.338 277.65 487.041 279.643C487.351 281.896 487.245 284.176 486.729 286.4C487.678 286.01 488.484 285.399 489.057 284.635C489.631 283.872 489.949 282.986 489.977 282.076C494.888 283.101 497.097 285.094 497.967 286.58C497.518 289.368 496.167 291.988 494.07 294.137C498.5 293.011 500.007 288.923 500.007 288.923C505.061 297.549 504.983 307.29 493.069 308.112Z" fill="#0E6FFF"/>
<path d="M493.435 309.093C493.322 309.092 493.213 309.056 493.127 308.992C493.042 308.928 492.985 308.84 492.967 308.744C491.668 300.861 485.054 287.888 470.971 277.02C470.882 276.942 470.832 276.837 470.832 276.727C470.832 276.618 470.882 276.513 470.971 276.435C471.061 276.358 471.182 276.314 471.309 276.314C471.435 276.314 471.556 276.358 471.646 276.435C485.938 287.46 492.577 300.681 493.954 308.654C493.973 308.763 493.941 308.874 493.865 308.962C493.79 309.051 493.677 309.11 493.551 309.127L493.435 309.093Z" fill="white"/>
<path d="M122.789 56.2397L122.893 88.7402L127.44 91.0375L127.323 53.9648L122.789 56.2397Z" fill="#F0F0F0"/>
<path d="M73.832 113.301L73.845 117.851L127.439 91.0376L122.891 88.7402L73.832 113.301Z" fill="#F5F5F5"/>
<path d="M132.793 45.8105L68.2207 78.0746L68.3766 126.071L132.962 93.7505L132.793 45.8105ZM73.8464 117.884V113.379L73.7295 80.8674L122.789 56.2387L127.323 53.9864L127.44 91.0478L73.8464 117.884Z" fill="#E0E0E0"/>
<path d="M132.793 45.7548L128.245 43.4688L63.6602 75.7891L68.2075 78.0752L132.793 45.7548Z" fill="#F5F5F5"/>
<path d="M63.6602 75.7891L63.8161 123.785L68.3634 126.071L68.2075 78.0751L63.6602 75.7891Z" fill="#F0F0F0"/>
<path d="M204.965 16.0814L205.069 48.582L209.616 50.8793L209.486 13.8066L204.965 16.0814Z" fill="#F0F0F0"/>
<path d="M155.996 73.1433L156.009 77.6929L209.616 50.8794L205.068 48.582L155.996 73.1433Z" fill="#F5F5F5"/>
<path d="M215.033 5.59766L150.383 37.9293L150.539 85.9256L215.124 53.6052L215.033 5.59766ZM156.073 77.671V73.1664L155.97 40.6546L205.042 16.1046L209.563 13.8523L209.693 50.925L156.073 77.671Z" fill="#E0E0E0"/>
<path d="M214.968 5.59662L210.421 3.31055L145.836 35.6309L150.383 37.917L214.968 5.59662Z" fill="#F5F5F5"/>
<path d="M145.836 35.6309L145.992 83.6272L150.539 85.9132L150.383 37.9169L145.836 35.6309Z" fill="#F0F0F0"/>
<path d="M107.196 68.582L120.578 77.7151L120.604 86.6341L76.1054 108.909L76.0664 99.979L84.5504 85.3841L92.1639 90.5081L89.4745 97.7604L93.3852 91.3189L107.196 68.582Z" fill="#E0E0E0"/>
<path d="M92.5816 73.0767C94.6733 72.0294 96.3753 72.874 96.3883 74.9574C96.3084 76.0865 95.9249 77.1837 95.2684 78.1614C94.612 79.1391 93.7007 79.9702 92.6075 80.5881C90.5158 81.6354 88.8008 80.7908 88.8008 78.7075C88.8776 77.5777 89.2599 76.4795 89.9166 75.5014C90.5734 74.5233 91.4863 73.6927 92.5816 73.0767Z" fill="#E0E0E0"/>
<path d="M189.376 28.4238L202.758 37.5569L202.784 46.4759L158.272 68.7511L158.246 59.8208L166.73 45.2259L174.344 50.3499L171.654 57.6023L175.565 51.1607L189.376 28.4238Z" fill="#E0E0E0"/>
<path d="M174.757 32.9166C176.862 31.8693 178.564 32.7139 178.564 34.7972C178.487 35.927 178.105 37.0252 177.448 38.0033C176.792 38.9814 175.879 39.812 174.783 40.428C172.692 41.4753 170.99 40.6307 170.977 38.5473C171.056 37.4182 171.44 36.3209 172.096 35.3432C172.753 34.3655 173.664 33.5345 174.757 32.9166Z" fill="#E0E0E0"/>
<path d="M149.812 407.563L133.298 399.308C131.425 398.379 129.867 397.037 128.784 395.418C127.701 393.8 127.131 391.962 127.131 390.09C127.131 388.219 127.701 386.381 128.784 384.763C129.867 383.144 131.425 381.802 133.298 380.873L162.076 366.582C168.086 363.609 174.889 362.051 181.809 362.063C188.729 362.075 195.525 363.656 201.521 366.65C206.712 369.24 212.597 370.603 218.587 370.603C224.576 370.603 230.461 369.24 235.652 366.65L294.91 336.976C296.567 336.146 297.942 334.954 298.899 333.518C299.855 332.082 300.359 330.453 300.359 328.794C300.359 327.136 299.855 325.507 298.899 324.071C297.942 322.635 296.567 321.442 294.91 320.613L234.925 290.59C232.857 289.55 231.141 288.059 229.946 286.265C228.752 284.47 228.121 282.436 228.117 280.365V273.518H233.56V280.376C233.564 281.62 233.944 282.841 234.662 283.918C235.38 284.994 236.412 285.889 237.653 286.513L297.626 316.525C300.113 317.769 302.179 319.559 303.616 321.715C305.052 323.871 305.808 326.316 305.808 328.806C305.808 331.295 305.052 333.741 303.616 335.896C302.179 338.052 300.113 339.842 297.626 341.086L238.42 370.749C232.405 373.756 225.583 375.34 218.639 375.34C211.695 375.34 204.873 373.756 198.858 370.749C193.681 368.178 187.818 366.825 181.851 366.825C175.884 366.825 170.021 368.178 164.844 370.749L136.053 385.04C135.014 385.558 134.151 386.305 133.551 387.204C132.951 388.104 132.635 389.125 132.635 390.164C132.635 391.203 132.951 392.224 133.551 393.123C134.151 394.023 135.014 394.769 136.053 395.288L152.579 403.531L149.812 407.563Z" fill="#455A64"/>
<path opacity="0.3" d="M233.584 280.376V273.518H228.141V280.376C228.143 282.465 228.784 284.517 229.999 286.322L234.715 283.957C233.983 282.87 233.593 281.635 233.584 280.376Z" fill="black"/>
<path d="M157.074 413.091L144.238 406.65C143.809 406.433 143.452 406.122 143.204 405.749C142.956 405.375 142.824 404.952 142.822 404.521V412.1C142.806 412.542 142.928 412.979 143.175 413.366C143.422 413.752 143.785 414.074 144.225 414.296L157.061 420.738L174.172 412.179L166.533 408.35L157.074 413.091Z" fill="#37474F"/>
<path d="M144.237 406.651L157.074 413.093L166.545 408.352L174.185 404.534L161.361 398.115C160.068 397.468 158.6 397.127 157.106 397.127C155.612 397.127 154.145 397.468 152.851 398.115L144.25 402.383C143.833 402.589 143.483 402.885 143.235 403.242C142.987 403.599 142.849 404.005 142.834 404.422C142.834 404.422 142.834 404.478 142.834 404.5C142.83 404.934 142.958 405.361 143.204 405.738C143.45 406.116 143.807 406.431 144.237 406.651Z" fill="#455A64"/>
<path d="M158.36 424.906V413.577C158.361 413.144 158.493 412.72 158.744 412.346C158.995 411.972 159.355 411.663 159.789 411.448L178.186 402.237C178.346 402.156 178.531 402.118 178.716 402.128C178.901 402.138 179.078 402.195 179.225 402.293L176.692 400.761C176.547 400.661 176.37 400.6 176.184 400.588C175.999 400.576 175.813 400.613 175.653 400.694L157.242 409.906C156.811 410.124 156.454 410.436 156.205 410.812C155.957 411.187 155.826 411.613 155.826 412.045V423.374C155.826 423.515 155.867 423.653 155.947 423.776C156.027 423.898 156.142 424 156.281 424.073L158.775 425.582C158.646 425.509 158.539 425.409 158.467 425.29C158.394 425.172 158.357 425.04 158.36 424.906Z" fill="#455A64"/>
<path opacity="0.2" d="M158.36 424.906V413.577C158.361 413.144 158.493 412.72 158.744 412.346C158.995 411.972 159.355 411.663 159.789 411.448L178.186 402.237C178.346 402.156 178.531 402.118 178.716 402.128C178.901 402.138 179.078 402.195 179.225 402.293L176.692 400.761C176.547 400.661 176.37 400.6 176.184 400.588C175.999 400.576 175.813 400.613 175.653 400.694L157.242 409.906C156.811 410.124 156.454 410.436 156.205 410.812C155.957 411.187 155.826 411.613 155.826 412.045V423.374C155.826 423.515 155.867 423.653 155.947 423.776C156.027 423.898 156.142 424 156.281 424.073L158.775 425.582C158.646 425.509 158.539 425.409 158.467 425.29C158.394 425.172 158.357 425.04 158.36 424.906Z" fill="white"/>
<path d="M179.225 402.292C179.078 402.194 178.9 402.137 178.715 402.127C178.53 402.117 178.346 402.154 178.186 402.235L159.789 411.447C159.355 411.661 158.995 411.971 158.744 412.345C158.493 412.719 158.36 413.143 158.36 413.576V424.905C158.357 425.039 158.394 425.171 158.466 425.289C158.539 425.407 158.645 425.508 158.775 425.58C158.927 425.663 159.103 425.708 159.282 425.708C159.461 425.708 159.637 425.663 159.789 425.58L178.186 416.368C178.619 416.152 178.98 415.84 179.23 415.464C179.481 415.089 179.614 414.663 179.615 414.229V402.945C179.615 402.817 179.58 402.691 179.512 402.577C179.444 402.463 179.346 402.366 179.225 402.292Z" fill="#455A64"/>
<path d="M180.837 424.095C180.772 423.018 180.415 421.971 179.794 421.037C179.173 420.104 178.306 419.311 177.264 418.723L164.363 412.281L163.271 412.833V419.995L176.147 426.437C176.516 426.675 176.955 426.82 177.413 426.856C177.872 426.892 178.333 426.817 178.745 426.64L179.811 426.099C180.165 425.868 180.445 425.563 180.624 425.212C180.804 424.862 180.877 424.477 180.837 424.095ZM177.472 423.824C177.305 423.79 177.143 423.737 176.991 423.667C176.512 423.394 176.113 423.028 175.826 422.598C175.54 422.168 175.374 421.685 175.341 421.189C175.328 421.092 175.328 420.994 175.341 420.896C175.514 420.927 175.68 420.98 175.835 421.054C176.319 421.325 176.722 421.692 177.009 422.125C177.296 422.558 177.459 423.044 177.485 423.543C177.495 423.637 177.491 423.731 177.472 423.824Z" fill="#0E6FFF"/>
<path opacity="0.5" d="M180.837 424.095C180.772 423.018 180.415 421.971 179.794 421.037C179.173 420.104 178.306 419.311 177.264 418.723L164.363 412.281L163.271 412.833V419.995L176.147 426.437C176.516 426.675 176.955 426.82 177.413 426.856C177.872 426.892 178.333 426.817 178.745 426.64L179.811 426.099C180.165 425.868 180.445 425.563 180.624 425.212C180.804 424.862 180.877 424.477 180.837 424.095ZM177.472 423.824C177.305 423.79 177.143 423.737 176.991 423.667C176.512 423.394 176.113 423.028 175.826 422.598C175.54 422.168 175.374 421.685 175.341 421.189C175.328 421.092 175.328 420.994 175.341 420.896C175.514 420.927 175.68 420.98 175.835 421.054C176.319 421.325 176.722 421.692 177.009 422.125C177.296 422.558 177.459 423.044 177.485 423.543C177.495 423.637 177.491 423.731 177.472 423.824Z" fill="white"/>
<path opacity="0.2" d="M180.837 424.095C180.772 423.018 180.415 421.971 179.794 421.037C179.173 420.104 178.306 419.311 177.264 418.723L164.363 412.281L163.271 412.833L176.134 419.275C177.177 419.862 178.046 420.655 178.669 421.588C179.292 422.522 179.652 423.569 179.72 424.646C179.764 425.028 179.691 425.414 179.509 425.764C179.326 426.114 179.041 426.416 178.68 426.64L179.746 426.099C180.112 425.875 180.404 425.572 180.596 425.221C180.787 424.87 180.87 424.482 180.837 424.095Z" fill="black"/>
<g opacity="0.2">
<path d="M175.341 421.189C175.328 421.092 175.328 420.994 175.341 420.897C174.666 420.773 174.185 421.144 174.172 421.888C174.204 422.382 174.37 422.863 174.657 423.292C174.944 423.72 175.343 424.084 175.822 424.354C176.64 424.759 177.316 424.523 177.459 423.836C177.281 423.802 177.11 423.745 176.952 423.667C176.48 423.391 176.089 423.023 175.809 422.593C175.529 422.163 175.369 421.682 175.341 421.189Z" fill="black"/>
</g>
<path d="M190.854 419.307C190.789 418.231 190.432 417.184 189.811 416.25C189.19 415.317 188.323 414.524 187.281 413.936L174.406 407.494L173.314 408.046V415.219L186.19 421.661C186.56 421.897 186.998 422.041 187.457 422.076C187.915 422.112 188.375 422.039 188.788 421.864L189.854 421.323C190.205 421.089 190.481 420.781 190.656 420.428C190.831 420.075 190.9 419.689 190.854 419.307ZM187.502 419.048C187.328 419.015 187.162 418.958 187.008 418.879C186.529 418.61 186.13 418.246 185.843 417.817C185.557 417.389 185.391 416.908 185.358 416.413C185.345 416.312 185.345 416.21 185.358 416.109C185.532 416.143 185.699 416.2 185.852 416.278C186.335 416.548 186.738 416.913 187.027 417.344C187.316 417.774 187.483 418.258 187.515 418.756C187.518 418.853 187.514 418.951 187.502 419.048Z" fill="#0E6FFF"/>
<path opacity="0.5" d="M190.854 419.307C190.789 418.231 190.432 417.184 189.811 416.25C189.19 415.317 188.323 414.524 187.281 413.936L174.406 407.494L173.314 408.046V415.219L186.19 421.661C186.56 421.897 186.998 422.041 187.457 422.076C187.915 422.112 188.375 422.039 188.788 421.864L189.854 421.323C190.205 421.089 190.481 420.781 190.656 420.428C190.831 420.075 190.9 419.689 190.854 419.307ZM187.502 419.048C187.328 419.015 187.162 418.958 187.008 418.879C186.529 418.61 186.13 418.246 185.843 417.817C185.557 417.389 185.391 416.908 185.358 416.413C185.345 416.312 185.345 416.21 185.358 416.109C185.532 416.143 185.699 416.2 185.852 416.278C186.335 416.548 186.738 416.913 187.027 417.344C187.316 417.774 187.483 418.258 187.515 418.756C187.518 418.853 187.514 418.951 187.502 419.048Z" fill="white"/>
<path opacity="0.2" d="M190.854 419.307C190.789 418.231 190.432 417.184 189.811 416.25C189.19 415.317 188.323 414.524 187.281 413.936L174.406 407.494L173.314 408.046L186.19 414.487C187.232 415.075 188.099 415.868 188.719 416.802C189.34 417.736 189.698 418.783 189.763 419.859C189.801 420.242 189.726 420.628 189.544 420.979C189.362 421.33 189.08 421.634 188.723 421.864L189.789 421.323C190.152 421.095 190.441 420.79 190.627 420.437C190.814 420.084 190.892 419.695 190.854 419.307Z" fill="black"/>
<g opacity="0.2">
<path d="M185.359 416.415C185.345 416.314 185.345 416.212 185.359 416.111C184.697 415.987 184.203 416.37 184.203 417.102C184.23 417.598 184.392 418.081 184.677 418.512C184.961 418.943 185.36 419.309 185.84 419.579C186.659 419.985 187.334 419.737 187.477 419.05C187.3 419.015 187.129 418.958 186.97 418.881C186.499 418.608 186.107 418.242 185.827 417.814C185.548 417.386 185.387 416.906 185.359 416.415Z" fill="black"/>
</g>
<path d="M254.412 317.213C254.104 315.734 253.434 314.331 252.445 313.097C251.456 311.863 250.173 310.828 248.682 310.062L222.087 296.267C220.499 295.435 219.186 294.262 218.275 292.861C217.364 291.46 216.887 289.879 216.89 288.271V277.291L156.8 307.404L151.785 309.915V322.303C151.785 323.94 152.282 325.548 153.227 326.965C154.171 328.382 155.529 329.559 157.164 330.378L185.747 344.635C190.331 346.917 195.525 348.118 200.812 348.118C206.098 348.118 211.292 346.917 215.876 344.635L248.461 328.474C250.689 327.374 252.462 325.695 253.53 323.675C254.597 321.654 254.906 319.394 254.412 317.213Z" fill="#0E6FFF"/>
<path opacity="0.3" d="M248.461 324.51L216.058 340.581C211.402 342.896 206.128 344.115 200.76 344.115C195.392 344.115 190.117 342.896 185.461 340.581L161.412 328.576C160.014 327.872 158.853 326.864 158.044 325.651C157.235 324.438 156.806 323.062 156.8 321.661V307.404L151.785 309.916V322.303C151.785 323.94 152.282 325.548 153.227 326.965C154.171 328.382 155.529 329.559 157.164 330.378L185.747 344.635C190.331 346.917 195.525 348.118 200.812 348.118C206.098 348.118 211.292 346.917 215.876 344.635L248.461 328.474C250.689 327.374 252.462 325.695 253.53 323.675C254.597 321.654 254.906 319.394 254.412 317.213C254.1 318.734 253.405 320.176 252.376 321.437C251.348 322.699 250.011 323.748 248.461 324.51Z" fill="black"/>
<path opacity="0.4" d="M161.412 328.531C160.014 327.827 158.853 326.819 158.044 325.606C157.235 324.393 156.806 323.017 156.8 321.616V307.404L151.785 309.916V322.303C151.785 323.94 152.282 325.548 153.227 326.965C154.171 328.382 155.529 329.559 157.164 330.378L167.285 335.434V331.493L161.412 328.531Z" fill="black"/>
<path opacity="0.3" d="M161.413 328.531L167.273 331.459L230.013 300.377L222.087 296.267C220.499 295.435 219.186 294.262 218.276 292.861C217.365 291.46 216.888 289.879 216.89 288.271V277.291L156.801 307.404V321.616C156.807 323.017 157.236 324.393 158.045 325.606C158.854 326.819 160.015 327.827 161.413 328.531Z" fill="black"/>
<path d="M325.739 43.8861C325.739 41.3974 324.726 39.6406 323.141 38.8072L313.514 33.9761C311.825 33.0526 309.46 33.1315 306.822 34.449L51.2496 161.895C50.9118 162.064 50.574 162.255 50.2492 162.447L49.9504 162.649C49.7295 162.796 49.4957 162.942 49.2878 163.1L48.95 163.348L48.3393 163.821C48.2354 163.911 48.1315 164.012 48.0145 164.102L47.4429 164.631L47.144 164.924C46.9622 165.116 46.7673 165.307 46.5854 165.51L46.3255 165.791C46.1436 166.005 45.9488 166.231 45.7669 166.467L45.572 166.715C45.3641 166.974 45.1822 167.233 44.9873 167.503L44.8574 167.683C44.6365 168.01 44.4286 168.336 44.2208 168.674C44.1038 168.877 43.9869 169.08 43.883 169.294C43.779 169.508 43.766 169.485 43.7141 169.586L43.4412 170.15L43.2723 170.521L43.0515 171.05L42.8826 171.467C42.8826 171.636 42.7656 171.805 42.7137 171.963C42.6617 172.12 42.6227 172.278 42.5707 172.436C42.5188 172.593 42.4798 172.74 42.4408 172.897L42.3239 173.404L42.2459 173.821C42.2071 174.018 42.1811 174.218 42.168 174.418C42.168 174.519 42.168 174.632 42.168 174.744C42.168 175.048 42.168 175.352 42.168 175.645L42.6357 353.779C42.6357 356.166 43.5712 357.867 45.0783 358.745C45.2415 358.836 45.4107 358.919 45.585 358.993L55.0824 363.79L55.2253 363.858C56.8883 364.612 59.123 364.466 61.6046 363.227L317.035 235.781C319.707 234.274 321.93 232.241 323.524 229.847C325.118 227.454 326.038 224.768 326.207 222.009L325.739 43.8861ZM310.149 51.5777L156.449 128.291L111.365 150.814L65.6192 173.652L316.684 48.3232L310.149 51.5777Z" fill="#0E6FFF"/>
<path d="M52.3681 358.722L51.9004 180.599C52.0667 177.841 52.9847 175.155 54.579 172.763C56.1734 170.371 58.3988 168.341 61.073 166.838L316.516 39.3245C319.036 38.0632 321.323 37.9393 323.012 38.7389L313.385 33.9077C311.696 32.9843 309.331 33.0631 306.694 34.3807L51.2507 161.894C48.5795 163.4 46.3563 165.431 44.7623 167.822C43.1683 170.214 42.2486 172.898 42.0781 175.656L42.5459 353.789C42.5459 356.177 43.4813 357.877 44.9884 358.756C45.1516 358.847 45.3208 358.929 45.4951 359.003L54.9925 363.801C53.3815 362.967 52.3681 361.211 52.3681 358.722Z" fill="#0E6FFF"/>
<path opacity="0.3" d="M313.373 33.9077C311.684 32.9843 309.319 33.0631 306.681 34.3807L51.2515 161.894C48.2345 163.541 45.8019 165.88 44.2227 168.651L54.0579 173.572C55.6256 170.798 58.0553 168.458 61.0738 166.815L316.517 39.3245C319.037 38.0632 321.324 37.9393 323.013 38.7389L313.373 33.9077Z" fill="white"/>
<path opacity="0.2" d="M42.0781 175.656L42.5459 353.79C42.5459 356.177 43.4813 357.878 44.9884 358.756C45.1516 358.847 45.3208 358.93 45.4951 359.004L54.9925 363.801C53.3685 362.956 52.3941 361.2 52.3941 358.711L51.9263 180.588C52.0011 178.143 52.74 175.747 54.0831 173.595L44.2479 168.674C42.9103 170.824 42.1675 173.214 42.0781 175.656Z" fill="black"/>
<path d="M325.741 43.8847C325.741 41.3959 324.727 39.6391 323.142 38.8058C321.466 38.0062 319.179 38.1301 316.646 39.3914L61.073 166.837C58.3988 168.34 56.1734 170.371 54.5791 172.763C52.9847 175.155 52.0668 177.84 51.9004 180.599L52.3681 358.721C52.3681 361.21 53.3815 362.967 54.9666 363.811L55.1095 363.879C56.7725 364.633 59.0072 364.487 61.4888 363.248L317.036 235.78C319.708 234.272 321.932 232.239 323.526 229.846C325.12 227.453 326.039 224.767 326.208 222.007L325.741 43.8847ZM312.475 228.955L61.4238 354.284L60.9821 180.576C61.1528 179.205 61.6539 177.88 62.4529 176.686C63.2519 175.493 64.331 174.459 65.6203 173.65L316.685 48.3217L317.127 222.03C316.954 223.402 316.451 224.728 315.65 225.921C314.849 227.114 313.767 228.148 312.475 228.955Z" fill="#0E6FFF"/>
<path d="M316.684 48.3223L310.188 51.5768L310.617 219.237C310.442 220.608 309.939 221.932 309.141 223.124C308.342 224.317 307.265 225.352 305.978 226.163L61.4102 348.282V354.285L312.475 228.956C313.762 228.146 314.838 227.111 315.635 225.918C316.432 224.725 316.931 223.401 317.1 222.03L316.684 48.3223Z" fill="#0E6FFF"/>
<path opacity="0.3" d="M316.684 48.3223L310.188 51.5768L310.617 219.237C310.442 220.608 309.939 221.932 309.141 223.124C308.342 224.317 307.265 225.352 305.978 226.163L61.4102 348.282V354.285L312.475 228.956C313.762 228.146 314.838 227.111 315.635 225.918C316.432 224.725 316.931 223.401 317.1 222.03L316.684 48.3223Z" fill="black"/>
<path d="M310.618 219.237L310.177 51.5312L65.6214 173.65C64.3344 174.46 63.2578 175.495 62.4611 176.688C61.6644 177.881 61.1653 179.206 60.9961 180.576L61.4248 348.282L305.98 226.208C307.273 225.391 308.353 224.349 309.152 223.149C309.951 221.948 310.451 220.615 310.618 219.237Z" fill="#455A64"/>
<g opacity="0.2">
<path d="M257.024 78.1083L170.949 293.607L200.39 278.923L286.464 63.4121L257.024 78.1083Z" fill="white"/>
<path d="M187.383 112.86L101.309 328.36L118.433 319.823L204.507 104.324L187.383 112.86Z" fill="white"/>
<path d="M111.392 150.789L61.2285 276.411L61.4104 348.282L70.4011 343.799L156.476 128.289L111.392 150.789Z" fill="white"/>
<path d="M310.384 128.469L262.715 247.806L278.721 239.822L310.462 160.339L310.384 128.469Z" fill="white"/>
<path d="M310.188 51.5762L304.627 54.3465L218.553 269.846L229.999 264.136L310.214 63.2993L310.188 51.5762Z" fill="white"/>
</g>
<path d="M93.9725 210.229L95.2717 217.132C95.2953 217.632 95.4651 218.118 95.7652 218.546C96.0653 218.973 96.4859 219.327 96.9873 219.575C97.4888 219.823 98.0548 219.956 98.6319 219.962C99.2091 219.968 99.7786 219.847 100.287 219.609L107.835 217.064L100.3 222.087C97.622 223.955 95.8433 226.621 95.3107 229.564L94.0894 237.706L92.7902 230.814C92.7667 230.315 92.5968 229.828 92.2967 229.401C91.9966 228.973 91.5761 228.619 91.0746 228.371C90.5731 228.124 90.0072 227.99 89.43 227.984C88.8528 227.978 88.2834 228.1 87.7751 228.337L80.2266 230.871L87.7621 225.859C90.4407 223.987 92.2193 221.317 92.7512 218.371L93.9725 210.229Z" fill="#0E6FFF"/>
<path d="M98.2458 189.191L99.0643 193.583C99.0799 193.902 99.1885 194.211 99.3799 194.483C99.5714 194.755 99.8395 194.981 100.159 195.138C100.478 195.296 100.839 195.381 101.206 195.384C101.574 195.388 101.937 195.311 102.26 195.16L107.068 193.538L102.26 196.714C100.555 197.903 99.4241 199.602 99.0903 201.478L98.3108 206.669L97.5053 202.277C97.4918 201.958 97.3848 201.647 97.1942 201.373C97.0036 201.1 96.7358 200.873 96.4159 200.714C96.0961 200.555 95.7348 200.469 95.3662 200.465C94.9976 200.461 94.6338 200.538 94.3091 200.689L89.502 202.311L94.2961 199.113C96.0027 197.922 97.1373 196.224 97.4793 194.349L98.2458 189.191Z" fill="#0E6FFF"/>
<path d="M304.058 67.084L305.358 73.976C305.384 74.4762 305.555 74.9626 305.857 75.3897C306.159 75.8167 306.58 76.1705 307.083 76.418C307.585 76.6655 308.151 76.7985 308.729 76.8047C309.307 76.8109 309.877 76.6901 310.386 76.4535L317.934 73.9197L310.386 78.931C307.711 80.8046 305.937 83.4744 305.41 86.4199L304.188 94.5619L302.889 87.6699C302.868 87.1691 302.699 86.6812 302.4 86.2523C302.101 85.8234 301.681 85.4677 301.179 85.2186C300.677 84.9696 300.11 84.8355 299.532 84.8289C298.954 84.8224 298.383 84.9436 297.874 85.1811L290.312 87.7262L297.861 82.7149C300.54 80.8425 302.318 78.1728 302.85 75.226L304.058 67.084Z" fill="#0E6FFF"/>
<path d="M312.855 46.2617L313.66 50.6537C313.672 50.9733 313.778 51.2849 313.969 51.5587C314.16 51.8325 314.428 52.0594 314.749 52.2176C315.07 52.3757 315.432 52.46 315.801 52.4622C316.17 52.4644 316.533 52.3846 316.856 52.2303L321.663 50.6199L316.869 53.8069C315.165 55.0035 314.031 56.7042 313.686 58.5817L312.919 63.762L312.101 59.37C312.089 59.0504 311.983 58.7388 311.792 58.465C311.601 58.1912 311.333 57.9643 311.012 57.8062C310.691 57.648 310.329 57.5638 309.96 57.5615C309.591 57.5593 309.228 57.6392 308.905 57.7934L304.098 59.4038L308.905 56.2168C310.61 55.0226 311.741 53.3201 312.075 51.442L312.855 46.2617Z" fill="#0E6FFF"/>
<path d="M256.532 220.668L257.338 225.06C257.351 225.379 257.458 225.69 257.649 225.964C257.839 226.237 258.107 226.464 258.427 226.623C258.747 226.782 259.108 226.868 259.477 226.872C259.845 226.876 260.209 226.799 260.534 226.648L265.341 225.026L260.508 228.247C258.804 229.438 257.674 231.136 257.338 233.011L256.558 238.191L255.753 233.799C255.737 233.48 255.629 233.171 255.437 232.899C255.246 232.627 254.978 232.401 254.658 232.244C254.339 232.086 253.978 232.001 253.611 231.998C253.243 231.994 252.88 232.071 252.557 232.222L247.775 233.878L252.583 230.679C254.285 229.488 255.415 227.79 255.753 225.916L256.532 220.668Z" fill="#0E6FFF"/>
<path d="M76.7306 207.02L77.3672 210.398C77.3625 210.658 77.4379 210.914 77.5854 211.141C77.733 211.367 77.9475 211.555 78.2068 211.686C78.4661 211.817 78.7609 211.885 79.0609 211.885C79.3609 211.884 79.6553 211.814 79.9137 211.682L83.6815 210.42L79.9137 212.921C78.5805 213.852 77.6957 215.181 77.4321 216.648L76.8345 220.702L76.1979 217.267C76.1861 217.018 76.1012 216.774 75.9511 216.561C75.8011 216.347 75.5908 216.17 75.3401 216.046C75.0893 215.922 74.8064 215.855 74.5178 215.852C74.2292 215.849 73.9444 215.91 73.6903 216.029L69.9355 217.301L73.6903 214.801C75.0274 213.872 75.9131 212.542 76.1719 211.074L76.7306 207.02Z" fill="#0E6FFF"/>
<g opacity="0.8">
<path d="M93.9725 210.229L95.2717 217.132C95.2953 217.632 95.4651 218.118 95.7652 218.546C96.0653 218.973 96.4859 219.327 96.9873 219.575C97.4888 219.823 98.0548 219.956 98.6319 219.962C99.2091 219.968 99.7786 219.847 100.287 219.609L107.835 217.064L100.3 222.087C97.622 223.955 95.8433 226.621 95.3107 229.564L94.0894 237.706L92.7902 230.814C92.7667 230.315 92.5968 229.828 92.2967 229.401C91.9966 228.973 91.5761 228.619 91.0746 228.371C90.5731 228.124 90.0072 227.99 89.43 227.984C88.8528 227.978 88.2834 228.1 87.7751 228.337L80.2266 230.871L87.7621 225.859C90.4407 223.987 92.2193 221.317 92.7512 218.371L93.9725 210.229Z" fill="white"/>
<path d="M98.2458 189.191L99.0643 193.583C99.0799 193.902 99.1885 194.211 99.3799 194.483C99.5714 194.755 99.8395 194.981 100.159 195.138C100.478 195.296 100.839 195.381 101.206 195.384C101.574 195.388 101.937 195.311 102.26 195.16L107.068 193.538L102.26 196.714C100.555 197.903 99.4241 199.602 99.0903 201.478L98.3108 206.669L97.5053 202.277C97.4918 201.958 97.3848 201.647 97.1942 201.373C97.0036 201.1 96.7358 200.873 96.4159 200.714C96.0961 200.555 95.7348 200.469 95.3662 200.465C94.9976 200.461 94.6338 200.538 94.3091 200.689L89.502 202.311L94.2961 199.113C96.0027 197.922 97.1373 196.224 97.4793 194.349L98.2458 189.191Z" fill="white"/>
<path d="M304.058 67.084L305.358 73.976C305.384 74.4762 305.555 74.9626 305.857 75.3897C306.159 75.8167 306.58 76.1705 307.083 76.418C307.585 76.6655 308.151 76.7985 308.729 76.8047C309.307 76.8109 309.877 76.6901 310.386 76.4535L317.934 73.9197L310.386 78.931C307.711 80.8046 305.937 83.4744 305.41 86.4199L304.188 94.5619L302.889 87.6699C302.868 87.1691 302.699 86.6812 302.4 86.2523C302.101 85.8234 301.681 85.4677 301.179 85.2186C300.677 84.9696 300.11 84.8355 299.532 84.8289C298.954 84.8224 298.383 84.9436 297.874 85.1811L290.312 87.7262L297.861 82.7149C300.54 80.8425 302.318 78.1728 302.85 75.226L304.058 67.084Z" fill="white"/>
<path d="M312.855 46.2617L313.66 50.6537C313.672 50.9733 313.778 51.2849 313.969 51.5587C314.16 51.8325 314.428 52.0594 314.749 52.2176C315.07 52.3757 315.432 52.46 315.801 52.4622C316.17 52.4644 316.533 52.3846 316.856 52.2303L321.663 50.6199L316.869 53.8069C315.165 55.0035 314.031 56.7042 313.686 58.5817L312.919 63.762L312.101 59.37C312.089 59.0504 311.983 58.7388 311.792 58.465C311.601 58.1912 311.333 57.9643 311.012 57.8062C310.691 57.648 310.329 57.5638 309.96 57.5615C309.591 57.5593 309.228 57.6392 308.905 57.7934L304.098 59.4038L308.905 56.2168C310.61 55.0226 311.741 53.3201 312.075 51.442L312.855 46.2617Z" fill="white"/>
<path d="M256.532 220.668L257.338 225.06C257.351 225.379 257.458 225.69 257.649 225.964C257.839 226.237 258.107 226.464 258.427 226.623C258.747 226.782 259.108 226.868 259.477 226.872C259.845 226.876 260.209 226.799 260.534 226.648L265.341 225.026L260.508 228.247C258.804 229.438 257.674 231.136 257.338 233.011L256.558 238.191L255.753 233.799C255.737 233.48 255.629 233.171 255.437 232.899C255.246 232.627 254.978 232.401 254.658 232.244C254.339 232.086 253.978 232.001 253.611 231.998C253.243 231.994 252.88 232.071 252.557 232.222L247.775 233.878L252.583 230.679C254.285 229.488 255.415 227.79 255.753 225.916L256.532 220.668Z" fill="white"/>
<path d="M76.7306 207.02L77.3672 210.398C77.3625 210.658 77.4379 210.914 77.5854 211.141C77.733 211.367 77.9475 211.555 78.2068 211.686C78.4661 211.817 78.7609 211.885 79.0609 211.885C79.3609 211.884 79.6553 211.814 79.9137 211.682L83.6815 210.42L79.9137 212.921C78.5805 213.852 77.6957 215.181 77.4321 216.648L76.8345 220.702L76.1979 217.267C76.1861 217.018 76.1012 216.774 75.9511 216.561C75.8011 216.347 75.5908 216.17 75.3401 216.046C75.0893 215.922 74.8064 215.855 74.5178 215.852C74.2292 215.849 73.9444 215.91 73.6903 216.029L69.9355 217.301L73.6903 214.801C75.0274 213.872 75.9131 212.542 76.1719 211.074L76.7306 207.02Z" fill="white"/>
</g>
<path d="M334.758 207.978C329.119 204.983 325.741 195.861 322.675 196.942C319.609 198.023 324.481 202.854 323.182 203.631C321.883 204.408 316.686 201.616 314.685 199.791C312.684 197.967 309.189 195.557 306.63 200.703C304.07 205.85 308.812 210.546 315.659 213.485C321.87 216.143 325.858 216.695 330.484 218.587C333.316 215.729 335.258 212.29 336.122 208.598C335.655 208.412 335.2 208.206 334.758 207.978Z" fill="#FFA8A7"/>
<path d="M394.823 179.959C385.598 177.707 379.232 181.615 375.88 188.743L363.537 214.994C363.537 214.994 343.399 211.469 336.123 208.563C335.258 212.256 333.317 215.694 330.484 218.552C330.952 218.744 331.42 218.935 331.901 219.16C335.538 220.827 353.091 228.046 363.615 232.01C365.829 232.846 368.326 232.93 370.609 232.243C372.891 231.556 374.791 230.15 375.932 228.305C386.949 210.557 397.98 187.944 394.823 179.959Z" fill="#455A64"/>
<path d="M360.055 375.773C361.231 376.739 362.622 377.487 364.144 377.969C365.666 378.451 367.285 378.658 368.903 378.577C372.145 378.399 375.324 377.712 378.283 376.55C381.271 375.492 385.039 372.518 388.274 372.575C391.442 372.56 394.605 372.376 397.746 372.023C397.872 368.315 397.435 364.608 396.447 360.998L381.336 360.66C377.257 365.469 369.319 369.467 363.316 370.964C362.399 371.183 361.567 371.612 360.908 372.207C360.249 372.802 359.789 373.54 359.574 374.343C359.581 374.369 359.581 374.396 359.574 374.422C359.666 374.888 359.828 375.343 360.055 375.773Z" fill="#37474F"/>
<path d="M388.274 372.587C385.039 372.531 381.271 375.504 378.283 376.562C375.323 377.724 372.145 378.411 368.903 378.589C367.285 378.67 365.665 378.464 364.144 377.981C362.622 377.499 361.23 376.752 360.055 375.785C359.813 375.368 359.634 374.925 359.522 374.468C359.529 374.442 359.529 374.415 359.522 374.389C359.386 374.957 359.386 375.544 359.522 376.112C359.635 376.572 359.814 377.019 360.055 377.441C361.229 378.408 362.621 379.155 364.143 379.635C365.666 380.116 367.286 380.319 368.903 380.233C372.145 380.055 375.323 379.368 378.283 378.206C381.271 377.148 385.039 374.186 388.274 374.242C391.392 374.262 394.508 374.108 397.603 373.781C397.681 373.195 397.72 372.655 397.746 372.035C394.605 372.388 391.441 372.573 388.274 372.587Z" fill="#263238"/>
<path d="M434.878 383.024C434.889 384.447 434.724 385.867 434.384 387.259C433.858 389.738 432.247 391.945 429.889 393.419C427.709 394.489 425.248 395.055 422.743 395.063C420.554 395.254 418.343 395.055 416.247 394.477C414.651 393.988 413.298 393.038 412.414 391.786C412.419 391.812 412.419 391.839 412.414 391.865C412.73 392.781 413.297 393.618 414.066 394.304C414.835 394.991 415.784 395.506 416.831 395.806C418.927 396.387 421.14 396.583 423.328 396.381C425.837 396.383 428.304 395.821 430.486 394.748C432.845 393.273 434.456 391.067 434.982 388.588C435.31 387.194 435.471 385.775 435.463 384.353C435.469 383.384 435.702 382.426 436.149 381.537C436.596 380.649 437.246 379.848 438.061 379.184C438.472 378.865 438.859 378.523 439.217 378.16C439.472 377.911 439.666 377.62 439.786 377.304C439.907 376.989 439.952 376.655 439.919 376.324C439.919 376.054 439.919 375.795 439.828 375.547C439.23 376.144 437.827 377.574 437.476 377.855C436.657 378.516 436.003 379.316 435.556 380.205C435.109 381.095 434.878 382.054 434.878 383.024Z" fill="#263238"/>
<path d="M422.458 368.295C422.986 371.2 422.535 374.176 421.158 376.865C419.791 379.548 418.012 382.06 415.87 384.331C414.827 385.405 413.905 386.562 413.116 387.789C412.339 389.005 412.059 390.414 412.323 391.786C413.207 393.038 414.56 393.988 416.156 394.478C418.253 395.055 420.464 395.255 422.652 395.063C425.158 395.056 427.618 394.49 429.798 393.419C432.157 391.945 433.767 389.738 434.294 387.259C434.633 385.867 434.799 384.448 434.787 383.025C434.788 382.055 435.018 381.095 435.465 380.206C435.913 379.317 436.566 378.517 437.386 377.856C437.737 377.574 439.14 376.144 439.737 375.547C439.411 373.43 438.584 371.395 437.308 369.567L422.458 368.295Z" fill="#37474F"/>
<path d="M380.647 246.717C380.647 246.717 376.828 289.894 377.152 301.899C377.477 313.903 378.893 361.37 378.893 361.37C386.689 365.3 398.031 362.373 398.031 362.373C398.954 324.489 403.111 316.336 400.279 302.473C402.28 292.18 405.034 268.193 405.034 268.193C408.932 297.045 411.764 311.91 411.764 311.91L421.08 369.659C428.732 373.093 438.372 369.659 438.372 369.659C438.372 336.741 439.204 322.811 435.215 301.088C435.2 281.894 433.899 262.717 431.318 243.654L380.647 246.717Z" fill="#455A64"/>
<path opacity="0.2" d="M389.898 257.865C392.575 263.496 400.942 263.496 400.942 263.496L402.449 269.892L401.89 292.629C403.488 281.571 405.035 268.192 405.035 268.192L403.995 261.345C398.977 261.604 394.006 260.377 389.898 257.865Z" fill="black"/>
<path d="M424.419 144.576C422.901 143.057 420.784 142.082 418.482 141.84L387.469 144.34C383.896 150.905 386.754 155.241 386.754 155.241C386.274 165.264 385.871 171.626 390.951 173.744C394.544 174.986 398.432 175.453 402.28 175.106C405.896 174.921 409.431 174.105 412.674 172.707L412.843 172.629C413.963 172.117 414.941 171.399 415.709 170.526C416.476 169.652 417.015 168.645 417.286 167.572C417.81 165.623 418.166 163.643 418.352 161.649C418.409 160.516 418.552 159.387 418.781 158.27C419.025 157.147 419.628 156.105 420.521 155.263C420.975 154.852 421.538 154.543 422.16 154.362C422.783 154.182 423.447 154.136 424.094 154.227C424.319 154.28 424.536 154.352 424.744 154.441C425.614 149.993 425.874 146.13 424.419 144.576Z" fill="#37474F"/>
<path d="M413.062 145.342C412.525 147.211 412.67 149.179 413.478 150.973C414.278 152.752 414.934 154.577 415.44 156.435C415.844 158.305 415.548 160.238 414.595 161.953C414.101 162.793 413.402 163.53 412.548 164.113C411.693 164.696 410.703 165.112 409.645 165.331C406.319 165.939 403.058 164.261 399.719 163.698C396.517 163.24 393.231 163.766 390.429 165.185C390.19 165.307 389.919 165.373 389.641 165.378C389.364 165.383 389.09 165.326 388.845 165.213C388.6 165.101 388.393 164.935 388.242 164.733C388.092 164.531 388.004 164.299 387.987 164.059C387.584 158.293 387.597 149.25 388.584 145.016L413.062 145.342Z" fill="#FFA8A7"/>
<path d="M418.935 164.531C418.935 164.531 418.87 166.874 418.805 169.666C420.182 168.642 421.184 167.292 421.689 165.781C420.62 165.687 419.633 165.239 418.935 164.531Z" fill="#37474F"/>
<path d="M389.131 140.116L385.233 137.796C384.837 138.913 384.765 140.098 385.023 141.245C385.281 142.392 385.862 143.467 386.714 144.373C388.476 146.147 390.865 147.367 393.509 147.841C396.137 148.307 398.833 148.413 401.499 148.157C405.405 147.882 409.27 147.27 413.037 146.332C414.74 146.025 416.311 145.311 417.571 144.271C418.353 143.403 418.797 142.342 418.839 141.241C418.881 140.14 418.519 139.056 417.805 138.145C417.064 137.253 416.114 136.507 415.016 135.956C413.919 135.405 412.7 135.061 411.439 134.947C408.864 134.765 406.272 134.94 403.76 135.465C401.248 135.99 398.654 136.154 396.082 135.949C394.796 135.832 393.562 135.447 392.485 134.828C391.409 134.208 390.521 133.372 389.897 132.391C387.701 135.442 389.131 140.116 389.131 140.116Z" fill="#37474F"/>
<path d="M398.796 155.555L393.145 161.501L398.328 163.089L398.796 155.555Z" fill="#F28F8F"/>
<path d="M403.072 166.039L398.707 167.165C398.992 167.604 399.434 167.951 399.966 168.154C400.497 168.357 401.09 168.405 401.656 168.291C402.148 168.107 402.555 167.785 402.812 167.377C403.068 166.968 403.16 166.498 403.072 166.039Z" fill="#F28F8F"/>
<path opacity="0.3" d="M403.072 166.039L398.707 167.165C398.992 167.604 399.434 167.951 399.966 168.154C400.497 168.357 401.09 168.405 401.656 168.291C402.148 168.107 402.555 167.785 402.812 167.377C403.068 166.968 403.16 166.498 403.072 166.039Z" fill="black"/>
<path d="M400.227 168.292C400.682 168.447 401.181 168.474 401.656 168.371C402.06 168.239 402.41 168.005 402.662 167.701C402.914 167.396 403.056 167.034 403.072 166.66C402.49 166.581 401.894 166.676 401.383 166.93C400.808 167.237 400.393 167.725 400.227 168.292Z" fill="#F28F8F"/>
<path d="M406.489 156.863C406.473 157.13 406.366 157.387 406.181 157.601C405.997 157.816 405.743 157.978 405.452 158.067C405.161 158.156 404.845 158.168 404.546 158.102C404.247 158.036 403.978 157.894 403.771 157.695C403.565 157.496 403.432 157.248 403.389 156.983C403.345 156.718 403.393 156.448 403.527 156.207C403.661 155.966 403.874 155.765 404.14 155.629C404.406 155.493 404.713 155.428 405.021 155.444C405.432 155.464 405.818 155.625 406.093 155.891C406.368 156.156 406.51 156.506 406.489 156.863Z" fill="#263238"/>
<path d="M393.496 155.825C393.47 156.18 393.283 156.513 392.977 156.751C392.671 156.988 392.27 157.113 391.859 157.097C391.551 157.084 391.255 156.991 391.007 156.831C390.76 156.671 390.573 156.45 390.47 156.198C390.367 155.946 390.353 155.673 390.429 155.414C390.506 155.154 390.669 154.92 390.899 154.742C391.129 154.563 391.415 154.448 391.72 154.41C392.026 154.372 392.338 154.414 392.616 154.53C392.894 154.646 393.126 154.831 393.283 155.062C393.44 155.292 393.514 155.558 393.496 155.825Z" fill="#263238"/>
<path d="M392.315 150.399L388.755 152.302C388.627 151.926 388.634 151.525 388.776 151.153C388.917 150.78 389.187 150.454 389.548 150.218C389.982 150.019 390.472 149.93 390.962 149.961C391.451 149.993 391.921 150.145 392.315 150.399Z" fill="#263238"/>
<path d="M405.605 150.859L408.919 153.111C409.093 152.749 409.134 152.349 409.037 151.966C408.939 151.583 408.707 151.236 408.373 150.972C407.971 150.728 407.498 150.589 407.008 150.569C406.518 150.549 406.032 150.65 405.605 150.859Z" fill="#263238"/>
<path d="M430.707 180.59L424.211 179.993L392.705 179.824C381.635 179.824 380.219 191.637 379.582 202.088C378.946 212.539 380.986 233.564 378.283 247.607L391.457 254.983L395.16 251.537L401.072 256.301C421.119 256.301 432.916 246.661 434.436 245.039L430.707 180.59Z" fill="#0E6FFF"/>
<path opacity="0.2" d="M430.707 180.59L424.211 179.993L392.705 179.824C381.635 179.824 380.219 191.637 379.582 202.088C378.946 212.539 380.986 233.564 378.283 247.607L391.457 254.983L395.16 251.537L401.072 256.301C421.119 256.301 432.916 246.661 434.436 245.039L430.707 180.59Z" fill="white"/>
<path d="M397.873 183.449C394.924 191.602 396.769 202.965 397.873 208.078C405.357 199.159 412.36 190.206 414.556 186.681L404.162 182.289L397.873 183.449Z" fill="#455A64"/>
<path d="M426.873 156.39C426.454 155.537 425.693 154.845 424.729 154.442C424.522 154.352 424.304 154.28 424.08 154.228C423.432 154.136 422.768 154.182 422.146 154.363C421.523 154.543 420.961 154.852 420.507 155.264C419.614 156.105 419.011 157.147 418.766 158.27C418.538 159.387 418.394 160.516 418.337 161.649C418.145 163.693 417.776 165.722 417.233 167.719C416.948 168.766 416.407 169.748 415.644 170.598C414.882 171.447 413.917 172.144 412.815 172.64L412.66 172.708C409.416 174.105 405.881 174.921 402.266 175.106V184.115L416.921 177.843C417.438 177.58 417.87 177.208 418.174 176.761C418.479 176.313 418.647 175.806 418.662 175.287C418.662 173.845 418.74 171.12 418.779 169.656C418.844 166.863 418.909 164.521 418.909 164.521C419.608 165.228 420.594 165.676 421.663 165.771C422.144 165.834 422.635 165.811 423.105 165.703C423.802 165.515 424.448 165.206 425.004 164.796C425.56 164.385 426.015 163.882 426.341 163.316C426.981 162.181 427.332 160.941 427.367 159.678C427.49 158.564 427.321 157.44 426.873 156.39Z" fill="#FFA8A7"/>
<path d="M414.751 172.526C415.616 171.566 416.232 170.456 416.557 169.271C415.754 170.713 414.444 171.896 412.815 172.65L412.66 172.717C409.416 174.115 405.881 174.931 402.266 175.116V177.368C404.354 177.204 406.412 176.826 408.398 176.242C410.878 175.548 413.08 174.26 414.751 172.526Z" fill="#F28F8F"/>
<path d="M402.241 190.939L399.642 190.398C398.384 193.248 397.334 196.163 396.498 199.126C396.772 202.148 397.228 205.155 397.862 208.135C399.33 206.39 400.773 204.633 402.176 202.921C401.732 198.935 401.753 194.921 402.241 190.939Z" fill="#0E6FFF"/>
<path opacity="0.2" d="M402.124 191.401C402.124 191.254 402.124 191.085 402.124 190.939L399.526 190.398L399.383 190.736C399.795 191.061 400.296 191.29 400.838 191.401C401.262 191.478 401.7 191.478 402.124 191.401Z" fill="black"/>
<path d="M403.617 185.083L405.644 183.957L410.373 186.209C408.757 187.285 406.827 187.948 404.799 188.124L403.617 185.083Z" fill="#0E6FFF"/>
<path d="M400.486 184.643L399.875 183.449L397.484 184.744C397.743 185.525 398.285 186.212 399.03 186.704L400.486 184.643Z" fill="#0E6FFF"/>
<path opacity="0.2" d="M403.617 185.083L405.644 183.957L410.373 186.209C408.757 187.285 406.827 187.948 404.799 188.124L403.617 185.083Z" fill="black"/>
<path opacity="0.2" d="M400.486 184.643L399.875 183.449L397.484 184.744C397.743 185.525 398.285 186.212 399.03 186.704L400.486 184.643Z" fill="black"/>
<path d="M404.799 188.102C404.591 187.048 404.192 186.029 403.617 185.084L400.486 184.645C399.913 185.282 399.425 185.973 399.031 186.705C398.96 187.96 399.172 189.215 399.654 190.399C400.458 190.758 401.349 190.943 402.253 190.94C403.422 190.247 404.313 189.255 404.799 188.102Z" fill="#0E6FFF"/>
<path d="M402.514 184.127C407.477 184.059 410.517 187.505 415.051 188.631L424.302 179.971L420.716 175.354C420.001 174.43 419.794 173.653 418.715 173.102V174.78C418.715 175.771 417.338 176.683 416.351 177.178L402.514 184.127Z" fill="#37474F"/>
<path d="M402.514 184.126C399.759 183.383 395.641 186.378 395.641 186.378C397.083 179.464 401.435 176.738 402.501 176.738L402.514 184.126Z" fill="#37474F"/>
<path opacity="0.2" d="M396.927 208.688L393.536 212.64C392.603 213.721 392.142 215.054 392.237 216.402L394.51 249.251L390.613 216.661C390.504 215.743 390.653 214.816 391.046 213.96C391.44 213.103 392.067 212.341 392.873 211.739L396.927 208.688Z" fill="black"/>
<path d="M447.363 246.695C445.111 245.784 443.159 244.398 441.686 242.663L439.464 246.042C436.541 245.017 433.461 244.127 430.551 243.102C429.859 242.808 429.1 242.65 428.329 242.641C427.942 242.642 427.565 242.753 427.255 242.956C426.946 243.159 426.721 243.444 426.614 243.767C426.601 244.116 426.686 244.463 426.863 244.777C427.039 245.091 427.302 245.363 427.628 245.569C429.142 246.849 430.9 247.893 432.825 248.654C430.179 250.797 427.095 252.493 423.73 253.654C422.669 253.971 421.642 254.371 420.664 254.848C419.684 255.347 418.963 256.153 418.65 257.1C418.551 257.723 418.617 258.356 418.842 258.953C419.067 259.55 419.446 260.095 419.949 260.546C421.063 261.581 422.42 262.397 423.928 262.939C425.436 263.481 427.061 263.737 428.693 263.688C431.969 263.569 435.149 262.694 437.905 261.154C440.65 259.624 443.217 257.866 445.57 255.907C448.695 253.476 451.532 250.783 454.041 247.866C451.741 247.931 449.454 247.53 447.363 246.695Z" fill="#FFA8A7"/>
<path d="M467.488 231.344C468.584 229.995 469.248 228.418 469.412 226.774C469.576 225.131 469.235 223.478 468.423 221.986C459.601 205.882 448.415 189.643 448.415 189.643C443.894 182.886 440.619 179.992 430.589 180.578C426.692 192.121 430.239 198.359 439.957 211.569L451.65 227.47L441.633 242.662C443.055 244.355 444.941 245.714 447.121 246.616C449.301 247.519 451.706 247.936 454.118 247.831L454.651 247.223L467.488 231.344Z" fill="#455A64"/>
</svg>
