<svg width="31" height="31" viewBox="0 0 31 31" fill="none" xmlns="http://www.w3.org/2000/svg">
<path d="M29.8 12.6432H28.6253V12.5827H15.5003V18.416H23.7421C22.5397 21.8117 19.3088 24.2493 15.5003 24.2493C10.6681 24.2493 6.75033 20.3315 6.75033 15.4993C6.75033 10.6672 10.6681 6.74935 15.5003 6.74935C17.7308 6.74935 19.7601 7.59081 21.3052 8.96529L25.4301 4.84039C22.8255 2.41299 19.3416 0.916016 15.5003 0.916016C7.44668 0.916016 0.916992 7.4457 0.916992 15.4993C0.916992 23.553 7.44668 30.0827 15.5003 30.0827C23.554 30.0827 30.0837 23.553 30.0837 15.4993C30.0837 14.5215 29.983 13.5671 29.8 12.6432Z" fill="#FFC107"/>
<path d="M2.59845 8.71154L7.3898 12.2254C8.68626 9.0156 11.8261 6.74935 15.5003 6.74935C17.7308 6.74935 19.7601 7.59081 21.3052 8.96529L25.4301 4.84039C22.8255 2.41299 19.3416 0.916016 15.5003 0.916016C9.89887 0.916016 5.04116 4.07841 2.59845 8.71154Z" fill="#FF3D00"/>
<path d="M15.5003 30.0827C19.2672 30.0827 22.6899 28.6411 25.2777 26.2968L20.7642 22.4775C19.2511 23.6289 17.4017 24.2514 15.5003 24.2493C11.7072 24.2493 8.48647 21.8307 7.27314 18.4554L2.51751 22.1195C4.93105 26.8423 9.83251 30.0827 15.5003 30.0827Z" fill="#4CAF50"/>
<path d="M29.8 12.6432H28.6253V12.5827H15.5003V18.416H23.7421C23.1669 20.0322 22.1309 21.4444 20.762 22.4782L20.7642 22.4775L25.2777 26.2968C24.9583 26.5871 30.0837 22.791 30.0837 15.4993C30.0837 14.5215 29.983 13.5671 29.8 12.6432Z" fill="#1976D2"/>
</svg>
